<?xml version="1.0" encoding="UTF-8"?>
<!DOCTYPE svg PUBLIC "-//W3C//DTD SVG 1.0//EN" "http://www.w3.org/TR/2001/REC-SVG-20010904/DTD/svg10.dtd">
<!-- Creator: CorelDRAW 2020 (64-Bit) -->
<svg xmlns="http://www.w3.org/2000/svg" xml:space="preserve" width="850mm" height="400mm" version="1.0" style="shape-rendering:geometricPrecision; text-rendering:geometricPrecision; image-rendering:optimizeQuality; fill-rule:evenodd; clip-rule:evenodd"
viewBox="0 0 85000 40000"
 xmlns:xlink="http://www.w3.org/1999/xlink"
 xmlns:xodm="http://www.corel.com/coreldraw/odm/2003">
 <defs>
  <style type="text/css">
   <![CDATA[
    .str0 {stroke:#373435;stroke-width:1000;stroke-miterlimit:22.9256}
    .str1 {stroke:#F1F1F2;stroke-width:20;stroke-miterlimit:22.9256}
    .fil0 {fill:none}
    .fil1 {fill:#373435}
   ]]>
  </style>
 </defs>
 <g id="Capa_x0020_1">
  <metadata id="CorelCorpID_0Corel-Layer"/>
  <g id="_2072098816416">
   <path class="fil0 str0" d="M41016.9 728.56c-7877.84,359.19 -16138.1,1934.66 -23690.43,4124.05 -2104.25,610.01 -8296.62,2791.12 -8003.32,5875.33 254.47,2675.63 5898.82,-1204.8 6866.48,-1797.64 2875.14,-1761.38 4163.32,-1934.24 7697.69,-2728.81 3985.87,-896.08 11381.37,-2361.36 15229.89,-808.65 716.8,289.19 1524.24,1027.01 1551.26,1969.01 25.52,889.66 -652.98,1654.51 -1229.85,2198.67 -647.84,611.08 -1262.07,989.11 -1996.49,1453.9 -1280.93,810.67 -3098.58,1725.68 -4623.17,2354.22 -5621.83,2317.73 -9895.95,3652.6 -15796.03,5058.28 -2958.72,704.9 -3427.68,541.57 -6092.04,871.56 -3316.85,410.81 -7591.76,1763.29 -9301.14,4591.76 -344.68,570.33 -808.1,2077.06 -459.4,2853.77 483.36,1076.66 3815.88,-1407.51 4485.97,-1835.88 2089.93,-1335.99 4487.55,-2900.86 6979.95,-3531.26 1872.42,-473.6 3863.84,-753.1 5736.01,-1230.24 8000.93,-2039.1 17678.39,-5658.45 24166.11,-10571.18 1389.43,-1052.12 2589.01,-2058.58 3646.04,-3330.25 436.77,-525.47 999.59,-1325.94 1305.62,-2145.84 474.16,-1270.44 409.75,-1889.89 -578.6,-2461.57 -1442.93,-834.65 -4040.25,-993.79 -5894.55,-909.23z"/>
   <path class="fil1 str1" d="M1478.5 31436.48c196.63,187.33 428.2,554.08 613.76,775.53 1384.41,1652.18 4084.04,2502.95 5810.41,816.22 279.75,-273.34 387.04,-529.72 639.38,-819.47 2951.35,1021.29 5301.65,321.45 6704.49,-1527.86 135.07,-235.45 218.01,-310.14 325.21,-569.42 1087.78,132.04 2349.93,705.71 3950.07,360.44 891.2,-192.28 1582.59,-520.02 2149.67,-1154.32 160.5,-179.52 337.05,-430.43 520.96,-580.06 823.38,374.72 2891.98,-172.94 3591.71,-517.52 577.35,-284.34 850.94,-492.17 1240.67,-891.95 421.87,-432.74 507.89,-635.62 851.24,-1204.5 2399.16,-140.38 4734.43,-69.94 6379.49,-2286.04 658.52,-83.35 1308.95,199.09 2973.66,-116.22 754.31,-142.87 1749.29,-528.43 2169.64,-911.69 599.6,2097.57 747.23,3034.05 1837.9,4918.65 152.21,263.02 261.23,453.76 404.12,696.83 154.52,262.88 363.83,435.36 394.14,688.79 794.24,440.62 1242.3,3281.93 8580.75,4870.18 1862.7,403.16 3697.75,711.18 5536.19,1158.13 1800.04,437.63 3440.94,1059.28 5176.09,1574.62 3554.61,1055.67 7196.44,1975.92 11069.28,2389.31 2709.14,289.19 8291.57,642.91 10215.77,-1939.71 156.05,-209.46 167.87,-344.35 400.1,-502.54 42.38,-329.11 369.71,-815.07 501.95,-1241.61 321.89,-1038.23 702.44,-3436.43 152.32,-4353.2 -966.96,-123.86 -646.59,678.73 -635.87,1471.28 22.55,1663.86 -423.3,3645.73 -1748.87,4691.56 -1515.49,1195.66 -5228.04,1248.93 -7407.81,1134.15 -4614.66,-243.03 -10087.78,-1717.19 -14182.48,-3093.92 -2348.7,-789.68 -4412.92,-1241.9 -6946.46,-1731.3 -2926.78,-565.36 -7188.64,-1482.31 -9072.52,-3844.59 -1324.59,-1660.96 -2491.67,-3504.63 -3035.43,-5632.57 -622.41,-2435.86 -496.72,-1733.63 -151.6,-2950.76 99.4,-350.6 -10.7,-228.34 196.3,-335.42 227.9,122.38 89.03,-104.65 158.62,302.88 59.45,348.31 -27.52,850.49 374.08,956.61 756.2,199.84 545.04,-625.58 513.73,-1089.56 870.07,-26.5 1531.77,123.65 2479.51,-8.79 376.54,-52.62 796.43,-214.56 1073.42,-249.78 422.84,-53.79 351.88,417.83 858.1,56.58 416.52,-375.51 -324.14,-106.97 652.62,-820.26 965.73,-705.2 1291.28,-1585.08 1359.08,-2877.44 1706.74,70.69 2891.98,-546 3549.2,-1540.77 1069.39,-1618.68 517.42,-2892.81 519.61,-4166.79 2960.31,109.27 3551.26,2509.2 3920.75,2671.32 430.78,189.02 725.09,-158.39 592.98,-595.35 -151.25,-500.33 -791.09,-1248.4 -1039.91,-1536 347.01,-263.56 527.18,-475.21 1051.18,-654.52 993.24,-339.85 1996.25,-255.65 2953.46,172.88 265.25,118.74 370.6,185.71 528.6,350.1 465.25,484.07 620.96,138.74 1364.66,1276.45 154.17,235.86 492.17,1005.14 972.57,491.3 310.03,-331.59 -164.2,-923.2 -327.19,-1135.82 -362.63,-473.06 -665.86,-660.54 -798.61,-915.58 98.67,-110.87 52.71,-73.78 207.58,-185.75 12.91,-9.32 182.23,-113.16 230,-137.24 514.97,-259.77 1131.85,-317.69 1718.77,-291.89 1743.52,76.54 2701.63,616.92 3921.88,1540.68 399.25,302.26 1000.95,1403.17 1453.4,542.92 17.09,-566.51 -607.55,-855.46 -857.39,-1272.57 284.7,-91.17 640.96,-384.42 1002.96,-550.76 1304.4,-599.36 2522.8,-628.02 3879.58,-161.21 348.79,120.01 724.28,329.11 1020.85,522.81 904.24,590.61 679.4,470.08 1283.79,1064.63 1116.77,1098.52 1388.22,2497.12 515.02,3878.81 -1253.08,1982.74 -4407.36,2169.22 -6811.5,2429.49 -3703.6,400.93 -7993.52,537.86 -11646.76,-48.98 -1764.67,-283.46 -3818.31,-466.48 -5504.88,93.61 -682.06,226.51 -1464.24,695.47 -1828.16,1254.93 -341.83,525.52 -922.45,2199.6 390.62,1844.11l104.61 -389.35c151.77,-2443.63 3851.87,-2319.92 6117.89,-1999.03 5021.87,711.16 10395.45,652.75 15426.37,-259.44 4520.43,-819.61 4353.29,-2613.42 4991.51,-3339.01 -46.7,-705 724.69,-1723.91 -638.43,-3551.3 -1716.79,-2301.6 -4753.78,-3476.86 -7674.56,-2155.11 -642.42,290.71 -886.35,483.93 -1329.89,864.35 -345.98,-103.73 -951.56,-521.5 -1473.24,-717.74 -558.28,-210.02 -1115.57,-374.43 -1762.01,-440.79 -1733.01,-177.94 -2300.22,75.48 -3519.72,906.9 -900.55,-438.23 -1772.31,-869.58 -3013.67,-788.66 -1312.47,85.56 -1834.16,587.67 -2640.95,1139.88 -247.34,-62.31 -397.39,-210.15 -646.29,-320.33 -206.44,-91.38 -466.05,-191.49 -692.8,-264.37 -584.55,-187.85 -1026.18,-228.98 -1666.1,-238.04 -175.97,-942.18 -1708.18,-5993.03 -2204.84,-6251.78 -471.46,-245.62 -768.87,218.9 -546.38,770.09 330.57,818.99 640.26,1596.03 930.78,2449.68 519.83,1527.51 1230.49,3728.74 1298.23,5453.16 82.97,2111.8 -1177.5,3472.8 -3323.49,3255.08 -141.53,-385.2 -243.61,-1369.89 -355.92,-1849.63 -145.26,-620.42 -1020.91,-3731.72 -1419.92,-4016.76 -286.09,-204.36 -514.34,-55.04 -661.18,170.24 -80.88,342.35 559.17,1872.17 713.95,2351.49 266.35,824.97 487,1625.66 648.58,2504.41 420.71,2287.86 173.11,3651.2 -1593.04,4373.71 -1364.76,558.32 -2558.57,557.82 -4075.86,346.03 -1565.64,-218.55 -92.76,-31.99 -1346.63,-3353.14 -164.57,-435.88 -760.41,-2016.24 -1390.67,-1587.48 -732,497.95 1633.85,2214.33 999.24,5683.72 -90.53,494.93 -134.92,324.51 -335.38,616.06 -218.99,318.48 18.51,254.8 -302.78,582.23 -1002.38,1021.45 -2865.06,1112 -4275.55,1023.57 -38.37,-544.06 707.45,-1920.29 -588.14,-3730.03 -237.68,-332.03 -417.62,-631.66 -920.68,-620.73 -552.35,528.2 -219.67,681.58 94.76,1081.38 938.21,1192.9 804.69,2847.59 -1.98,3822.27 -1050.26,1269.05 -2945.28,1725.08 -5176.95,1703.24 104.64,-928.61 -56.11,-1724.53 -390.38,-2458.13 -126.06,-276.7 -376.86,-665.55 -518.71,-873.87 -195.34,-286.85 -562.96,-516.89 -838.2,-149.04 -431.05,668.46 1921.6,2058.77 377.69,4484.74 -715.98,1125.06 -2419.18,1940.15 -4296.28,1670.24 301.36,-1591.18 62.24,-2696.92 -532.83,-4021.96 -399.66,-889.91 -1220.14,-471.06 -836.26,320.03 868.61,1790.11 1023.9,4248.48 -948.14,5109.7 -1029.36,449.54 -3217.36,455.8 -4180.69,-58.43 234.56,-1883.41 397.03,-2875.34 -519.98,-4979.72 -158.5,-363.71 -244.43,-887.93 -778.01,-751.94 -766.96,195.49 266.81,1266.32 537.68,3251.98 281.02,2060.29 -539.11,3530.34 -1614.96,4283.36 -1757.84,1230.41 -3223.08,706.94 -4776.49,348.08 127.51,-730.5 246.79,-1215.86 249.76,-2005.69 2.69,-712.68 117.66,-1476.05 -672.58,-1452.73 -289.29,245.34 -298.37,296.05 -256.8,748.96 80.21,874.05 34.6,1918.28 -281.4,2717.64 -966.39,2444.56 -3711.48,1934.7 -5191.67,136.51 -172.09,-209.08 -745.07,-1064.87 -924.18,-1135.09 -280.28,-109.89 -528.2,119.59 -570.67,332.76 -62.89,315.64 169.28,456.55 277.78,705.76z"/>
   <path class="fil1" d="M44261.07 25553.88c98.77,-601.68 -735,-2909.85 1228.89,-3408.39 1375.17,-349.08 2996.06,345.55 3624.49,1071.24 -935.27,398.29 -1605.79,891.37 -1738.25,2131.76 -44.32,415.06 -27.08,1462.32 282.36,1694.93 228.96,172.13 587.63,94.51 695.65,-126.94 229.27,-469.94 -968.68,-2640.66 1784.05,-2982.9 847.07,-105.34 2421.83,53.81 3086.15,471.95 221.35,139.33 83.25,50.13 177.17,152.9 -1241.36,780.19 -1193.58,3366.95 -468.06,3598.7 264.18,84.39 369.12,-23.81 468.6,-164.64 354.49,-579.28 -1002.26,-2556.14 1572.47,-3194.67 1312.22,-325.42 3190.78,71.34 4077.99,766.95 -483.2,938.21 -923.74,1530.32 -690.03,3089.63 83.93,560.07 253.73,601.52 787.66,461.76 302.34,-605.31 -522.06,-3201.61 1902.83,-3658.1 1744.62,-328.42 3193.48,84.85 4509.62,1066.78 -298.81,570.31 -556.79,710.88 -715.22,1615.6 -62.85,358.79 -75.46,723.04 -55.52,1095.08 31.29,583.72 28.85,723.17 289.54,885.64 243.2,159.35 413.46,97.26 601.16,-128.41 260.21,-443.05 -867.01,-3497.22 2610.12,-3590.88 1029.13,-27.73 1795.98,64.8 2725.09,334.73 566.09,164.45 1837.21,703.92 2113.43,1031.28 -238.08,351.07 -557.32,689.97 -723.36,1247.25 -144.01,483.39 -299.57,1370.09 123.13,1652.87 842.02,207.29 545.19,-795.45 723.57,-1393.1 834.98,-2797.53 6807.74,-1989.22 8215.71,-582.74 155.63,155.46 295.2,452.37 659.99,353.95 303.62,-81.94 423.83,-389 224.47,-721.92 -924.26,-1543.62 -5648.29,-2363.32 -7971.32,-1368.72 -418.71,179.25 -365.61,288.5 -752.11,33.43 -1708.26,-1127.37 -5018.5,-2149.26 -7319.26,-1036.29 -652.77,-387.94 -369.75,-441.01 -1553.41,-965.48 -1109.07,-491.44 -3233.07,-706.02 -4324.89,-307.34 -430.05,157.02 -481.32,359.07 -806.14,160.04 -2912.07,-1784.28 -4483.91,-833.58 -5210.87,-884.17 -151.25,-10.51 -1017.5,-527.82 -1824.98,-755.43 -836.93,-235.94 -1487.83,-214.17 -2387.85,-198.49 -1860.51,-2334.19 -6297.05,-2782.4 -6903.33,413.63 -140.08,738.45 -73.67,3173.31 960.46,2138.51z"/>
  </g>
 </g>
</svg>
