<?xml version="1.0" encoding="UTF-8"?>
<!DOCTYPE svg PUBLIC "-//W3C//DTD SVG 1.0//EN" "http://www.w3.org/TR/2001/REC-SVG-20010904/DTD/svg10.dtd">
<!-- Creator: CorelDRAW 2020 (64-Bit) -->
<svg xmlns="http://www.w3.org/2000/svg" xml:space="preserve" width="150mm" height="100mm" version="1.0" style="shape-rendering:geometricPrecision; text-rendering:geometricPrecision; image-rendering:optimizeQuality; fill-rule:evenodd; clip-rule:evenodd"
viewBox="0 0 15000 10000"
 xmlns:xlink="http://www.w3.org/1999/xlink"
 xmlns:xodm="http://www.corel.com/coreldraw/odm/2003">
 <defs>
  <style type="text/css">
   <![CDATA[
    .fil3 {fill:none}
    .fil0 {fill:#5E6D7A}
    .fil1 {fill:#F0F0F1}
    .fil2 {fill:#F1F1F2}
   ]]>
  </style>
 </defs>
 <g id="Capa_x0020_1">
  <metadata id="CorelCorpID_0Corel-Layer"/>
  <g id="_2036068536528">
   <path class="fil0" d="M12851.73 7149.76l-202.02 670.87c-97.27,-146.26 -79.73,-132.43 -126.76,-303.22l89.04 -723.35 44.23 -583.29 217.09 -37.24 13.98 396.47 -35.56 579.76zm-377.81 -269.2c0.49,303.32 -94.79,572.61 -165.33,839.89 -127.35,235.07 -266.34,353.88 -464.53,114.06 -276.97,-305.79 -335.66,-650.7 -443.03,-1120.25l-50.31 -580.63c430.41,121.75 744.75,119.2 1196.53,78.83l-73.33 668.1zm-3473.23 -1052.42c174.03,-104.43 356.92,46.8 483.53,125.69l164.23 66.85c40.43,360.95 35.28,617.98 -132.63,936.53 -79.91,151.6 -95.32,197.91 -215.08,315.59 -126.35,124.15 -146.3,150.9 -260.92,115.5 -53.07,-16.39 -54.07,-29.54 -69.22,-40.38 -153.59,-60.11 -118.5,-56.94 -219.18,-165.16 -72.52,-77.94 -117.86,-116.61 -188.53,-201.19 -113.97,-136.4 -258.62,-209.15 -280.13,-465.7l-26.48 -291.52c137.79,-60.69 270.48,-98.98 401.04,-160.62 161.49,-76.23 206.59,-156.09 343.37,-235.59zm-5826.72 734.72l29.59 -63.47c1.19,-266.21 128.25,-94.95 346.64,-250.43 136.61,-97.25 180.14,-180.75 286.79,-317.14 77.15,107.76 61.89,49.64 110.6,173.73 83.26,37.07 88.31,54.83 166.72,119.98l81.88 13.97c4.17,8.36 7.53,20.25 8.88,26.58 1.36,6.36 6.26,19.15 7.57,27.14l-54.78 389.27c-33.24,129.86 -62.41,250.72 -124.19,367.42 -114.49,216.27 -300.61,437.19 -615.69,319.85 -252.76,19.09 -678.49,62.94 -858.02,-98.34 -104.5,-93.88 -348.71,-348.59 -383.4,-546.04 -87.88,-101.31 -96.73,-230.99 -78.51,-372.31 408,-128.09 305.41,-73.72 560.32,-342.77 104.3,109.97 286.28,223.65 435.27,290.71l-31.39 144.93c-24.45,144.13 -51.72,162.45 27.19,290.14 137.76,-17.87 79.56,6.5 84.53,-173.22zm2602.12 -490.85c102.84,-94.22 77.98,-54.04 118.02,-164.79 171.32,77.12 234.97,182.31 401.35,231.47 -27.01,242.96 -22.06,416.79 -84.92,655.22 -66.89,253.68 -108.88,406.59 -254.2,448.39l-51.51 21.07c-309.35,12.13 -519.31,-81.14 -846.21,-32.79 -302.11,44.67 -522.27,-18.08 -543.78,-285.72 -170.08,-155.14 -155.52,-513.97 -169,-759.78 76.14,-39.86 138.38,-92.02 189.99,-163.16l281.08 217.76 349.68 25.8c-21.96,157.04 -142,549.01 46.64,559.86 3.88,-8.96 5.89,-21.28 7.15,-28.41 46.84,-263.64 4.43,-496.89 195.66,-728.37 61.88,-74.89 60.11,-84.87 142.84,-149.08 84.15,122.03 48.46,124.57 217.21,152.53zm5450.9 386.72c-1.01,411.37 -45.17,850.67 -162.71,1246.04 -86.58,194.66 -178.86,391.15 -458.66,353.38 -223.34,-30.14 -332.49,-206.8 -436.07,-373.94 -103.52,-434.27 -203.13,-837.5 -280.33,-1302.87l-29.22 -291.59c309.85,50.55 716.27,126.1 1009.49,-1.55 84.16,-36.64 44.5,-10.87 108.49,-65.48 45.25,-38.62 2.68,-2.07 51.38,-53.69l32.85 -37.73c58.35,115.27 52.03,86.38 175.69,131.25l-10.91 396.18zm-3793.07 -599.68c205.95,106.68 388,299.48 695.11,334l-20.08 261.98c-11.18,126.15 -28.87,307.4 -95.91,392.11 -184.47,521.62 -542.72,427.81 -672.3,258.51 -104.64,-73.91 -98.96,-116.16 -229.64,-197.99 -328.64,33.74 -443.2,241.66 -565.77,-171.02 -86.29,-152.64 -133.24,-368.79 -133.68,-561.59 84.24,-24.05 377.4,-111.65 401.4,-223.41 2.34,-10.89 10.19,-12.95 15.83,-18.95 102.5,103.56 154.07,80.94 282.65,154.04 -75.05,177.72 -114.77,410.53 -37.12,576.21 127.77,-40.59 89.93,-42.17 91.13,-202.76 1.68,-226.72 38.15,-522.86 268.38,-601.13zm1636.8 -307.32c32.75,40.19 133.03,1.3 5.04,112.08l-5.04 -112.08zm246.65 -1040.55c55.91,-213.87 117.16,-472.88 267.87,-594.59l14.5 -46.17c360.01,-374.06 733.77,135.19 883.83,344.42 186.69,260.3 433.44,692.03 395.25,1091.72 37.05,75.22 83.09,366.91 74.19,478.83 -14.46,181.62 -109.44,192.08 -285.76,240.56 -505.34,3.53 -880.5,-22.53 -1268.36,-267.56 -203.91,-128.82 -197.66,-290.12 -175.47,-606.16 16.22,-230.99 47.67,-424.9 93.95,-641.05zm-2195.19 384.73c217.38,214.09 115.85,74.45 153.16,694.08 9.71,161.31 -88.95,276.49 -164.24,344.54 -79.19,-14.2 15.27,22.72 -87.7,-21.96 -51.55,-22.38 -38.73,-27.31 -63.27,-50.09 -130.08,-77.62 -34.77,-32.16 -38.13,-229.87 -202.18,30.24 -57.44,-72.11 -164.44,121.84 -35.84,64.98 -128.1,313.17 -316.91,259.1 -284.05,5.41 -220.91,-102.23 -442.54,-175.25 49.68,-151.77 96.33,-156.14 103.41,-321.21 -239.99,-54.72 -79,208.37 -366.25,404.37 -173.25,-175.71 -241.25,-903.08 185.62,-1004.83 245.74,-58.58 359.03,4.53 620.08,-83.77 267.92,-90.63 386.89,-76.99 581.21,63.05zm-2649.37 783.84c-10.07,216.44 -79.33,347.53 -224.38,438.33 -479.38,-142.85 -406.81,-913.15 -123.87,-1199.03 126.51,-127.83 399.03,-235.59 658.96,-229.93 260.99,5.68 500.75,152.36 543.74,308.28 191.64,81.71 165.8,371.66 179.56,594.48 15.15,245.46 -117.05,398.43 -285.57,456.83l-36.32 50.42c-128.08,122.33 -576.01,35.24 -581.4,-416.28 -3.78,-316.32 -36.44,-235.65 -131.2,-273.04l0.48 269.94zm-1839.86 -123.44c-35.14,309.49 -206.49,790.82 -637.23,622.87 -142.13,-55.43 -295.11,-207.86 -354.43,-320.02 -90.05,-170.29 -115.39,-382.7 -97.97,-584.72 71.25,-521.36 578.76,-868.85 1123.52,-890.07 655.92,-25.54 1008.14,700.51 1012.56,987.62 151.44,177.44 54.89,441.99 -28.22,625.38 -60.36,133.2 -60.59,125.74 -210.3,179.83 -78.51,28.36 -259.42,80.45 -292.89,-17.53 -214.83,-23.61 -130.86,-47.35 -448.64,-257.75 45.49,-247.04 114.85,-440.66 0.88,-669.61 -145.35,43.17 -81.28,128.73 -67.28,324zm10198.75 -445.4c81.58,147.01 129.95,382.2 146.8,571.62 22.91,257.46 -64.47,396.17 -318.5,390.69l-80.66 12.12c-406.5,64.28 -832.28,44.97 -1206.9,-85.6 -239.68,-112.46 -266.07,-118.35 -316.08,-423.48 -68.33,-702.95 -167.23,-2106.57 605.6,-2202.91 600.27,-74.83 1145.3,1543.5 1169.74,1737.56zm-5301 -363.43l42.84 -7.77c53.14,-84.42 103.5,-129.36 207.84,-190.52 129.38,82.35 372.1,242.51 556.22,297.37 265.81,79.21 378.82,-206.37 539.63,165.73l30.67 23.47c67.75,200.55 129.98,448.48 -2.59,641.51 -161.7,235.44 -598.8,539.04 -1016.55,319.66 -91.66,-48.13 -151.25,-115.81 -219.48,-165.53 -275.68,-200.92 -189.62,7.24 -249.48,-285.75 -66.56,-325.72 -27.88,-455.05 110.9,-798.17zm1252.36 -45.48c280.27,-180.13 269.26,-291.37 480.29,-507.18 -78.57,348.83 -137.64,554.48 -168.69,940.84 -47.01,-183.59 -202.15,-330.26 -311.6,-433.66zm4465.46 -45.36c169.16,259.33 249.46,1010.65 203.78,1341.63 -149.8,32.78 -228.42,24.3 -359.3,-20.42l-23.11 -452.97c-42.45,-554.96 -546.7,-1469.01 -557.45,-1574.41 -18.23,-178.76 69.88,-414.67 172.55,-487.35 211.35,93.07 530.17,833.64 563.53,1193.52zm-3935.48 -990.17c-41.02,283.86 -202.34,487.61 -314.19,659.09 -113.82,174.49 -488.48,409.68 -511.91,415.3 -194.36,46.62 -897.98,-411.65 -1089.78,-856.06 -145.92,-404.22 -195.97,-847.21 -93,-1290.43 100.41,-432.16 329.36,-680.11 829.37,-646.69 869.29,58.08 1279.65,1058.54 1179.51,1718.79zm-7904.69 1734.02c5.28,553.32 229.92,679.65 556.22,917.3 11.16,517.2 329.08,1200.8 983.52,1180.63 813.64,-25.06 917.07,285.19 1329.29,-713.34 273.2,860.72 719.32,529.29 1104.33,561.64 800.86,67.29 757.06,65.74 989.93,-634.96 260.24,411.22 106.04,495.66 704.19,331.77 143.09,123.34 316.21,417.34 695.96,293.39 180.52,-58.92 398.23,-333.75 415.85,-572.75 210.19,215.93 587.94,756.47 899.67,766.2 356.54,11.12 610.04,-625.14 691,-950.48 200.97,574.94 131.99,1282.3 616.37,1536.35 818.03,429.07 862.93,-902.27 949.36,-1061.64 85.33,348.41 353.9,1192.76 828.81,1014.12 148.13,-55.72 165.58,-182.33 265.2,-328.59 123.86,158.3 19.13,208.12 258.45,233.19 336.01,-239.31 313.51,-1373.72 293.77,-1880.6 226.83,49.45 340.89,54.83 560.33,24.71 150.43,-660.8 -174,-1673.36 -450.2,-2296.59 -284.42,-641.77 -601.78,-623.7 -688.76,-74.18l-104.35 -121.63c-259.35,-353.69 -544.41,-516.73 -980.4,-252.77 -317.77,192.4 -394.19,757.98 -456.11,1236.3 -157.97,-279.6 -372.36,-657.45 -565.85,-814.27 -499.11,-404.52 -719.66,-75.02 -900.59,96.83 106.92,-611.36 23.29,-1059.62 -287.84,-1518.55 -218.09,-321.7 -713.06,-667.05 -1302.99,-538.37 -945.74,206.28 -861.15,2053.75 -153.08,2613.87 -155.08,141.77 -238.97,210.92 -344.04,445.59 -234.86,-262.86 -442.06,-296.03 -875.14,-164.86 -370.85,112.32 -668.38,-68.12 -876.27,282.53 -162.79,-118.64 -138.21,-222.13 -391.44,-355.62 -167.03,-88.04 -367.88,-114.81 -587.78,-84.35 -474.97,65.8 -600.27,286.27 -781.96,638.55 -226.1,-426.46 -264.69,-645.89 -658.56,-855.07 -638.31,-338.99 -1745.35,157.42 -1736.89,1045.65z"/>
   <path class="fil1" d="M7397.16 3884.8c111.89,147.88 896.45,637.63 1027.06,599.24 63.42,-18.64 193.88,-118.15 251.44,-165.03l511.28 -546.38c98.58,-119.66 9.11,-45.08 126.1,-106.16 100.14,-660.25 -310.22,-1660.71 -1179.51,-1718.79 -500.01,-33.42 -728.96,214.53 -829.37,646.69 -102.97,443.22 -52.92,886.21 93,1290.43z"/>
   <path class="fil1" d="M11056.36 5576.26c144.34,155.29 159.48,307.73 316.08,423.48 374.62,130.57 800.4,149.88 1206.9,85.6l80.66 -12.12c147.44,-259.61 191.27,-651.24 171.7,-962.31 -24.44,-194.06 -569.47,-1812.39 -1169.74,-1737.56 -772.83,96.34 -673.93,1499.96 -605.6,2202.91z"/>
   <path class="fil1" d="M9599.74 3870.42l-14.5 46.17c-46.34,195.14 -125.82,490.78 -267.87,594.59 -46.28,216.15 -77.73,410.06 -93.95,641.05 -22.19,316.04 -28.44,477.34 175.47,606.16 387.86,245.03 763.02,271.09 1268.36,267.56 154.78,-311.92 204.84,-261.25 211.57,-719.39 38.19,-399.69 -208.56,-831.42 -395.25,-1091.72 -150.06,-209.23 -523.82,-718.48 -883.83,-344.42z"/>
   <path class="fil1" d="M1543.32 5274.44c162.03,251.12 246.21,431.02 472.03,532.12 369.12,165.25 521.46,-174.1 617.6,-250.25 -14,-195.27 -78.07,-280.83 67.28,-324 113.97,228.95 44.61,422.57 -0.88,669.61 317.78,210.4 233.81,234.14 448.64,257.75 226.71,-24.8 298.68,-114.27 378.27,-253.59 115.53,-202.21 129.65,-301.22 153.14,-534.09 -4.42,-287.11 -356.64,-1013.16 -1012.56,-987.62 -544.76,21.22 -1052.27,368.71 -1123.52,890.07z"/>
   <path class="fil2" d="M4248.43 6118.08c89.87,-102.39 118.45,-303.18 224.38,-438.33l-0.48 -269.94c94.76,37.39 127.42,-43.28 131.2,273.04 5.39,451.52 453.32,538.61 581.4,416.28 0,-70.23 -21.96,-64.72 36.32,-50.42 156.55,-258.43 147.84,-746.89 106.01,-1051.31 -42.99,-155.92 -282.75,-302.6 -543.74,-308.28 -259.93,-5.66 -532.45,102.1 -658.96,229.93 -282.94,285.88 -355.51,1056.18 123.87,1199.03z"/>
   <path class="fil2" d="M10169.55 7684.21c274.16,170.39 633.42,242.66 894.73,20.56 117.54,-395.37 161.7,-834.67 162.71,-1246.04 -142.04,-19.44 -478.18,82.93 -695.04,80.45 -236.81,-2.71 -445.19,-95.24 -642.73,-157.84 77.2,465.37 176.81,868.6 280.33,1302.87z"/>
   <path class="fil2" d="M3203.56 6499.39c24.03,77.46 44.53,63.47 -29.59,63.47 -4.97,179.72 53.23,155.35 -84.53,173.22 -78.91,-127.69 -51.64,-146.01 -27.19,-290.14 -187.4,-10.31 -835.84,14.47 -885.69,279.44 34.69,197.45 278.9,452.16 383.4,546.04 179.53,161.28 605.26,117.43 858.02,98.34 197.15,-48.18 134.68,-0.82 286.75,-153.74 223.56,-224.82 220.03,-289.89 345.79,-604.22 24.14,-60.35 45.52,-120.82 69.36,-180.89 29.84,-75.22 3.75,-7.43 31.8,-76.75 4.41,-10.89 18.31,-45.01 22.2,-54.92l22.31 -59.74 -81.88 -13.97c-78.41,-65.15 -83.46,-82.91 -166.72,-119.98 -52.23,182.5 -130.39,273.52 -255.25,356.91 -140.84,94.06 -352,124.56 -488.78,36.93z"/>
   <path class="fil2" d="M4816.91 6239.68c-120.98,175.34 -301.25,424.16 -302.07,705.18 21.51,267.64 241.67,330.39 543.78,285.72 326.9,-48.35 536.86,44.92 846.21,32.79l51.51 -21.07c67.71,-250.46 142.71,-368.85 74.46,-656.76 -60.56,-255.45 -185.14,-338.57 -254.71,-513.53 -168.75,-27.96 -133.06,-30.5 -217.21,-152.53 -82.73,64.21 -80.96,74.19 -142.84,149.08 -191.23,231.48 -148.82,464.73 -195.66,728.37 -1.26,7.13 -3.27,19.45 -7.15,28.41 -188.64,-10.85 -68.6,-402.82 -46.64,-559.86l-349.68 -25.8z"/>
   <path class="fil1" d="M6101.52 5517.09c4.28,9.37 9.37,21.53 12.02,28.47 2.58,6.75 8.13,19.64 11.19,27.88 2.99,8.04 6.65,18.83 9.85,27.61l17.48 53.71c13.7,36.14 26.39,63.05 42.81,95.55 115.57,228.71 68.09,187.28 245.78,263.24 188.81,54.07 281.07,-194.12 316.91,-259.1 107,-193.95 -37.74,-91.6 164.44,-121.84 3.36,197.71 -91.95,152.25 38.13,229.87 233.76,-289.69 163.7,-573.76 162.05,-966.57 -194.32,-140.04 -313.29,-153.68 -581.21,-63.05 -261.05,88.3 -374.34,25.19 -620.08,83.77 -426.87,101.75 -358.87,829.12 -185.62,1004.83 287.25,-196 126.26,-459.09 366.25,-404.37z"/>
   <path class="fil1" d="M7530.7 4747.48c-138.78,343.12 -177.46,472.45 -110.9,798.17 59.86,292.99 -26.2,84.83 249.48,285.75 68.23,49.72 127.82,117.4 219.48,165.53 417.75,219.38 854.85,-84.22 1016.55,-319.66 132.57,-193.03 70.34,-440.96 2.59,-641.51l-30.67 -23.47c-8.27,8.34 -31.12,29.53 -38.06,35.3 -293.34,244.05 -426.65,337.17 -676.89,185.73 -198.83,-120.32 -423.13,-325.13 -588.74,-493.61l-42.84 7.77z"/>
   <path class="fil2" d="M7111.53 6086.73c-204.57,-1.44 -308.83,83.83 -398.03,219.63 -65.45,99.66 -169.16,274.55 -168.17,430.28 122.57,412.68 237.13,204.76 565.77,171.02 130.68,81.83 125,124.08 229.64,197.99 198.97,4.05 415.75,1.73 594.46,-170.08l77.84 -88.43c67.04,-84.71 84.73,-265.96 95.91,-392.11 -179.68,-39.48 -274.97,-152.39 -388.07,-251.76 -65.29,-57.36 -110.5,-100.93 -164.86,-154.79 -93.55,-92.71 -68.2,-83.22 -122.1,-189.43 -230.23,78.27 -266.7,374.41 -268.38,601.13 -1.2,160.59 36.64,162.17 -91.13,202.76 -77.65,-165.68 -37.93,-398.49 37.12,-576.21z"/>
   <path class="fil2" d="M9000.69 5828.14c-307.34,267.99 -265.77,416.61 -632.56,616.44 -83.08,45.27 -12.54,-38.62 -85.37,71.29 21.51,256.55 166.16,329.3 280.13,465.7 70.67,84.58 116.01,123.25 188.53,201.19 100.68,108.22 65.59,105.05 219.18,165.16 178.36,-181.86 266.75,-247.43 366.53,-568.69 96.51,-310.73 93.87,-529.1 147.09,-825.4 -126.61,-78.89 -309.5,-230.12 -483.53,-125.69z"/>
   <path class="fil2" d="M11844.06 7834.51c198.28,57.04 373.08,-30.23 464.53,-114.06 70.54,-267.28 165.82,-536.57 165.33,-839.89 -35.78,-86.6 4.63,-31.54 -56.84,-82.26 -179.59,182.37 -818.94,10.96 -1016.05,-84.04 107.37,469.55 166.06,814.46 443.03,1120.25z"/>
   <path class="fil1" d="M13069.89 5524.88c5.32,10.47 14.9,28.86 19.01,34.91 3.11,4.58 11.12,16.97 14.76,22.21l40.13 53.49c82.54,-406.61 100.15,-542.61 104.73,-978.85 -33.36,-359.88 -352.18,-1100.45 -563.53,-1193.52 -102.67,72.68 -190.78,308.59 -172.55,487.35 10.75,105.4 515,1019.45 557.45,1574.41z"/>
   <path class="fil2" d="M11401.03 6714.26c197.11,95 836.46,266.41 1016.05,84.04 61.47,50.72 21.06,-4.34 56.84,82.26l73.33 -668.1c-451.78,40.37 -766.12,42.92 -1196.53,-78.83l50.31 580.63z"/>
   <path class="fil2" d="M9889.22 6381.34c197.54,62.6 405.92,155.13 642.73,157.84 216.86,2.48 553,-99.89 695.04,-80.45l10.91 -396.18c-123.66,-44.87 -117.34,-15.98 -175.69,-131.25l-32.85 37.73c-48.7,51.62 -6.13,15.07 -51.38,53.69 -63.99,54.61 -24.33,28.84 -108.49,65.48 -293.22,127.65 -699.64,52.1 -1009.49,1.55l29.22 291.59z"/>
   <path class="fil2" d="M7573.54 4739.71l-42.84 7.77 42.84 -7.77c165.61,168.48 389.91,373.29 588.74,493.61 250.24,151.44 383.55,58.32 676.89,-185.73 6.94,-5.77 29.79,-26.96 38.06,-35.3l30.67 23.47 -30.67 -23.47c-160.81,-372.1 -273.82,-86.52 -539.63,-165.73 -184.12,-54.86 -426.84,-215.02 -556.22,-297.37 -104.34,61.16 -154.7,106.1 -207.84,190.52z"/>
   <path class="fil2" d="M7397.16 3884.8c191.8,444.41 895.42,902.68 1089.78,856.06 23.43,-5.62 398.09,-240.81 511.91,-415.3 111.85,-171.48 273.17,-375.23 314.19,-659.09 -116.99,61.08 -27.52,-13.5 -126.1,106.16l-511.28 546.38c-57.56,46.88 -188.02,146.39 -251.44,165.03 -130.61,38.39 -915.17,-451.36 -1027.06,-599.24z"/>
   <path class="fil2" d="M2632.95 5556.31c-96.14,76.15 -248.48,415.5 -617.6,250.25 -225.82,-101.1 -310,-281 -472.03,-532.12 -17.42,202.02 7.92,414.43 97.97,584.72 59.32,112.16 212.3,264.59 354.43,320.02 430.74,167.95 602.09,-313.38 637.23,-622.87z"/>
   <path class="fil2" d="M8970.6 7347.92c15.15,10.84 16.15,23.99 69.22,40.38 114.62,35.4 134.57,8.65 260.92,-115.5 119.76,-117.68 135.17,-163.99 215.08,-315.59 167.91,-318.55 173.06,-575.58 132.63,-936.53l-164.23 -66.85c-53.22,296.3 -50.58,514.67 -147.09,825.4 -99.78,321.26 -188.17,386.83 -366.53,568.69z"/>
   <path class="fil2" d="M13069.89 5524.88l23.11 452.97c130.88,44.72 209.5,53.2 359.3,20.42 45.68,-330.98 -34.62,-1082.3 -203.78,-1341.63 -4.58,436.24 -22.19,572.24 -104.73,978.85l-40.13 -53.49c-3.64,-5.24 -11.65,-17.63 -14.76,-22.21 -4.11,-6.05 -13.69,-24.44 -19.01,-34.91z"/>
   <path class="fil2" d="M2176.56 6725.38c49.85,-264.97 698.29,-289.75 885.69,-279.44l31.39 -144.93c-148.99,-67.06 -330.97,-180.74 -435.27,-290.71 -254.91,269.05 -152.32,214.68 -560.32,342.77 -18.22,141.32 -9.37,271 78.51,372.31z"/>
   <path class="fil2" d="M5776.09 6072.01c69.57,174.96 194.15,258.08 254.71,513.53 68.25,287.91 -6.75,406.3 -74.46,656.76l-51.51 21.07 51.51 -21.07c145.32,-41.8 187.31,-194.71 254.2,-448.39 62.86,-238.43 57.91,-412.26 84.92,-655.22 -166.38,-49.16 -230.03,-154.35 -401.35,-231.47 -40.04,110.75 -15.18,70.57 -118.02,164.79z"/>
   <path class="fil2" d="M4514.84 6944.86c0.82,-281.02 181.09,-529.84 302.07,-705.18l-281.08 -217.76c-51.61,71.14 -113.85,123.3 -189.99,163.16 13.48,245.81 -1.08,604.64 169,759.78z"/>
   <path class="fil2" d="M3203.56 6499.39l-29.59 63.47c74.12,0 53.62,13.99 29.59,-63.47 136.78,87.63 347.94,57.13 488.78,-36.93 124.86,-83.39 203.02,-174.41 255.25,-356.91 -48.71,-124.09 -33.45,-65.97 -110.6,-173.73 -106.65,136.39 -150.18,219.89 -286.79,317.14 -218.39,155.48 -345.45,-15.78 -346.64,250.43z"/>
   <path class="fil2" d="M12611.99 6794.06l-89.04 723.35 52.97 71.6c16.5,-53.11 224.32,-395.49 275.81,-439.25l35.56 -579.76c-9.34,8.97 -19.39,19.93 -26.91,28.02 -7.13,7.67 -17.21,17.4 -25.6,26.47 -98.89,107.03 -30.3,66.86 -184.2,147.83l-38.59 21.74z"/>
   <path class="fil2" d="M4196.19 6239.5l-22.31 59.74c-3.89,9.91 -17.79,44.03 -22.2,54.92 -28.05,69.32 -1.96,1.53 -31.8,76.75 -23.84,60.07 -45.22,120.54 -69.36,180.89 -125.76,314.33 -122.23,379.4 -345.79,604.22 -152.07,152.92 -89.6,105.56 -286.75,153.74 315.08,117.34 501.2,-103.58 615.69,-319.85 61.78,-116.7 90.95,-237.56 124.19,-367.42l54.78 -389.27c-1.31,-7.99 -6.21,-20.78 -7.57,-27.14 -1.35,-6.33 -4.71,-18.22 -8.88,-26.58l-81.88 -13.97 81.88 13.97z"/>
   <path class="fil2" d="M6545.33 6736.64c-0.99,-155.73 102.72,-330.62 168.17,-430.28 89.2,-135.8 193.46,-221.07 398.03,-219.63 -128.58,-73.1 -180.15,-50.48 -282.65,-154.04 -5.64,6 -13.49,8.06 -15.83,18.95 -24,111.76 -317.16,199.36 -401.4,223.41 0.44,192.8 47.39,408.95 133.68,561.59z"/>
   <path class="fil2" d="M6960.13 5862.48c24.54,22.78 11.72,27.71 63.27,50.09 102.97,44.68 8.51,7.76 87.7,21.96 75.29,-68.05 173.95,-183.23 164.24,-344.54 -37.31,-619.63 64.22,-479.99 -153.16,-694.08 1.65,392.81 71.71,676.88 -162.05,966.57z"/>
   <path class="fil2" d="M11064.28 7704.77c-261.31,222.1 -620.57,149.83 -894.73,-20.56 103.58,167.14 212.73,343.8 436.07,373.94 279.8,37.77 372.08,-158.72 458.66,-353.38z"/>
   <path class="fil2" d="M5221.25 6048.71c-58.28,-14.3 -36.32,-19.81 -36.32,50.42l36.32 -50.42c168.52,-58.4 300.72,-211.37 285.57,-456.83 -13.76,-222.82 12.08,-512.77 -179.56,-594.48 41.83,304.42 50.54,792.88 -106.01,1051.31z"/>
   <path class="fil2" d="M12660 6073.22l-80.66 12.12 80.66 -12.12c254.03,5.48 341.41,-133.23 318.5,-390.69 -16.85,-189.42 -65.22,-424.61 -146.8,-571.62 19.57,311.07 -24.26,702.7 -171.7,962.31z"/>
   <path class="fil2" d="M3147.99 6159.67c33.47,97.98 214.38,45.89 292.89,17.53 149.71,-54.09 149.94,-46.63 210.3,-179.83 83.11,-183.39 179.66,-447.94 28.22,-625.38 -23.49,232.87 -37.61,331.88 -153.14,534.09 -79.59,139.32 -151.56,228.79 -378.27,253.59z"/>
   <path class="fil2" d="M12611.99 6794.06l38.59 -21.74c153.9,-80.97 85.31,-40.8 184.2,-147.83 8.39,-9.07 18.47,-18.8 25.6,-26.47 7.52,-8.09 17.57,-19.05 26.91,-28.02l-13.98 -396.47 -217.09 37.24 -44.23 583.29z"/>
   <path class="fil2" d="M8108.95 6455.03l20.08 -261.98c-307.11,-34.52 -489.16,-227.32 -695.11,-334 53.9,106.21 28.55,96.72 122.1,189.43 54.36,53.86 99.57,97.43 164.86,154.79 113.1,99.37 208.39,212.28 388.07,251.76z"/>
   <path class="fil2" d="M8282.76 6515.87c72.83,-109.91 2.29,-26.02 85.37,-71.29 366.79,-199.83 325.22,-348.45 632.56,-616.44 -136.78,79.5 -181.88,159.36 -343.37,235.59 -130.56,61.64 -263.25,99.93 -401.04,160.62l26.48 291.52z"/>
   <path class="fil2" d="M7340.74 7105.65c129.58,169.3 487.83,263.11 672.3,-258.51l-77.84 88.43c-178.71,171.81 -395.49,174.13 -594.46,170.08z"/>
   <path class="fil2" d="M10667.25 6025.95c176.32,-48.48 271.3,-58.94 285.76,-240.56 8.9,-111.92 -37.14,-403.61 -74.19,-478.83 -6.73,458.14 -56.79,407.47 -211.57,719.39z"/>
   <path class="fil2" d="M12522.95 7517.41c47.03,170.79 29.49,156.96 126.76,303.22l202.02 -670.87c-51.49,43.76 -259.31,386.14 -275.81,439.25l-52.97 -71.6z"/>
   <path class="fil2" d="M6440.65 6013.55c-177.69,-75.96 -130.21,-34.53 -245.78,-263.24 -16.42,-32.5 -29.11,-59.41 -42.81,-95.55l-17.48 -53.71c-3.2,-8.78 -6.86,-19.57 -9.85,-27.61 -3.06,-8.24 -8.61,-21.13 -11.19,-27.88 -2.65,-6.94 -7.74,-19.1 -12.02,-28.47 -7.08,165.07 -53.73,169.44 -103.41,321.21 221.63,73.02 158.49,180.66 442.54,175.25z"/>
   <path class="fil2" d="M9317.37 4511.18c142.05,-103.81 221.53,-399.45 267.87,-594.59l14.5 -46.17 -14.5 46.17c-150.71,121.71 -211.96,380.72 -267.87,594.59z"/>
   <path class="fil2" d="M11844.06 7834.51c198.19,239.82 337.18,121.01 464.53,-114.06 -91.45,83.83 -266.25,171.1 -464.53,114.06z"/>
   <path class="fil2" d="M11372.44 5999.74c-156.6,-115.75 -171.74,-268.19 -316.08,-423.48 50.01,305.13 76.4,311.02 316.08,423.48z"/>
   <path class="fil2" d="M4248.43 6118.08c145.05,-90.8 214.31,-221.89 224.38,-438.33 -105.93,135.15 -134.51,335.94 -224.38,438.33z"/>
   <path class="fil3" d="M9075.76 5663.81c127.99,-110.78 27.71,-71.89 -5.04,-112.08l5.04 112.08z"/>
  </g>
 </g>
</svg>
