<?xml version="1.0" encoding="UTF-8"?>
<!DOCTYPE svg PUBLIC "-//W3C//DTD SVG 1.0//EN" "http://www.w3.org/TR/2001/REC-SVG-20010904/DTD/svg10.dtd">
<!-- Creator: CorelDRAW 2020 (64-Bit) -->
<svg xmlns="http://www.w3.org/2000/svg" xml:space="preserve" width="150mm" height="100mm" version="1.0" style="shape-rendering:geometricPrecision; text-rendering:geometricPrecision; image-rendering:optimizeQuality; fill-rule:evenodd; clip-rule:evenodd"
viewBox="0 0 15000 10000"
 xmlns:xlink="http://www.w3.org/1999/xlink"
 xmlns:xodm="http://www.corel.com/coreldraw/odm/2003">
 <defs>
  <style type="text/css">
   <![CDATA[
    .fil4 {fill:#5A6675}
    .fil1 {fill:#5D6A79}
    .fil3 {fill:#5D6A79}
    .fil2 {fill:#F1F1F2}
    .fil0 {fill:#F1F1F2}
   ]]>
  </style>
 </defs>
 <g id="Capa_x0020_1">
  <metadata id="CorelCorpID_0Corel-Layer"/>
  <g id="_2036064982352">
   <path class="fil0" d="M5206.63 4670.6c94.42,139.13 187.17,333.27 281.16,479.14 63.58,98.69 55.47,134.38 151.92,201.03l251.78 149.82 670.27 7.64c376.01,-221.1 623.73,-125.42 696.24,-630.43 65.08,-453.32 -88.11,-763.1 -156.31,-1177.09 -63.54,-133.92 -352.04,-331.5 -535.14,-403.81 -837.62,-330.78 -1314.96,602.65 -1359.92,1373.7z"/>
   <path class="fil0" d="M7906.49 3757.62c-110.86,208.77 -209.55,832.68 -171.02,1074.8 119.32,749.75 1243.06,820.6 1630.65,490.14 154.57,-131.78 392.28,-498.78 433.9,-812.59 -17.09,-254.22 -114.21,-495.59 -219.68,-700.09 -501.85,-972.99 -1475.86,-461.37 -1673.85,-52.26z"/>
   <path class="fil0" d="M4550.77 6060.16c165.12,67.57 42.15,17.45 164.33,146.42 39.52,41.72 95.83,84.18 157.95,124.09 161.26,103.6 290.95,85.4 484.54,124.19 125.37,-139.44 227.36,-444.61 286.8,-654.18 -505.32,-0.66 -586.07,-449.18 -555.66,-916.29l33.94 -465.03c-500.62,-46.41 -827.03,-7.82 -770.38,554.32 39.32,390.29 143.78,734.77 198.48,1086.48z"/>
   <path class="fil0" d="M9914.53 4913.01c-18.58,244.8 56.71,411.63 -90.71,618.27 -99.9,140.03 -213.73,258.15 -461.71,263.1l246.46 639.17c192.72,0.23 382.65,-29.55 532.84,-124.3l325.75 -314.89c78.42,-288.95 174.73,-789.93 187.75,-1092.65 22.35,-519.92 -309.68,-488.88 -743.81,-484.03l3.43 495.33z"/>
   <path class="fil0" d="M3442.75 5704.31c236.47,25.61 376.31,-90.62 512.03,-184.7 107.32,-74.38 254.14,-232.7 297.44,-397.3 7.26,-206.15 -11.39,-325.85 -66.5,-502.15 -171.74,-98.04 -194.19,-374.22 -656.07,-320.05 -77.88,133.98 -105.12,113.24 -146.14,299.16 -73.26,332.04 -30.2,791.97 59.24,1105.04z"/>
   <path class="fil0" d="M10722.67 5218.91c314.62,90.88 304.67,504.14 832.8,471.74 86.05,-200.69 100,-487.83 95.9,-718.08 -5.94,-333.12 -12.46,-413.53 -184.28,-670.06 -285.69,-40.48 -395.23,37.64 -563.2,228.36 -171.13,194.31 -151.48,361.17 -181.22,688.04z"/>
   <path class="fil1" d="M13674.26 5676.42c13.13,86.28 -235.58,-47.68 -322.72,-204.99 -44.26,-79.92 -141.1,-399.31 -167.52,-496.8l186.41 12.9c50.84,60.98 109.16,132.06 150.57,208.18 61.39,112.84 41.48,167.68 116.26,239.93 73.09,-45.91 60.63,7.82 40.12,-139.95 -21.13,-152.3 -357.89,-480.69 -81.32,-431.38 55.16,9.83 58.39,24.74 87.92,61.13 39.36,48.49 71.42,165.62 83.45,229.41 35.26,187.03 49.88,416.33 -93.17,521.57zm-538.28 -839.41c-208.14,-110.22 -113.68,-138.3 -30.13,-392.2 79.54,-241.74 93.44,-220.13 272.68,-340.13 112.59,-58.33 183.03,-112.64 337.66,-99 19.41,213.28 -41.2,427.85 -130.32,598.46 -105.67,202.29 -176.38,320.43 -449.89,232.87zm-281.03 -1043.28c-36.61,54.96 -17.36,22.54 -46.86,63.3 -3.07,4.24 -18.18,57.77 -25.57,36.73 -1.64,-4.65 -8.15,11.32 -11.71,17.3 4.91,143.69 40.82,57.81 -37.79,134.18 91.52,-68.44 183.37,-160.82 340.82,-192.73 60.19,208.69 -60.88,676.53 -186.7,814.66l-341.82 0.82 -29.18 100.39 106.33 -6.8 228.34 29.28c301.2,109.96 486.46,942.75 418.39,1120.68 -25.21,65.89 -20.39,35.78 -47.27,67.88 -109.17,13.28 -247.67,-95.18 -327.96,-157.15 -101.5,-78.35 -237.78,-131.93 -243.67,-256.9l-148.7 -92.96c-113.62,-136.61 40.4,-115.93 -61.02,-549.06 -28.15,-120.19 22.44,-140.65 -26.55,-88.47 -54.68,295.69 1.47,618.81 -82.07,984.37 142.78,-70.51 86.56,104.28 106.67,-146.37 -40.91,33.62 -48.49,-40.8 -17.66,96.33 76.19,-79.11 24.62,-59.23 85.26,-150.52 205.92,206.84 919.52,904.84 885.9,86.74 420.29,240.41 545.25,-14.35 497.38,-485.17 -38.22,-376.04 -180.21,-409.44 -248.95,-494.44 107,-188.14 236.26,-475.16 167.54,-740.84 -233.93,-214.15 -367.64,-17.39 -591.55,90.45l-54.8 -316c-115.61,-13.59 -208.05,18.77 -306.8,34.3z"/>
   <path class="fil0" d="M8010.36 6423.87c357.22,91.63 249.13,87.95 625.31,29.63 105.11,-152.79 222.72,-375.68 241.23,-608.24 -84.6,-62.95 -339.53,-40.46 -563.5,-65.46 -271.73,-30.33 -433.95,-97.78 -547.14,-17.23 60.91,237.52 122.37,490.52 244.1,661.3z"/>
   <path class="fil0" d="M6126.86 5841.47c30.65,277.92 138.61,485.65 261.97,643.55 230.07,9.4 362.05,56.65 579.01,-60.45 134.65,-112.32 226.29,-446.51 256.87,-665.38 -6.63,-4.45 -17.16,-8.86 -21.71,-10.1 -104.99,-28.51 -507.31,56.9 -796.6,68.85l-279.54 23.53z"/>
   <path class="fil0" d="M9800.02 4509.97c-41.62,313.81 -279.33,680.81 -433.9,812.59 -387.59,330.46 -1511.33,259.61 -1630.65,-490.14 -38.53,-242.12 60.16,-866.03 171.02,-1074.8 -258.64,94.34 -335.19,682.57 -340.88,1003.62 -9.2,519.23 90.52,763.71 603,759.4 276.11,-2.32 1084.4,46.89 1273.35,-49.21 272.49,-138.58 483.33,-555.08 358.06,-961.46z"/>
   <path class="fil0" d="M10004.07 4076.52c313.39,35.5 718.74,81.16 853.02,332.35 109.75,-57.2 112.65,-99.63 222.35,-160.31 142.1,-78.59 236.21,-48.71 328.36,-87.19 -62.18,-256.35 -317.58,-487.6 -662.76,-437.37 -292.04,42.49 -561.32,224.61 -740.97,352.52z"/>
   <path class="fil0" d="M2782.15 5898.31c49.78,-203.52 159,-353.07 216.03,-592.13 60.54,-253.76 88.17,-491.92 47.54,-756.59 -398.82,-0.99 -440.01,149.02 -446.08,527.47 -3.83,238.97 -46.55,708.51 182.51,821.25z"/>
   <path class="fil0" d="M12225 5899.94l106.96 -80.69c83.54,-365.56 27.39,-688.68 82.07,-984.37 -145.54,-179.35 -55.2,-282.54 -452.46,-283.54 -45.33,255.73 -13.78,499.41 47.67,748.15 53.17,215.22 199.1,404.33 215.76,600.45z"/>
   <path class="fil0" d="M6561.76 5508.23c192.41,-4.46 507.33,28.93 664.21,-67.05 144.4,-88.35 225.41,-290.91 235.21,-537.68 17.95,-452.21 -51.16,-1009.41 -359.49,-1202.79 68.2,413.99 221.39,723.77 156.31,1177.09 -72.51,505.01 -320.23,409.33 -696.24,630.43z"/>
   <path class="fil0" d="M11835.61 3875.16c-56.15,265.41 -61.01,329.36 29.94,579.21 170.2,-9.34 432.3,65.6 472.35,59.78 88.78,-211.51 102.86,-647.14 -84.97,-772.28 -121.95,-69.9 -326.77,46.82 -417.32,133.29z"/>
   <path class="fil0" d="M4149.82 4409.06c81.83,-151.59 132.08,-170.06 316.04,-206.7l-62.37 -37.51c-7.25,-5.93 -22.04,-18.82 -29.25,-24.85 -7.41,-6.2 -17.01,-20.53 -27.95,-27.81 175.79,-162.24 126.3,-199.52 123.89,-234.37 180.5,39.74 30.2,34.32 180.47,-8.06l-75.42 -73.92c-201.51,-1.52 -403.05,-127.61 -627.48,-47.62 -163.53,58.29 -319.44,253.36 -353.22,433.29 324.82,-13.8 385.06,128.62 555.29,227.55z"/>
   <path class="fil0" d="M3147.85 4455.33c51.54,-297.01 92.64,-245.96 16.09,-582.51 -110.99,-67.49 -269.36,-214.27 -418.36,-132.89 -210.3,147.69 -125.43,553.97 -95.55,794.01 221.16,-86.87 236.55,-99.07 497.82,-78.61z"/>
   <path class="fil0" d="M2103.63 4970.81c80.96,-62.11 72.19,-98.84 195.62,-90.4 8.92,200.5 -336.51,233.5 -395.7,819.66l-77.44 7.68 -42.26 270.97c154.89,15.06 560.79,-329.61 599.88,-424.89 -1.37,-144.67 29.12,-254.33 26.97,-404.7 -1.96,-136.96 -26.78,-254.24 -25.5,-390.42l-227.35 14.95 -54.22 197.15z"/>
   <path class="fil2" d="M12650.3 5565.37c5.89,124.97 142.17,178.55 243.67,256.9 80.29,61.97 218.79,170.43 327.96,157.15l-40.4 -273.63c-136.44,-61.03 -160.95,-309.49 -227.82,-435.9 -48.63,-91.94 -61.04,-114.18 -130.6,-187.22 -83.7,-87.89 -131.03,-73.2 -119.72,-199.8 129.22,-9.39 137.89,56.99 218.15,130.37l-70.73 -222.38 -228.34 -29.28c-8.12,364.8 -47.38,417.89 27.83,803.79z"/>
   <path class="fil2" d="M13378.53 4104.68c-71.93,265.69 -209.11,364.83 -242.55,732.33 273.51,87.56 344.22,-30.58 449.89,-232.87 89.12,-170.61 149.73,-385.18 130.32,-598.46 -154.63,-13.64 -225.07,40.67 -337.66,99z"/>
   <path class="fil0" d="M1864.18 4835.94c-8.28,-237.76 -145.53,-557.22 -290.75,-732.6 -55.86,-98.27 -147.7,-109.17 -255.79,-99.04 -94.86,161.32 18.76,445.06 98.12,597.85 106.52,205.13 174.78,312.18 448.42,233.79z"/>
   <path class="fil0" d="M2491.55 4665.12c-18.23,-214.72 -109.79,-311.94 -143.6,-516.65 -60.3,-104.06 -234.93,-263.86 -422.88,-296.86 -56.02,208.46 64.16,680.45 192.69,811.13l373.79 2.38z"/>
   <path class="fil2" d="M12733.02 4045.24l-80.83 103.56c-34.44,222.33 -144.59,264.29 -106.87,519.19l341.82 -0.82c125.82,-138.13 246.89,-605.97 186.7,-814.66 -157.45,31.91 -249.3,124.29 -340.82,192.73z"/>
   <path class="fil0" d="M2782.15 5898.31c81.05,-68.83 165.52,-143.29 230.28,-227.63 300.54,-391.42 234.36,-237.99 252.87,-925.37l-33.68 -179.31 -185.9 -16.41c40.63,264.67 13,502.83 -47.54,756.59 -57.03,239.06 -166.25,388.61 -216.03,592.13z"/>
   <path class="fil0" d="M9608.57 6433.55c75.45,99.71 103.31,143.28 183.55,233.33 103.98,116.69 143.22,139.62 319.37,100.16 174.87,-146.65 277.28,-462.7 355.67,-772.68l-325.75 314.89c-150.19,94.75 -340.12,124.53 -532.84,124.3z"/>
   <path class="fil0" d="M12225 5899.94c-16.66,-196.12 -162.59,-385.23 -215.76,-600.45 -61.45,-248.74 -93,-492.42 -47.67,-748.15l-192.92 20.39 7.51 815.12c38.65,86.07 133.4,182.77 194.57,265.13 70.73,95.24 150.18,181.78 254.27,247.96z"/>
   <path class="fil0" d="M5357.59 6454.86c-193.59,-38.79 -323.28,-20.59 -484.54,-124.19 -62.12,-39.91 -118.43,-82.37 -157.95,-124.09 -122.18,-128.97 0.79,-78.85 -164.33,-146.42 49.15,287.55 197.72,614.63 373.87,714.04 160.75,19.7 182.82,-4.49 286.46,-103.82 111.8,-107.16 82.55,-72.09 146.49,-215.52z"/>
   <path class="fil0" d="M6126.86 5841.47l279.54 -23.53c289.29,-11.95 691.61,-97.36 796.6,-68.85 4.55,1.24 15.08,5.65 21.71,10.1l46.5 -210.36c-432.29,64.58 -753.63,33.78 -1214.86,60.57l70.51 232.07z"/>
   <path class="fil0" d="M11555.47 5690.65c-528.13,32.4 -518.18,-380.86 -832.8,-471.74 -48.78,147.21 132.14,345.22 224.03,469.18 102.61,138.41 216.46,294.85 473.96,304.16 83.6,-106.86 100.08,-126.43 134.81,-301.6z"/>
   <path class="fil0" d="M10857.09 4408.87c-134.28,-251.19 -539.63,-296.85 -853.02,-332.35 -163.34,123.74 -147.82,18.63 -141.68,190.68 123.18,105.99 257.53,20.03 505.51,66.31 179.27,33.46 292.52,103.82 320.5,271.31 82.18,-60.7 12.15,15.59 100.75,-81.11 68.27,-74.5 33.61,-25.43 67.94,-114.84z"/>
   <path class="fil0" d="M4465.86 4202.36c-183.96,36.64 -234.21,55.11 -316.04,206.7 33.7,94.05 11.99,49.92 78.84,138.98 21.14,59.64 25.14,11.85 80.4,53.4 1.64,-9.32 5.55,-32.89 7.31,-27.44l100.96 -143.55c71.74,-59.24 114.16,-81.66 214.65,-101.39 156.91,-30.8 415.68,38.28 527.14,-61.86 6.52,-160.52 12.37,-78.67 -151.02,-180.33 -177.55,31.5 -392.76,32.06 -542.24,115.49z"/>
   <path class="fil0" d="M3442.75 5704.31c45.56,162.84 59.79,186.21 145.02,294.39l212.01 -58.61 171.09 -156.98c167.6,-199.8 387.43,-429.17 281.35,-660.8 -43.3,164.6 -190.12,322.92 -297.44,397.3 -135.72,94.08 -275.56,210.31 -512.03,184.7z"/>
   <path class="fil0" d="M7766.26 5762.57c113.19,-80.55 275.41,-13.1 547.14,17.23 223.97,25 478.9,2.51 563.5,65.46l54.12 -223.75c-442.49,1.52 -811.21,37.46 -1204.17,-74.89l39.41 215.95z"/>
   <path class="fil0" d="M5644.39 5800.68l58.68 -207.55c-243.31,-69.73 -279.79,-106.96 -408.56,-249.69 -147.78,-163.8 -124.08,-327.89 -205.78,-459.05 -30.41,467.11 50.34,915.63 555.66,916.29z"/>
   <path class="fil0" d="M1355.98 5432.97l-40.66 268.13c341.81,-36.19 402.84,-393.74 501.58,-727.02 -220.38,17.63 -239.13,-6.06 -389.08,348.84l-71.84 110.05z"/>
   <path class="fil2" d="M13674.26 5676.42l-37 -240.78c-74.78,-72.25 -54.87,-127.09 -116.26,-239.93 -41.41,-76.12 -99.73,-147.2 -150.57,-208.18l-186.41 -12.9c26.42,97.49 123.26,416.88 167.52,496.8 87.14,157.31 335.85,291.27 322.72,204.99z"/>
   <path class="fil0" d="M9362.11 5794.38c247.98,-4.95 361.81,-123.07 461.71,-263.1 147.42,-206.64 72.13,-373.47 90.71,-618.27 -44.46,186.63 -95.9,356.26 -196.47,478.3 -104.23,126.47 -259.05,146.49 -414.11,253.78l58.16 149.29z"/>
   <path class="fil0" d="M5891.49 5500.59l-251.78 -149.82c-96.45,-66.65 -88.34,-102.34 -151.92,-201.03 -93.99,-145.87 -186.74,-340.01 -281.16,-479.14 -8.11,284.07 32.83,474.99 192.77,638.47 5.11,5.22 12.7,12.37 17.84,17.57 141.61,143.42 206.19,182.52 474.25,173.95z"/>
   <path class="fil0" d="M11865.55 4454.37c-90.95,-249.85 -86.09,-313.8 -29.94,-579.21 -69.09,36.96 -101.94,71.21 -164.84,117.01 -346.62,252.39 -43.53,191.22 4.13,501.33l190.65 -39.13z"/>
   <path class="fil0" d="M3147.85 4455.33l174.2 34.61c51.85,-313.35 350.03,-251.5 10.05,-499.96 -67.87,-49.59 -91.22,-78.74 -168.16,-117.16 76.55,336.55 35.45,285.5 -16.09,582.51z"/>
   <path class="fil0" d="M1783.85 5978.72l42.26 -270.97c-85.06,-233.35 214.38,-593.45 277.52,-736.94l54.22 -197.15c-298.03,140.44 -459.53,858.05 -444.27,1045.47 12.04,147.91 50.37,140.69 70.27,159.59z"/>
   <path class="fil0" d="M12921.54 5013.24l179.04 318.4c52.21,117.68 110,265.7 80.95,374.15l40.4 273.63c26.88,-32.1 22.06,-1.99 47.27,-67.88 68.07,-177.93 -117.19,-1010.72 -418.39,-1120.68l70.73 222.38z"/>
   <path class="fil0" d="M4465.86 4202.36c149.48,-83.43 364.69,-83.99 542.24,-115.49l-357.45 -217.11c-150.27,42.38 0.03,47.8 -180.47,8.06 2.41,34.85 51.9,72.13 -123.89,234.37 10.94,7.28 20.54,21.61 27.95,27.81 7.21,6.03 22,18.92 29.25,24.85l62.37 37.51z"/>
   <path class="fil0" d="M1315.32 5701.1l40.66 -268.13c-17.65,-18.83 -62.27,-18.8 -24.88,-167.23 26.95,-106.97 347.58,-512.34 46.8,-394.96 -157.3,61.39 -250.45,622.57 -62.58,830.32z"/>
   <path class="fil0" d="M13637.26 5435.64l37 240.78c143.05,-105.24 128.43,-334.54 93.17,-521.57 -12.03,-63.79 -44.09,-180.92 -83.45,-229.41 -29.53,-36.39 -32.76,-51.3 -87.92,-61.13 -276.57,-49.31 60.19,279.08 81.32,431.38 20.51,147.77 32.97,94.04 -40.12,139.95z"/>
   <g>
    <g>
     <path class="fil3" d="M8876.9 5845.26c-18.51,232.56 -136.12,455.45 -241.23,608.24 -39.6,123.11 -138.79,202.1 -322.8,199.75 -183.54,-2.35 -236.27,-106.07 -302.51,-229.38 -121.73,-170.78 -183.19,-423.78 -244.1,-661.3l-39.41 -215.95c392.96,112.35 761.68,76.41 1204.17,74.89l-54.12 223.75zm-1652.19 -86.07c-30.58,218.87 -122.22,553.06 -256.87,665.38 -82.68,297.77 -298.15,224.68 -550.39,154.52l-28.62 -94.07c-123.36,-157.9 -231.32,-365.63 -261.97,-643.55l-70.51 -232.07c461.23,-26.79 782.57,4.01 1214.86,-60.57l-46.5 210.36zm4330.76 -68.54c-34.73,175.17 -51.21,194.74 -134.81,301.6 -257.5,-9.31 -371.35,-165.75 -473.96,-304.16 -91.89,-123.96 -272.81,-321.97 -224.03,-469.18 29.74,-326.87 10.09,-493.73 181.22,-688.04 167.97,-190.72 277.51,-268.84 563.2,-228.36 171.82,256.53 178.34,336.94 184.28,670.06 4.1,230.25 -9.85,517.39 -95.9,718.08zm-3648.98 -1933.03c197.99,-409.11 1172,-920.73 1673.85,52.26 105.47,204.5 202.59,445.87 219.68,700.09 125.27,406.38 -85.57,822.88 -358.06,961.46 -188.95,96.1 -997.24,46.89 -1273.35,49.21 -512.48,4.31 -612.2,-240.17 -603,-759.4 5.69,-321.05 82.24,-909.28 340.88,-1003.62zm-2699.86 912.98c44.96,-771.05 522.3,-1704.48 1359.92,-1373.7 183.1,72.31 471.6,269.89 535.14,403.81 308.33,193.38 377.44,750.58 359.49,1202.79 -9.8,246.77 -90.81,449.33 -235.21,537.68 -156.88,95.98 -471.8,62.59 -664.21,67.05l-670.27 -7.64c-268.06,8.57 -332.64,-30.53 -474.25,-173.95 -5.14,-5.2 -12.73,-12.35 -17.84,-17.57 -159.94,-163.48 -200.88,-354.4 -192.77,-638.47zm5260.53 1323.76c-78.39,309.98 -180.8,626.03 -355.67,772.68 -176.15,39.46 -215.39,16.53 -319.37,-100.16 -80.24,-90.05 -108.1,-133.62 -183.55,-233.33l-246.46 -639.17 -58.16 -149.29c155.06,-107.29 309.88,-127.31 414.11,-253.78 100.57,-122.04 152.01,-291.67 196.47,-478.3l-3.43 -495.33c434.13,-4.85 766.16,-35.89 743.81,484.03 -13.02,302.72 -109.33,803.7 -187.75,1092.65zm-5378.43 -1109.97c81.7,131.16 58,295.25 205.78,459.05 128.77,142.73 165.25,179.96 408.56,249.69l-58.68 207.55c-59.44,209.57 -161.43,514.74 -286.8,654.18 -63.94,143.43 -34.69,108.36 -146.49,215.52 -103.64,99.33 -125.71,123.52 -286.46,103.82 -176.15,-99.41 -324.72,-426.49 -373.87,-714.04 -54.7,-351.71 -159.16,-696.19 -198.48,-1086.48 -56.65,-562.14 269.76,-600.73 770.38,-554.32l-33.94 465.03zm6746.88 -1009.23c90.55,-86.47 295.37,-203.19 417.32,-133.29 187.83,125.14 173.75,560.77 84.97,772.28 -40.05,5.82 -302.15,-69.12 -472.35,-59.78l-190.65 39.13c-47.66,-310.11 -350.75,-248.94 -4.13,-501.33 62.9,-45.8 95.75,-80.05 164.84,-117.01zm-978.52 533.71c-34.33,89.41 0.33,40.34 -67.94,114.84 -88.6,96.7 -18.57,20.41 -100.75,81.11 -27.98,-167.49 -141.23,-237.85 -320.5,-271.31 -247.98,-46.28 -382.33,39.68 -505.51,-66.31 -6.14,-172.05 -21.66,-66.94 141.68,-190.68 179.65,-127.91 448.93,-310.03 740.97,-352.52 345.18,-50.23 600.58,181.02 662.76,437.37 -92.15,38.48 -186.26,8.6 -328.36,87.19 -109.7,60.68 -112.6,103.11 -222.35,160.31zm-6275.8 -686.89c26.92,87.89 45.05,36.93 -6.06,73.86l75.42 73.92 357.45 217.11c163.39,101.66 157.54,19.81 151.02,180.33 -111.46,100.14 -370.23,31.06 -527.14,61.86 -100.49,19.73 -142.91,42.15 -214.65,101.39l-100.96 143.55c-1.76,-5.45 -5.67,18.12 -7.31,27.44 -55.26,-41.55 -59.26,6.24 -80.4,-53.4 -28.45,65.97 -24.38,61 -42.94,72.12 55.11,176.3 73.76,296 66.5,502.15 106.08,231.63 -113.75,461 -281.35,660.8l-171.09 156.98c-16.39,146.55 27.94,44.38 -30.55,123.85 158.26,-68.3 160.65,-138.91 276.53,-188.8 69.39,-118.32 173.13,-238.12 267.24,-360.7 159.25,436.83 195.86,1413.69 715.78,1371.4 335.36,-27.28 569.02,-634.84 675.2,-924.23 71.39,-194.57 63.34,-352.09 173.16,-352.42 93.92,37.06 59.22,-16.15 104.9,135.43 80.32,266.5 230.79,1200.99 840.11,984.89 219.28,-77.77 333.23,-350.56 429.35,-632.28 103.68,-303.88 87.76,-576.68 248.42,-826.79 191.49,141.53 171.85,1247.51 651.67,1450.9 303.99,128.87 541.55,-104.82 651.94,-305.12 123.36,-223.85 170.06,-634.63 262.76,-789.89 215.43,2.91 138.71,157.97 360.37,664.2 97.22,222.03 278.24,526.93 483.43,582.94 579.13,158.08 615.05,-945.78 779.57,-1356.16 93.33,148.78 341.25,467.33 522.21,542.29 397.63,164.72 389.09,-271.7 521.38,-526.24 106.45,95.26 131.16,155.03 228.32,269.16 85.7,100.65 140,212.21 349.24,188.41 82.72,-70.44 104.63,-84.96 110.16,-221.72 -30.83,-137.13 -23.25,-62.71 17.66,-96.33 -20.11,250.65 36.11,75.86 -106.67,146.37l-106.96 80.69c-104.09,-66.18 -183.54,-152.72 -254.27,-247.96 -61.17,-82.36 -155.92,-179.06 -194.57,-265.13l-7.51 -815.12 192.92 -20.39c397.26,1 306.92,104.19 452.46,283.54 48.99,-52.18 -1.6,-31.72 26.55,88.47 101.42,433.13 -52.6,412.45 61.02,549.06 0.84,-164.53 -36.53,-619.11 14.54,-704.03l29.18 -100.39c-194.68,13.26 -112.11,-66.86 -76.06,-228.16 47.65,-213.2 13.39,-207.07 182.93,-291.03l80.83 -103.56c78.61,-76.37 42.7,9.51 37.79,-134.18 -198.99,77.33 -104.7,127.74 -261.45,189.22 -115.94,-328.57 -66.91,-889.97 -1023.05,-96.9 -239.46,-225.31 -300.4,-478.87 -838.28,-366.74 -369.09,76.94 -577.34,308.12 -819.78,418.64 -97.92,-106.68 -603.97,-1631.25 -1891.72,-516.5 -89,77.05 -180.41,164.18 -252.14,278.5 -63.75,101.58 -109.09,260.76 -183.83,346.43 -113.38,-491.59 -662.3,-956.54 -1096.95,-1030.03 -375.7,-63.53 -599.83,85.05 -790.72,269.44 -157.48,152.11 -346.84,387.66 -377.85,679.17 -238.48,-95.4 -370.11,-276.83 -653.75,-360.31z"/>
     <path class="fil3" d="M1355.98 5432.97l71.84 -110.05c149.95,-354.9 168.7,-331.21 389.08,-348.84 -98.74,333.28 -159.77,690.83 -501.58,727.02 -187.87,-207.75 -94.72,-768.93 62.58,-830.32 300.78,-117.38 -19.85,287.99 -46.8,394.96 -37.39,148.43 7.23,148.4 24.88,167.23zm1027.75 120.86c-39.09,95.28 -444.99,439.95 -599.88,424.89 -19.9,-18.9 -58.23,-11.68 -70.27,-159.59 -15.26,-187.42 146.24,-905.03 444.27,-1045.47l227.35 -14.95 122.23 20.68c9.11,119.98 -11.01,270.79 -9.24,404.99 4.82,366.41 24.62,306.49 -114.46,369.45zm398.42 344.48c-229.06,-112.74 -186.34,-582.28 -182.51,-821.25 6.07,-378.45 47.26,-528.46 446.08,-527.47l185.9 16.41 33.68 179.31c-18.51,687.38 47.67,533.95 -252.87,925.37 -64.76,84.34 -149.23,158.8 -230.28,227.63zm-1208.72 -1794.97c144.61,52.66 104.93,15.62 209.66,130.3 100.39,109.93 59.4,50.04 111.76,210.71 85.46,262.28 176.29,266.23 -30.67,391.59 -273.64,78.39 -341.9,-28.66 -448.42,-233.79 -79.36,-152.79 -192.98,-436.53 -98.12,-597.85 108.09,-10.13 199.93,0.77 255.79,99.04zm1574.42 351.99c-261.27,-20.46 -276.66,-8.26 -497.82,78.61 -29.88,-240.04 -114.75,-646.32 95.55,-794.01 149,-81.38 307.37,65.4 418.36,132.89 76.94,38.42 100.29,67.57 168.16,117.16 339.98,248.46 41.8,186.61 -10.05,499.96l-174.2 -34.61zm-799.9 -306.86c119.37,54.44 134.75,47.95 165.76,198.39 20.35,98.74 54.42,218.42 65.28,294.55l-87.44 23.71 -373.79 -2.38c-128.53,-130.68 -248.71,-602.67 -192.69,-811.13 187.95,33 362.58,192.8 422.88,296.86zm1421.28 1915.47c58.49,-79.47 14.16,22.7 30.55,-123.85l-212.01 58.61c-85.23,-108.18 -99.46,-131.55 -145.02,-294.39 -89.44,-313.07 -132.5,-773 -59.24,-1105.04 41.02,-185.92 68.26,-165.18 146.14,-299.16 461.88,-54.17 484.33,222.01 656.07,320.05 18.56,-11.12 14.49,-6.15 42.94,-72.12 -66.85,-89.06 -45.14,-44.93 -78.84,-138.98 -170.23,-98.93 -230.47,-241.35 -555.29,-227.55 33.78,-179.93 189.69,-375 353.22,-433.29 224.43,-79.99 425.97,46.1 627.48,47.62 51.11,-36.93 32.98,14.03 6.06,-73.86l9.42 -40.39c-591.9,-36.83 -565.56,-266.31 -1077.18,315.69l-286.08 -221.27c-92.12,-67.99 -173.42,-123.98 -304.08,-158.32 -340.34,-89.44 -399.35,189.42 -419.59,484.78 -255.48,-132.78 -273.26,-391.65 -678.5,-345.38l-26.96 318.32c-234.47,-113.78 -356.61,-284.8 -595.79,-110.68 -98.66,270.01 49.43,557.09 157.52,761.09l-37.09 32.88c-6.47,5.85 -29.91,25.93 -37.13,32.98 -47.93,46.76 -15.24,6.69 -51.24,54.42 -141.94,188.2 -337.32,1251.67 373.21,857.25 -27.59,820.77 671.7,115.73 881.09,-87.86 103.9,143.4 52.72,264.06 213.25,381.55 260.68,21.39 416.39,-302.57 564.45,-466.12 125.5,245.54 109.3,689.35 502.64,533.02z"/>
    </g>
    <path class="fil4" d="M13181.53 5705.79c29.05,-108.45 -28.74,-256.47 -80.95,-374.15l-179.04 -318.4c-80.26,-73.38 -88.93,-139.76 -218.15,-130.37 -11.31,126.6 36.02,111.91 119.72,199.8 69.56,73.04 81.97,95.28 130.6,187.22 66.87,126.41 91.38,374.87 227.82,435.9z"/>
   </g>
   <path class="fil0" d="M2103.63 4970.81c-63.14,143.49 -362.58,503.59 -277.52,736.94l77.44 -7.68c59.19,-586.16 404.62,-619.16 395.7,-819.66 -123.43,-8.44 -114.66,28.29 -195.62,90.4z"/>
   <path class="fil0" d="M12501.6 5472.41l148.7 92.96c-75.21,-385.9 -35.95,-438.99 -27.83,-803.79l-106.33 6.8c-51.07,84.92 -13.7,539.5 -14.54,704.03z"/>
   <path class="fil0" d="M13135.98 4837.01c33.44,-367.5 170.62,-466.64 242.55,-732.33 -179.24,120 -193.14,98.39 -272.68,340.13 -83.55,253.9 -178.01,281.98 30.13,392.2z"/>
   <path class="fil0" d="M1864.18 4835.94c206.96,-125.36 116.13,-129.31 30.67,-391.59 -52.36,-160.67 -11.37,-100.78 -111.76,-210.71 -104.73,-114.68 -65.05,-77.64 -209.66,-130.3 145.22,175.38 282.47,494.84 290.75,732.6z"/>
   <path class="fil0" d="M8635.67 6453.5c-376.18,58.32 -268.09,62 -625.31,-29.63 66.24,123.31 118.97,227.03 302.51,229.38 184.01,2.35 283.2,-76.64 322.8,-199.75z"/>
   <path class="fil0" d="M2383.73 5553.83c139.08,-62.96 119.28,-3.04 114.46,-369.45 -1.77,-134.2 18.35,-285.01 9.24,-404.99l-122.23 -20.68c-1.28,136.18 23.54,253.46 25.5,390.42 2.15,150.37 -28.34,260.03 -26.97,404.7z"/>
   <path class="fil0" d="M6388.83 6485.02l28.62 94.07c252.24,70.16 467.71,143.25 550.39,-154.52 -216.96,117.1 -348.94,69.85 -579.01,60.45z"/>
   <path class="fil0" d="M12545.32 4667.99c-37.72,-254.9 72.43,-296.86 106.87,-519.19 -169.54,83.96 -135.28,77.83 -182.93,291.03 -36.05,161.3 -118.62,241.42 76.06,228.16z"/>
   <path class="fil0" d="M2491.55 4665.12l87.44 -23.71c-10.86,-76.13 -44.93,-195.81 -65.28,-294.55 -31.01,-150.44 -46.39,-143.95 -165.76,-198.39 33.81,204.71 125.37,301.93 143.6,516.65z"/>
  </g>
 </g>
</svg>
