<?xml version="1.0" encoding="UTF-8"?>
<!DOCTYPE svg PUBLIC "-//W3C//DTD SVG 1.0//EN" "http://www.w3.org/TR/2001/REC-SVG-20010904/DTD/svg10.dtd">
<!-- Creator: CorelDRAW 2020 (64-Bit) -->
<svg xmlns="http://www.w3.org/2000/svg" xml:space="preserve" width="150mm" height="100mm" version="1.0" style="shape-rendering:geometricPrecision; text-rendering:geometricPrecision; image-rendering:optimizeQuality; fill-rule:evenodd; clip-rule:evenodd"
viewBox="0 0 15000 10000"
 xmlns:xlink="http://www.w3.org/1999/xlink"
 xmlns:xodm="http://www.corel.com/coreldraw/odm/2003">
 <defs>
  <style type="text/css">
   <![CDATA[
    .fil1 {fill:#5D6A79}
    .fil0 {fill:#F1F1F2}
   ]]>
  </style>
 </defs>
 <g id="Capa_x0020_1">
  <metadata id="CorelCorpID_0Corel-Layer"/>
  <g id="_2072084980256">
   <path className="fil0" d="M7005.22 4624.1c-50.54,135.95 -146.5,183.99 -348.79,139.21 -103.33,-22.87 -248.77,-68.36 -319.91,-120.29 305.62,-62.14 476.96,89.73 668.7,-18.92zm-853.14 1368.96c61.08,52.52 80.61,55.23 131.56,94.91 5.92,4.61 14.02,10.9 19.75,15.6 536.34,439.82 669.67,-24.23 966.28,-152.69 110.97,-465.34 245.48,-962.52 134.96,-1447.79 -200.66,-69 -495.56,-37.05 -752.46,-37.28 -136.38,-0.13 -287.22,-6.1 -421.81,-0.22 -172.44,7.53 -202.32,17.33 -253.94,153.87 -145.96,386.02 37.82,1028.84 175.66,1373.6z"/>
   <path className="fil0" d="M8685.7 4645.66c-287.71,75.82 -539.07,240.98 -684.86,-37.09 258.52,102.89 355.9,-56.26 684.86,37.09zm-949.81 1279.12c213.14,83.02 249.07,336.88 576.54,339.68 269.62,2.3 450.77,-229.66 566.46,-329.22 104.57,-316.51 309.81,-1012.44 131.16,-1340.14 -110.23,-202.19 -448.69,-129.06 -664.54,-128.85 -268.26,0.26 -533.96,-30.32 -748.6,40.32 -91.06,447.78 -4.1,992.51 138.98,1418.21z"/>
   <path className="fil0" d="M5307.9 5179.73c158.19,51.57 216.47,12.04 304.46,-77.82 322.15,-329 3.21,-629.11 438.89,-793.62 425.13,-160.51 1112.03,105.14 1204.22,-467.58 -114.79,-535.29 -1091.69,-949.45 -1541.51,-542.12 -383.7,347.45 -585.85,1234.63 -406.06,1881.14z"/>
   <path className="fil0" d="M7749.51 3850.91c157.8,530.09 723.4,213.94 1233.45,417.78 376.29,150.39 117.21,564.21 398.74,837.6 80.44,78.12 185.41,101.18 325.98,57.6 118.04,-1051.31 -117.82,-2389.25 -1376.96,-1929.26 -83.13,30.37 -115.03,47.01 -187.78,94.79 -28.39,18.65 -48.63,32.52 -81,60.95 -113.82,100 79.83,-76.26 -35.56,34.7 -5.13,4.93 -12.24,12.61 -17.32,17.57 -100.61,98.29 -231.77,242.71 -259.55,408.27z"/>
   <path className="fil0" d="M9865.16 4742.48c8.31,5.78 20.67,4.37 25,17.23 4.25,12.63 18.94,12.96 24.82,16.56l48.57 30.01c293.26,163.05 668.45,140.87 977.02,49.13 194.48,-57.83 285.57,-149.59 359.07,-274.9 140.29,-239.18 50.93,-284.59 99.51,-508.42 25.43,-261.02 -80.98,-480.53 -336.64,-487.19 -160.59,-4.18 -482.49,141.99 -625.35,203.61 -457.5,197.33 -708.41,341.7 -572,953.97z"/>
   <path className="fil0" d="M3578.97 4054.16c11.41,442.28 81.67,682.55 492.97,786.68 364,92.15 756.18,80.27 1062.95,-134.12 129.18,-581.78 -133.61,-731.67 -573.65,-919.02 -414.96,-176.68 -969.24,-420.24 -982.27,266.46z"/>
   <path className="fil0" d="M9290.84 5821.11c57.67,332.94 149.97,501.35 274,750.47 402.22,-2.82 384.56,-45.36 572.63,-225.2 139.66,-133.55 69.87,-28.29 180.74,-207.23 52.9,-85.38 124.73,-199.79 173.21,-267.69l52.85 -646.82 -499.41 -38.35c-64.85,171.11 -173.83,337.67 -309.78,406.97 -84.94,43.3 -185.99,78.14 -241.89,109.55 -105.55,59.31 -95.48,87.1 -202.35,118.3z"/>
   <path className="fil0" d="M4517.35 5981.08c129.78,89.27 237.66,300.97 343.98,399.87 137.21,127.63 299.61,202.39 556.06,195.55 63.96,-47.07 -22.68,47.88 40.83,-45.61l125.44 -257.6c58.61,-143.24 101.18,-287.68 131.24,-441.32 -93.95,-28.45 -154.07,-84.34 -243.21,-131.72 -83.91,-44.61 -162.41,-63.77 -247.55,-104.62 -268.44,-128.83 -128.19,-407.95 -349.8,-382.56l-408.34 16.78 51.35 751.23z"/>
   <path className="fil0" d="M11891.7 3781.65c-105.38,242.08 -143.25,724.03 -172.65,1004.62 158.47,84.21 369.99,136.59 560.46,107.93 88.59,-231 112.32,-355.15 130.25,-606.23 19.16,-268.32 78.12,-574.11 -61.18,-676.56 -131.06,-97.95 -384.88,87.05 -456.88,170.24z"/>
   <path className="fil0" d="M2666.73 4801.36l40.2 35.64c59.34,145.03 414.15,22.28 524.47,-30 23.3,-422.6 -121.32,-711.42 -123.68,-1048.68 -128.74,-62.38 -542.02,-412.93 -543,88.14 -0.21,108.96 9.7,233.99 15.27,344.08 10.66,211.06 41.8,397.96 86.74,610.82z"/>
   <path className="fil0" d="M9707.68 5163.89c-140.57,43.58 -245.54,20.52 -325.98,-57.6 -281.53,-273.39 -22.45,-687.21 -398.74,-837.6 -510.05,-203.84 -1075.65,112.31 -1233.45,-417.78 -94.05,114.39 -169.08,373.34 -166.61,548.61 161.95,-61.87 1166.82,-81.75 1349.76,-10.5 344.5,134.18 219.33,732.17 199.42,1067.14 258.21,-8.34 493.55,-32.53 575.6,-292.27z"/>
   <path className="fil0" d="M5134.89 4706.72c-306.77,214.39 -698.95,226.27 -1062.95,134.12 -411.3,-104.13 -481.56,-344.4 -492.97,-786.68 -57.36,172.99 -56.48,503.09 -24.07,706.08 66.92,419.17 864.48,385.57 1193.15,360.86 308.65,-23.21 363.71,-107.62 386.84,-414.38z"/>
   <path className="fil0" d="M5307.9 5179.73l25.99 137.02c187.44,68.89 260.76,135.33 530.45,135.69 -1.43,-208.82 -162.73,-909.11 202.42,-1061.99 176.43,-73.87 1155.44,-43.51 1356.38,3.99 -12.99,-183.86 -75.84,-427.47 -167.67,-553.73 -92.19,572.72 -779.09,307.07 -1204.22,467.58 -435.68,164.51 -116.74,464.62 -438.89,793.62 -87.99,89.86 -146.27,129.39 -304.46,77.82z"/>
   <path className="fil0" d="M9865.16 4742.48c35.95,287.69 83.91,355.22 384.5,378.25 209.68,16.06 543.29,13.63 745.42,-24.93 236.08,-45.04 397.85,-126.15 439.38,-307.16 41.19,-179.52 56.7,-591.53 -35.31,-716.55 -48.58,223.83 40.78,269.24 -99.51,508.42 -73.5,125.31 -164.59,217.07 -359.07,274.9 -308.57,91.74 -683.76,113.92 -977.02,-49.13l-48.57 -30.01c-5.88,-3.6 -20.57,-3.93 -24.82,-16.56 -4.33,-12.86 -16.69,-11.45 -25,-17.23z"/>
   <path className="fil0" d="M8878.89 5935.24c-115.69,99.56 -296.84,331.52 -566.46,329.22 -327.47,-2.8 -363.4,-256.66 -576.54,-339.68 74.06,326.14 247.37,703.35 503.78,804.44 239.33,-14.08 307.9,-151.09 414.14,-315.58 91.39,-141.51 159.03,-303.28 225.08,-478.4z"/>
   <path className="fil0" d="M6152.08 5993.06c88.49,316.33 312.18,714.28 605.93,735.23 275.16,-98.45 397.58,-456.97 511.66,-777.41 -296.61,128.46 -429.94,592.51 -966.28,152.69 -5.73,-4.7 -13.83,-10.99 -19.75,-15.6 -50.95,-39.68 -70.48,-42.39 -131.56,-94.91z"/>
   <path className="fil0" d="M2321.98 4941.48l-92.62 38.21c-12.15,139.16 -18.16,68.1 -123.74,178.71 -78.8,82.55 -55.08,86.43 -103.18,164.59 -97.45,-28.43 -48.71,-3.1 -72.39,-61.69 -107.35,107.14 -105.46,206.1 -182.14,325.04l6.57 170.32c373.12,14.67 487.15,-309.22 681.01,-449.09 9.95,-158.92 40.9,-208.98 32.16,-403.67 -147.86,17.65 -36.07,-13.39 -145.67,37.58z"/>
   <path className="fil0" d="M13166.14 4591.33c171.77,558.69 685.86,-233.03 586.73,-792.47l-121.64 -22.36c-75.43,118.52 -361.4,706.3 -465.09,814.83z"/>
   <path className="fil0" d="M9564.84 6571.58c62.43,130.33 117.97,222.73 266.19,275.61 165.08,58.9 306.79,-24.06 379.8,-110.25 167.04,-197.18 255.98,-553.91 280.59,-865.48 -48.48,67.9 -120.31,182.31 -173.21,267.69 -110.87,178.94 -41.08,73.68 -180.74,207.23 -188.07,179.84 -170.41,222.38 -572.63,225.2z"/>
   <path className="fil0" d="M1800.35 4679.03c-91.41,-367.01 -323.98,-625.54 -448.85,-899.65l-106.5 20.2c-49.66,273.7 -22.6,450.27 115.07,685.29 96.78,165.22 259.63,442.37 440.28,194.16z"/>
   <path className="fil0" d="M12913.53 3863.21c-58.37,28.36 -19.53,-9.99 -38.45,51.22 -69.54,242.26 -251.69,612.73 -225.86,847.48 -31.82,76.89 6.72,46.64 119.01,93.16 57.58,-146.34 66.55,-87.02 147.96,-209.41 133.83,-201.21 250.72,-625.54 212.67,-856.24 -109.18,-2.3 -124.61,22.61 -215.33,73.79z"/>
   <path className="fil0" d="M2948.73 4999.81c-107.93,115.97 -423.38,320.41 -348.57,670.28 20.28,71.09 -18.36,49.78 22.53,80.5 334.72,-53.88 541.12,-353.36 567.1,-721.23 -3.98,-138.2 20.35,-27.54 -65.22,-67.3l-175.84 37.75z"/>
   <path className="fil0" d="M3403.85 5332.36c15.7,245.69 71.93,714.31 396.35,536.24 237.58,-130.4 325.42,-383.55 473.54,-618.48l-81.55 -31.53c-46.59,85.7 -229.14,190.06 -354.37,225.9 -91.26,26.12 -175.56,34.69 -271.87,9.07 -164.92,-43.86 -73.16,-15.21 -162.1,-121.2z"/>
   <path className="fil0" d="M5417.39 6576.5c-256.45,6.84 -418.85,-67.92 -556.06,-195.55 -106.32,-98.9 -214.2,-310.6 -343.98,-399.87 91.95,620.32 438.57,1181.84 814.19,746.91 6.96,-8.07 26.69,-31.42 32.91,-40.79 4.98,-7.51 10.38,-16.18 14.9,-23.97 4.83,-8.32 9.52,-18.9 13.65,-26.87l24.39 -59.86z"/>
   <path className="fil0" d="M12562.36 5307.47c129.47,94.42 147.96,179.23 261.42,273.44 115.47,95.89 227.08,162.2 413.19,187.1 -34.7,-158.8 -77.2,-370.88 -207.44,-450.33 -115.3,-46 -25.78,-38.19 -137.42,-159.31 -31.78,-34.48 -55.4,-41.6 -93.06,-82.85 -41.88,-45.87 -21.74,-6.46 -41.89,-75.98l-226.85 -25.78 32.05 333.71z"/>
   <path className="fil0" d="M10737.1 5245.89c9.07,4.31 21.55,2.9 25.65,15.82l70.07 49.31c235.63,176.49 527.67,299.4 747.69,24.28 4.82,-6.03 11.62,-17.71 18.89,-25.34l-23.17 -491.87c-78.76,25.72 -31.53,44.2 -128.81,156.85 -173.51,200.91 -450.3,223.12 -703.02,247.58l-7.3 23.37z"/>
   <path className="fil0" d="M11599.4 5309.96c-7.27,7.63 -14.07,19.31 -18.89,25.34 -220.02,275.12 -512.06,152.21 -747.69,-24.28l-70.07 -49.31c-4.1,-12.92 -16.58,-11.51 -25.65,-15.82 89.23,242.24 291.36,537.62 460.34,622.72 338.38,170.41 376.42,-301.76 401.96,-558.65z"/>
   <path className="fil0" d="M1959.39 4343.11c24.62,113.81 50.45,187.63 108.5,281.62 75.04,121.49 98.94,93.35 161.73,212.42l123.65 -47.25 -275.6 -903.83c-30.94,-57.31 38.42,-19.34 -79.9,-74.13 -85.75,-39.7 -34.64,-25.45 -129.53,-23.06 -25.39,160.15 11.21,418.18 91.15,554.23z"/>
   <path className="fil0" d="M3403.85 5332.36c88.94,105.99 -2.82,77.34 162.1,121.2 96.31,25.62 180.61,17.05 271.87,-9.07 125.23,-35.84 307.78,-140.2 354.37,-225.9 -195.66,-17.2 -394.17,-44.58 -549.38,-159.88 -212.85,-158.14 -101.49,-201.39 -217.13,-240.66l-21.83 514.31z"/>
   <path className="fil0" d="M12390.89 5648.83c-29.29,-179.93 -80.95,-317.17 -204.2,-454.88 -4.78,-5.34 -11.47,-13.32 -16.36,-18.55l-52.26 -53.07c-4.11,-3.31 -90.29,-53.96 -90.59,-54.1 -88.76,-40.98 -169.47,-58.28 -241.66,-78.91 92.1,401.95 192.63,700.3 589.43,760.79l15.64 -101.28z"/>
   <path className="fil0" d="M3231.4 4807c148.87,-60.6 201.15,-63.63 218.57,-250.44 68.93,-739.12 -64.58,-486.42 -342.25,-798.24 2.36,337.26 146.98,626.08 123.68,1048.68z"/>
   <path className="fil0" d="M4874.34 5213.07c221.61,-25.39 81.36,253.73 349.8,382.56 85.14,40.85 163.64,60.01 247.55,104.62 89.14,47.38 149.26,103.27 243.21,131.72l55.99 -276.01c-545.86,-70.52 -507.88,-242.99 -584.62,-418.18 -47.34,-108.08 1.93,-37.68 -69.87,-110.01 -76.41,128.99 -83.73,120.26 -242.06,185.3z"/>
   <path className="fil0" d="M9290.84 5821.11c106.87,-31.2 96.8,-58.99 202.35,-118.3 55.9,-31.41 156.95,-66.25 241.89,-109.55 135.95,-69.3 244.93,-235.86 309.78,-406.97 -108.85,-64.01 -108.4,-70.43 -165.68,-153.26 -195.9,213.11 42.65,424.05 -638.38,523.82l50.04 264.26z"/>
   <path className="fil0" d="M11719.05 4786.27c29.4,-280.59 67.27,-762.54 172.65,-1004.62 -238.53,148.01 -360.79,219.36 -356.27,388.73 11.76,441.48 -35.57,514.81 183.62,615.89z"/>
   <path className="fil0" d="M2353.27 4789.9l100.94 -129.29c40.76,-17.2 1.13,85.01 52.34,-52.01 36.72,-98.27 -37.13,-423.99 -50.41,-397.77 -3.1,6.14 -14.91,-16.38 -19.15,-20.95l-132 -155.86c-66.29,-71.55 -129.45,-95.54 -227.32,-147.95l275.6 903.83z"/>
   <path className="fil0" d="M1800.35 4679.03c71.53,-161.09 105.12,-131.33 51.56,-335.92l-49.16 -257.64c-142.2,-115.82 -207.58,-232.37 -451.25,-306.09 124.87,274.11 357.44,532.64 448.85,899.65z"/>
   <path className="fil0" d="M12649.22 4761.91c-25.83,-234.75 156.32,-605.22 225.86,-847.48 -141.93,71.06 -316.7,178.28 -356.36,332.01 -6.96,26.98 -38.21,286.52 -36.28,314.21 8.8,126.08 72.59,136.88 166.78,201.26z"/>
   <path className="fil0" d="M11785.82 4989.32c72.19,20.63 152.9,37.93 241.66,78.91 0.3,0.14 86.48,50.79 90.59,54.1l52.26 53.07c4.89,5.23 11.58,13.21 16.36,18.55 123.25,137.71 174.91,274.95 204.2,454.88 5.84,-7.56 13.81,-28.8 15.87,-23.87 2.1,5.01 12.13,-18.37 14.77,-25.17 96.26,-246.93 -21.82,-365.49 16.02,-683.29 -120.76,66.19 -115.47,101.07 -308.6,85.79 -116.63,-9.22 -241.73,-46.67 -326.22,-66.72l-16.91 53.75z"/>
   <path className="fil0" d="M13166.14 4591.33c103.69,-108.53 389.66,-696.31 465.09,-814.83 -451.62,209.45 -386.01,260.42 -481.14,578.32l-21.39 180.34c47.91,147.2 -7.3,-2.38 37.44,56.17z"/>
   <path className="fil0" d="M12530.31 4973.76l226.85 25.78c156.44,-61.55 263.68,128.79 314.3,260.61 -14.1,14.17 -25.67,39.7 -41.93,57.53 130.24,79.45 172.74,291.53 207.44,450.33 27.81,-184.67 20.39,-365.5 -61.25,-540.7 -94.41,-202.59 -130.91,-289.11 -344.38,-329.32 -14.61,114.99 -248.03,-2.5 -274.28,-11.68l-26.75 87.45z"/>
   <path className="fil0" d="M1544.24 4947.15c-196.06,109.54 4.43,-56.09 -133.25,99.4 -13.23,14.95 -42.57,70.62 -53.19,86.13 -50.68,73.98 -21.4,62.82 -99.18,140.11 48.61,341.2 61.21,449.44 387.89,225.36 12.53,-8.6 241.34,-218.46 245.02,-223.54 126.24,-173.83 88.23,-67.19 48.55,-291.33l-77.11 -338.11c-183.11,178.61 -130.19,353.26 -318.73,301.98z"/>
   <path className="fil0" d="M2546.31 5141.2c5.83,161.56 -38.59,399.7 53.85,528.89 -74.81,-349.87 240.64,-554.31 348.57,-670.28 -39.47,1.23 -151.5,12.04 -180.03,9.42 -143.95,-13.21 -94.78,6.35 -114.6,-90.84 -132.68,106.95 -21.97,-14.99 -81.42,128.01 -27.55,66.27 39.06,-3.36 -26.37,94.8z"/>
   <path className="fil0" d="M13345.8 5264.76l-13.34 108.4c77.84,87.93 220.24,240.75 337.74,206.67 -5.72,-192.4 -44.25,-159.06 -90.62,-321.81 -106.73,-23.37 -58.53,0.11 -116.97,-71.76 -42.03,-51.71 -12.09,-39.62 -75.36,-98.52l-41.45 177.02z"/>
   <path className="fil0" d="M13168.27 4864.14l105.59 73.59c76.59,-44.6 18.93,-7.73 81.09,-35.59 138.72,78.09 210.27,144.43 224.63,355.88 46.37,162.75 84.9,129.41 90.62,321.81 135.23,-242.16 -73.27,-564.03 -173.79,-737.54 -281.08,77.04 -188.86,-10.11 -385.64,-34.09 148.94,42.18 -20.99,-13.24 57.5,55.94z"/>
   <path className="fil0" d="M1747.91 5586.34c76.68,-118.94 74.79,-217.9 182.14,-325.04 50.06,-161.9 125.29,-268.8 299.31,-281.61l92.62 -38.21c-152.81,-0.86 -127.71,-24.9 -262.53,-37.12 -174.75,168.78 -285.91,309.04 -311.54,681.98z"/>
   <path className="fil0" d="M7005.22 4624.1c-191.74,108.65 -363.08,-43.22 -668.7,18.92 71.14,51.93 216.58,97.42 319.91,120.29 202.29,44.78 298.25,-3.26 348.79,-139.21z"/>
   <path className="fil0" d="M8685.7 4645.66c-328.96,-93.35 -426.34,65.8 -684.86,-37.09 145.79,278.07 397.15,112.91 684.86,37.09z"/>
   <path className="fil0" d="M1281.77 5417.11c42.28,-40.65 26.36,-34.78 53.91,-73.69 5.77,-8.16 21.72,-37.44 28.91,-45.3 74.84,-81.78 -34.14,5.33 72.43,-52.28 -29.37,-186.22 92.92,-352.9 288.08,-326.94 -87.59,-57.69 -139.21,-52.29 -222.99,-76.1 -96.54,165.64 -195.07,330.07 -220.34,574.31z"/>
   <g>
    <g>
     <g>
      <path className="fil1" d="M10044.86 5186.29l499.41 38.35 -52.85 646.82c-24.61,311.57 -113.55,668.3 -280.59,865.48 -73.01,86.19 -214.72,169.15 -379.8,110.25 -148.22,-52.88 -203.76,-145.28 -266.19,-275.61 -124.03,-249.12 -216.33,-417.53 -274,-750.47l-50.04 -264.26c681.03,-99.77 442.48,-310.71 638.38,-523.82 57.28,82.83 56.83,89.25 165.68,153.26zm-4329.96 645.68c-30.06,153.64 -72.63,298.08 -131.24,441.32l-125.44 257.6c-63.51,93.49 23.13,-1.46 -40.83,45.61l-24.39 59.86c-4.13,7.97 -8.82,18.55 -13.65,26.87 -4.52,7.79 -9.92,16.46 -14.9,23.97 -6.22,9.37 -25.95,32.72 -32.91,40.79 -375.62,434.93 -722.24,-126.59 -814.19,-746.91l-51.35 -751.23 408.34 -16.78c158.33,-65.04 165.65,-56.31 242.06,-185.3 71.8,72.33 22.53,1.93 69.87,110.01 76.74,175.19 38.76,347.66 584.62,418.18l-55.99 276.01zm5884.5 -522.01c-25.54,256.89 -63.58,729.06 -401.96,558.65 -168.98,-85.1 -371.11,-380.48 -460.34,-622.72l7.3 -23.37c252.72,-24.46 529.51,-46.67 703.02,-247.58 97.28,-112.65 50.05,-131.13 128.81,-156.85l23.17 491.87zm-8195.55 22.4l21.83 -514.31c115.64,39.27 4.28,82.52 217.13,240.66 155.21,115.3 353.72,142.68 549.38,159.88l81.55 31.53c-148.12,234.93 -235.96,488.08 -473.54,618.48 -324.42,178.07 -380.65,-290.55 -396.35,-536.24zm5475.04 602.88c-66.05,175.12 -133.69,336.89 -225.08,478.4 -106.24,164.49 -174.81,301.5 -414.14,315.58 -256.41,-101.09 -429.72,-478.3 -503.78,-804.44 -143.08,-425.7 -230.04,-970.43 -138.98,-1418.21 214.64,-70.64 480.34,-40.06 748.6,-40.32 215.85,-0.21 554.31,-73.34 664.54,128.85 178.65,327.7 -26.59,1023.63 -131.16,1340.14zm-1609.22 15.64c-114.08,320.44 -236.5,678.96 -511.66,777.41 -293.75,-20.95 -517.44,-418.9 -605.93,-735.23 -137.84,-344.76 -321.62,-987.58 -175.66,-1373.6 51.62,-136.54 81.5,-146.34 253.94,-153.87 134.59,-5.88 285.43,0.09 421.81,0.22 256.9,0.23 551.8,-31.72 752.46,37.28 110.52,485.27 -23.99,982.45 -134.96,1447.79zm5121.22 -302.05l-15.64 101.28c-396.8,-60.49 -497.33,-358.84 -589.43,-760.79l16.91 -53.75c84.49,20.05 209.59,57.5 326.22,66.72 193.13,15.28 187.84,-19.6 308.6,-85.79 -37.84,317.8 80.24,436.36 -16.02,683.29 -2.64,6.8 -12.67,30.18 -14.77,25.17 -2.06,-4.93 -10.03,16.31 -15.87,23.87zm-991.74 -1576.74c92.01,125.02 76.5,537.03 35.31,716.55 -41.53,181.01 -203.3,262.12 -439.38,307.16 -202.13,38.56 -535.74,40.99 -745.42,24.93 -300.59,-23.03 -348.55,-90.56 -384.5,-378.25 -136.41,-612.27 114.5,-756.64 572,-953.97 142.86,-61.62 464.76,-207.79 625.35,-203.61 255.66,6.66 362.07,226.17 336.64,487.19zm-3649.64 -221.18c27.78,-165.56 158.94,-309.98 259.55,-408.27 5.08,-4.96 12.19,-12.64 17.32,-17.57 115.39,-110.96 -78.26,65.3 35.56,-34.7 32.37,-28.43 52.61,-42.3 81,-60.95 72.75,-47.78 104.65,-64.42 187.78,-94.79 1259.14,-459.99 1495,877.95 1376.96,1929.26 -82.05,259.74 -317.39,283.93 -575.6,292.27 19.91,-334.97 145.08,-932.96 -199.42,-1067.14 -182.94,-71.25 -1187.81,-51.37 -1349.76,10.5 -2.47,-175.27 72.56,-434.22 166.61,-548.61zm-2441.61 1328.82c-179.79,-646.51 22.36,-1533.69 406.06,-1881.14 449.82,-407.33 1426.72,6.83 1541.51,542.12 91.83,126.26 154.68,369.87 167.67,553.73 -200.94,-47.5 -1179.95,-77.86 -1356.38,-3.99 -365.15,152.88 -203.85,853.17 -202.42,1061.99 -269.69,-0.36 -343.01,-66.8 -530.45,-135.69l-25.99 -137.02zm-173.01 -473.01c-23.13,306.76 -78.19,391.17 -386.84,414.38 -328.67,24.71 -1126.23,58.31 -1193.15,-360.86 -32.41,-202.99 -33.29,-533.09 24.07,-706.08 13.03,-686.7 567.31,-443.14 982.27,-266.46 440.04,187.35 702.83,337.24 573.65,919.02zm6756.81 -925.07c72,-83.19 325.82,-268.19 456.88,-170.24 139.3,102.45 80.34,408.24 61.18,676.56 -17.93,251.08 -41.66,375.23 -130.25,606.23 -190.47,28.66 -401.99,-23.72 -560.46,-107.93 -219.19,-101.08 -171.86,-174.41 -183.62,-615.89 -4.52,-169.37 117.74,-240.72 356.27,-388.73zm-10072.4 -110.6c-16.81,31.23 -28.8,57.65 -48.23,92.68l-77.39 117.52c16.15,7.09 61.76,46.12 125.26,38.52 -1.8,12.56 -1.11,28.09 -1.7,38.03l-14.49 127.67 49.16 257.64c93.16,55.27 17.78,56.39 107.48,0 -79.94,-136.05 -116.54,-394.08 -91.15,-554.23 94.89,-2.39 43.78,-16.64 129.53,23.06 118.32,54.79 48.96,16.82 79.9,74.13 97.87,52.41 161.03,76.4 227.32,147.95l132 155.86c4.24,4.57 16.05,27.09 19.15,20.95 13.28,-26.22 87.13,299.5 50.41,397.77 -51.21,137.02 -11.58,34.81 -52.34,52.01l70.64 -70.56 141.88 211.31c-44.94,-212.86 -76.08,-399.76 -86.74,-610.82 -5.57,-110.09 -15.48,-235.12 -15.27,-344.08 0.98,-501.07 414.26,-150.52 543,-88.14 277.67,311.82 411.18,59.12 342.25,798.24 -17.42,186.81 -69.7,189.84 -218.57,250.44 -110.32,52.28 -465.13,175.03 -524.47,30l-56.38 75.39c-0.62,-1.42 1.64,4.69 3.55,6 19.82,97.19 -29.35,77.63 114.6,90.84 28.53,2.62 140.56,-8.19 180.03,-9.42l175.84 -37.75c87.07,-41 -109.46,-54.41 106.59,-30.56l-41.37 97.86c-25.98,367.87 -232.38,667.35 -567.1,721.23 -40.89,-30.72 -2.25,-9.41 -22.53,-80.5 -92.44,-129.19 -48.02,-367.33 -53.85,-528.89 -20.1,-72.83 -14.82,-120.38 -32.22,-172.44l-46.44 -64.86c8.74,194.69 -22.21,244.75 -32.16,403.67l26.14 0.78c67.17,34.98 23.2,-85.82 53.37,58.53 56.67,271.13 -50.63,187.71 -72.45,210.6 52.14,145.88 21.67,169.06 148.36,262.62 375.05,76.47 599.04,-336.71 693.29,-648.64 30.17,319.94 42.51,905.78 452.08,817.54 254.59,-54.84 473.56,-446.31 618.44,-650.79 48.1,565.37 88.34,1588.1 681.07,1612.63 569.29,23.56 731.89,-1009.92 848.6,-1383.8 94.38,155.42 176.28,538.93 290.65,748.86 637.84,1170.72 1186.73,15 1295.65,-792.43l31.71 -83.35 31 75.16c30.37,373.32 214.93,847.96 398.38,1090.32 90.32,119.33 240,265.01 477.32,180.73 182.02,-64.63 240.85,-200.55 338.09,-347.2 210.6,-284.54 219.69,-612.23 368.03,-868.54 157.62,501.42 287.76,1395.75 847.53,1382.17 591.18,-14.34 647.57,-1084.13 683.46,-1610.01 78.7,113.96 183.75,268.48 260.65,398.93l135.49 116.26c212.77,206.98 327.81,139.57 521.11,49.32 84.8,-318.39 114.08,-322.34 148.46,-737.38 105.19,309.69 311.94,737.85 697.43,650.99 130.42,-97.35 108.01,-117.7 146.41,-263.39 -13.16,-14.64 -124.94,47.64 -72.85,-210.59 31.22,-154.77 24.45,-1.12 79.45,-59.42l-32.05 -333.71 26.75 -87.45c26.25,9.18 259.67,126.67 274.28,11.68l-63.11 -42.92c-112.29,-46.52 -150.83,-16.27 -119.01,-93.16 -94.19,-64.38 -157.98,-75.18 -166.78,-201.26 -1.93,-27.69 29.32,-287.23 36.28,-314.21 39.66,-153.73 214.43,-260.95 356.36,-332.01 18.92,-61.21 -19.92,-22.86 38.45,-51.22 -126.59,-5.27 -55.08,-2.22 -103.53,-52.89 -124.73,72.06 -122.78,144.04 -273.64,222.07 4.83,-343.17 29.97,-681.24 -408.5,-530.33 -255.58,87.96 -435.11,312.7 -607.35,397.96 -96.34,-255.29 -100.99,-316.02 -317.68,-415.86 -429.02,-30.78 -1236.05,334.91 -1369.22,580.67 -6.39,-7.32 -13.47,-17.96 -16.98,-23.68l-149.24 -386.44c-56.96,-136.23 -119.64,-242.98 -193.76,-334.08 -405.69,-498.69 -1667.36,-408.91 -1940.16,782.07l-41.68 64.44 -20.76 -79.64c-173.17,-580.58 -476.86,-970.01 -1137.1,-1043.4 -666.8,-74.13 -1049.56,415.86 -1125.78,1025.32 -121.62,-79.08 -196,-193.59 -394.04,-289.98 -410.3,-199.69 -1265.42,-590.56 -1313.22,132.28 -234.84,-118.38 -369.95,-336.54 -658.38,-416.7 -415.22,-115.4 -380.83,208.7 -382.15,536.34 -194.65,-88.39 -287.69,-352.2 -641.06,-360.31z"/>
      <path className="fil1" d="M1652.18 5264.84c21.57,117.89 42.23,61.8 -26.39,153.23 -2,2.67 -126.37,113.05 -133.18,117.57 -177.57,117.86 -184.42,60.93 -210.84,-118.53 25.27,-244.24 123.8,-408.67 220.34,-574.31 83.78,23.81 135.4,18.41 222.99,76.1 7.51,-5.11 17.86,-24.45 21.06,-17.3 4.76,10.61 29.71,-24.73 40.22,-28.88 48.34,-19.06 16.34,-20.52 86.7,-3.89 -82.99,60.94 -87.14,179.54 -131.56,277.4 -96.72,213.09 -2.84,43.91 -89.34,118.61zm257.57 -623.31c140.79,72.04 15.01,-31.51 83.34,53.95 2.87,3.58 45.89,99.34 52.15,114.21 -148.69,-105.24 -77.9,-107.14 -135.49,-168.16zm121.6 1190.95c75.52,-76.62 130.31,-99.29 206.98,-152.97 89.61,-62.74 122.99,-120.16 184.71,-194.73l19.51 92.7c21.82,-22.89 129.12,60.53 72.45,-210.6 -30.17,-144.35 13.8,-23.55 -53.37,-58.53l-26.14 -0.78c-193.86,139.87 -307.89,463.76 -681.01,449.09l-6.57 -170.32c25.63,-372.94 136.79,-513.2 311.54,-681.98 134.82,12.22 109.72,36.26 262.53,37.12 109.6,-50.97 -2.19,-19.93 145.67,-37.58l46.44 64.86c17.4,52.06 12.12,99.61 32.22,172.44 65.43,-98.16 -1.18,-28.53 26.37,-94.8 59.45,-143 -51.26,-21.06 81.42,-128.01 -1.91,-1.31 -4.17,-7.42 -3.55,-6l56.38 -75.39 -40.2 -35.64 -141.88 -211.31 -70.64 70.56 -100.94 129.29 -123.65 47.25c-62.79,-119.07 -86.69,-90.93 -161.73,-212.42 -58.05,-93.99 -83.88,-167.81 -108.5,-281.62 -89.7,56.39 -14.32,55.27 -107.48,0 53.56,204.59 19.97,174.83 -51.56,335.92 -180.65,248.21 -343.5,-28.94 -440.28,-194.16 -137.67,-235.02 -164.73,-411.59 -115.07,-685.29l106.5 -20.2c243.67,73.72 309.05,190.27 451.25,306.09l14.49 -127.67c0.59,-9.94 -0.1,-25.47 1.7,-38.03 -63.5,7.6 -109.11,-31.43 -125.26,-38.52 -79.84,-128.21 -203.2,-223.4 -446.22,-204.6 -303.16,326.7 -37.51,826.86 164.2,1089.61 -116.14,211.03 -384.93,646.48 -156.03,917.23 185.28,67.06 245.9,-34.42 369.1,-98.22l63.84 262.5c184.75,53.87 180.83,3.54 342.78,-15.29z"/>
     </g>
     <path className="fil1" d="M13670.2 5579.83c-117.5,34.08 -259.9,-118.74 -337.74,-206.67l13.34 -108.4c-106.18,-91.08 -75.9,-104.73 -138.29,-209.55 -47.44,-79.72 -73.07,-85.94 -133.47,-159.79l94.23 -31.28c-78.49,-69.18 91.44,-13.76 -57.5,-55.94 196.78,23.98 104.56,111.13 385.64,34.09 100.52,173.51 309.02,495.38 173.79,737.54zm-717.8 -765.25c8.85,-22.57 43.53,-105.8 53.32,-118.45 58.91,-76.14 -33.3,6.93 78.66,-51.91 -52.62,130.93 -35.41,96.9 -131.98,170.36zm213.74 -223.25c-44.74,-58.55 10.47,91.03 -37.44,-56.17l21.39 -180.34c95.13,-317.9 29.52,-368.87 481.14,-578.32l121.64 22.36c99.13,559.44 -414.96,1351.16 -586.73,792.47zm-356.14 -781.01c48.45,50.67 -23.06,47.62 103.53,52.89 90.72,-51.18 106.15,-76.09 215.33,-73.79 38.05,230.7 -78.84,655.03 -212.67,856.24 -81.41,122.39 -90.38,63.07 -147.96,209.41l63.11 42.92c213.47,40.21 249.97,126.73 344.38,329.32 81.64,175.2 89.06,356.03 61.25,540.7 -186.11,-24.9 -297.72,-91.21 -413.19,-187.1 -113.46,-94.21 -131.95,-179.02 -261.42,-273.44 -55,58.3 -48.23,-95.35 -79.45,59.42 -52.09,258.23 59.69,195.95 72.85,210.59l19.69 -93.6c103.32,133.36 397.1,462.05 749.14,366.65l42.53 -265.98c126.93,62.54 195.31,164.43 374.77,98.94 227,-302.18 -42.13,-669.67 -155.85,-917.23 544.68,-711.06 291.22,-1487.92 -297.32,-884.09 -5.25,-7.17 -10.26,-18.26 -12.97,-23.3 -2.69,-5.04 -9.48,-17.15 -12.76,-23.35l-86.24 -155.8c-180.54,-16.68 -245.6,32.01 -366.75,130.6z"/>
    </g>
    <path className="fil1" d="M13273.86 4937.73c63.42,119.2 43,50.69 113.39,150.01 63.27,58.9 33.33,46.81 75.36,98.52 58.44,71.87 10.24,48.39 116.97,71.76 -14.36,-211.45 -85.91,-277.79 -224.63,-355.88 -62.16,27.86 -4.5,-9.01 -81.09,35.59z"/>
    <path className="fil1" d="M1437.02 5245.84c102.48,26.97 73.72,-64.89 173.25,-158.83 74.65,-104.19 58.05,-30.56 114.83,-168.11 -195.16,-25.96 -317.45,140.72 -288.08,326.94z"/>
    <path className="fil1" d="M1930.05 5261.3c23.68,58.59 -25.06,33.26 72.39,61.69 48.1,-78.16 24.38,-82.04 103.18,-164.59 105.58,-110.61 111.59,-39.55 123.74,-178.71 -174.02,12.81 -249.25,119.71 -299.31,281.61z"/>
    <path className="fil1" d="M13029.53 5317.68c16.26,-17.83 27.83,-43.36 41.93,-57.53 -50.62,-131.82 -157.86,-322.16 -314.3,-260.61 20.15,69.52 0.01,30.11 41.89,75.98 37.66,41.25 61.28,48.37 93.06,82.85 111.64,121.12 22.12,113.31 137.42,159.31z"/>
   </g>
   <path className="fil0" d="M3189.79 5029.36l41.37 -97.86c-216.05,-23.85 -19.52,-10.44 -106.59,30.56 85.57,39.76 61.24,-70.9 65.22,67.3z"/>
   <path className="fil0" d="M7470.69 5543.47l62.71 -8.19 -31 -75.16 -31.71 83.35z"/>
   <path className="fil0" d="M7533.47 4102.7l-62.44 -15.2 20.76 79.64 41.68 -64.44z"/>
  </g>
 </g>
</svg>
