<?xml version="1.0" encoding="UTF-8"?>
<!DOCTYPE svg PUBLIC "-//W3C//DTD SVG 1.0//EN" "http://www.w3.org/TR/2001/REC-SVG-20010904/DTD/svg10.dtd">
<!-- Creator: CorelDRAW 2020 (64-Bit) -->
<svg xmlns="http://www.w3.org/2000/svg" xml:space="preserve" width="150mm" height="100mm" version="1.0" style="shape-rendering:geometricPrecision; text-rendering:geometricPrecision; image-rendering:optimizeQuality; fill-rule:evenodd; clip-rule:evenodd"
viewBox="0 0 15000 10000"
 xmlns:xlink="http://www.w3.org/1999/xlink"
 xmlns:xodm="http://www.corel.com/coreldraw/odm/2003">
 <defs>
  <style type="text/css">
   <![CDATA[
    .fil0 {fill:#5D6A79}
    .fil1 {fill:#F0F0F2}
    .fil2 {fill:#F1F1F2}
   ]]>
  </style>
 </defs>
 <g id="Capa_x0020_1">
  <metadata id="CorelCorpID_0Corel-Layer"/>
  <g id="_2036064962624">
   <path className="fil0" d="M4715.18 7325.24c-147.51,-361.78 -254.81,-997.48 -276.84,-1408.07 -14.68,-273.63 60.95,-460.63 349.68,-487.17 109.62,-10.08 680,16.04 774.69,36.51l192.99 44.87c183.12,466.03 36.04,769.26 -126.27,1252.1 -114.12,339.46 -326.46,913.1 -517.48,1060.14 -196.77,-37.11 -318.25,-291.3 -396.77,-498.38zm4689.69 -1877.4c212.81,-17.26 616.65,-60.38 812.96,-36.97 312.39,37.27 362.24,192.72 342.13,505.59 -19.32,300.62 -131.68,1172.18 -288.9,1376.89 -42.51,204.42 -202.29,448.56 -311.91,511.23 -279.81,-98.38 -468.65,-711.01 -595.45,-1070.2 -135.69,-384.36 -425,-1127.31 41.17,-1286.54zm1667.54 1146.89c-127.99,-56.43 -199.44,-177.51 -306.81,-307.6 -226.07,-273.93 -150.17,-659.14 155.54,-935.52l53.68 -50.66c78.56,-79.59 128.27,-143.24 300.03,-199.23 423.02,-111.51 473.77,1206.38 70.31,1633.55 -145.18,-6.87 -197.06,-28.92 -272.75,-140.54zm-7404.9 -1494.58c304.38,91.27 391.38,264.28 548.7,431.18 65.63,69.63 97.19,95.49 113.43,210.8 74.02,525.21 -113.94,568.17 -360.71,848.03 -241.5,200.49 -376.61,292.27 -509.43,-198.1 -99.26,-366.45 -172.16,-1194.91 208.01,-1291.91zm3529.2 1802.76c-76.81,290.3 -245.2,770.55 -508.67,774.57 -286.71,4.37 -433.98,-487.47 -515.07,-763.36 -92.21,-458.92 -414.39,-1320.81 -72.34,-1443.37 154.43,-55.33 418.08,-44.6 585.43,-38.82 481.54,16.62 797.81,-98.09 762.36,485.87 -18.43,303.66 -161.08,730.89 -251.71,985.11zm1619.62 -0.98c-81.78,337.21 -214.2,802.73 -575.62,748.69 -238.97,-140.34 -339.82,-449.26 -447.5,-768.73 -58.65,-337.57 -410.27,-1011.97 -175.83,-1342.43 113.58,-160.1 464.53,-119.16 693.89,-129.27 241.54,-10.64 563.8,-46.72 721.64,146.13 76.98,324.65 -113.16,1033.22 -216.58,1345.61zm4677.68 -1019.87c-213.34,-146.98 -257.74,-329.5 -238.75,-643.1 294.75,-98.52 126.92,-181.88 347.67,-214.03l124 30.2c72.75,206.67 78.85,257.91 14.96,509 -77.34,303.97 -98.49,356.97 -229.55,397.74 -37.09,-56.27 -18.13,-3.73 -18.33,-79.81zm-12152.61 -803.4c164.37,-115.38 122.59,-13.64 399.28,203.68 33.23,278.23 -71.27,547.54 -229.88,645.32l-78.7 49.63c-158.75,-184.75 -345.27,-761.98 -90.7,-898.63zm10424.75 24.06c95.19,-86.91 158.13,-117.67 319.84,-105.15 130.72,62.93 215.97,153.26 233.1,301.12 252.21,238.9 82.09,1040.5 9.88,1360.09l-134.95 -55.51c-92.52,-71.79 -105.72,-91.73 -175.69,-160.87 -80.36,-79.39 -108.17,-78.36 -130.89,-187.87 -170.32,-85.98 -172.79,-237.33 -168.22,-442.12 5.63,-252.34 -26.07,-342.68 -74.9,-563.61l121.83 -146.08zm-8633.39 1161.13c-95.14,163.09 -164.18,317.68 -339.3,339.82 -31.99,49.08 33.94,38.12 -91.36,73.39 -187.23,-226.75 -198.17,-1130.9 -36.04,-1359.69 72.45,-359.37 297.75,-352.04 581.34,-190.04l115.45 122.88c-40.8,229.24 -86.98,298.46 -82.9,561.93 2.93,188.72 34.23,318.45 -147.19,451.71zm9557.51 -982.34c46.85,-162.76 52.86,-207.08 171.83,-264.94 420.43,-35.84 268.21,1075.65 256.72,1308.02 -135.49,-22.2 -411.94,-164.49 -453.13,-338.54 -95.83,-60.93 -109.94,-45.69 -129.08,-208.24 -10.16,-86.25 -10.95,-169.93 -25.06,-261.9 -18.56,-120.91 -124.17,-360.77 -113.27,-426.91l216.88 -22.31c4.77,7.94 6.57,20.38 8.3,26.52l29.67 111.21c2.61,7.81 8.08,20.53 10.35,26.8 2.25,6.23 11.01,30.57 12.75,25.5 1.74,-5.07 7.72,17.71 14.04,24.79zm-10387.24 759.73c-77.28,136.42 -208.68,256.68 -414.43,300.82 -81.75,-383.65 -160.34,-1330.64 316.49,-1298.56 50.67,61.31 68.91,127.41 98.87,241.22 6.08,-7.88 11.88,-19.87 14.54,-26.09 2.59,-6.07 10.1,-18.77 12.84,-26.14 2.63,-7.04 7.51,-18.48 9.83,-26.02l8.63 -119.37 270.27 31.1c-47.71,169.62 -109.29,243.02 -138.27,459.36 -40.72,303.91 31.31,313.78 -178.77,463.68zm8930.7 -1759.76l76.15 -59.42c269.52,273.47 343.31,388.94 881.94,388.51 56.11,81.22 198.52,295.55 198.9,366.34 -290.08,72.11 -195.5,-350.37 -798.62,134.24l-104.32 -79.55c-135.69,-87.48 -168.49,-36.87 -312.49,-43.12l-291.49 255.85c-54.99,54.73 -204.97,211.66 -246.16,277.56 -210.85,-205.52 -367.43,-242.79 -738.87,-216.55 -411.45,29.06 -520.16,-22.55 -779.56,180.9 -192.42,-214.13 -458.36,-196.97 -807.94,-183.9 -387.13,14.48 -623.27,-42.66 -811.39,204.08 -8.02,-4.87 -17.89,-12.66 -22.89,-16.4l-147.34 -110.05c-155.75,-80.76 -966.9,-74.23 -1147.39,-41.91 -208.43,37.32 -222.14,92.9 -354.73,171.28 -125.27,-217.63 -461.91,-162.08 -761.16,-183.66 -218.81,-15.77 -416.63,-23.81 -585.59,108.99 -16.32,12.82 -58.77,50.24 -63,53.6 -13.92,11.07 -33.43,66.28 -51.57,38.12 -4.85,-7.53 -17.86,13.75 -27.62,19.32 -121.47,-251.82 -560.32,-762.98 -930.93,-416.39 -132.88,-92.77 -197.18,-206.92 -394.81,-222.7 -301.92,-24.11 -155.69,161.48 -424.49,94.36 25.59,-46.9 176.36,-313.07 219.58,-370.12 696.03,-1.06 699.35,-254.11 881.94,-388.29 322.2,172.04 442.84,198.38 847.35,189.99 276.1,-5.73 496.02,-43.07 692.13,-223.28l59.35 -56.22c199.97,323.67 637.39,337.24 1117.56,323.92 754.93,-20.95 840.73,100.38 1093.61,-315.28 137.85,157.82 96.77,268.76 421.08,292.02 212.59,15.25 487.83,3.29 707.81,5.16 459.8,3.89 879.95,17.57 1063.28,-329.39l117.36 75.65c80.64,59.92 88.39,91.67 214.15,139.78 333.04,127.42 904.06,90.88 1210.17,-63.44zm-9637.58 -63.81c145.66,76.94 275.25,176.06 340.09,315.15 7.09,15.21 78.87,222.7 80.47,234 15.54,109.52 -57.61,195.67 -63.02,181.27 -1.89,-5.02 -10.8,10.59 -16.18,15.9 -54.15,94.86 -86.26,136.51 -187.91,182.12 -296.82,-151.88 -386.61,-656.16 -369.95,-1057.24 120.38,18.78 174.34,39.37 216.5,128.8zm11484.84 742.64c-325.66,-248.31 183.94,-663.48 310.1,-729.31 21.43,-72.96 121.2,-147.23 225.81,-165.32 18.31,235.61 5.44,409.27 -70.19,632.31 -57.23,168.76 -178.67,370.4 -262.18,431.87 -155.69,-50.56 -172.44,-29.62 -203.54,-169.55zm-10696.21 -814.87c170.3,75.33 149.56,86.99 219.49,284.37 52.22,147.4 152.06,195.31 -2.62,318.83 -62.48,131.63 -117.6,206.21 -287.6,239.39 -266.99,-200.69 -395.46,-851.41 -339.23,-1100.48 182.14,11.76 341.31,165.51 409.96,257.89zm10035.82 591.01c-156.75,-107.31 -74.8,-192.84 -20.97,-337.37 61.8,-165.93 111.94,-204.83 234.4,-265.03 85.29,-139.82 187.89,-240.6 406.02,-271.04 12.56,449.16 -118.3,822.22 -304.03,1108.07 -213.64,-16.09 -299.99,-65.74 -315.42,-234.63zm-334.79 -1447.88c334.44,-170.69 345.22,1079.99 140.41,1195.56 -140.74,28.1 -349.2,29.19 -466.4,-51.78 -540.41,-146.87 -287.83,-498.18 -260.04,-616.85 69.69,-297.61 304.94,-456.84 586.03,-526.93zm-9152.88 15.55c178.35,59.1 243.32,120.82 370.55,212.37 181.05,130.29 142.24,65.03 201.71,333.48 17.33,78.21 260.73,419.84 -242.97,600.49 -190.13,81.82 -305,96.31 -514.86,48.57 -143.87,-263.69 -143.49,-773.47 -28.58,-1070.55 49.98,-129.23 67.01,-184.17 214.15,-124.36zm2998.39 -1106.55c272.34,-18.15 519.89,7.38 768.67,111.36 174.65,73 376.27,225.49 446.71,355.17 99.84,89.8 139.19,172.88 193.99,308.02 99.78,246.07 208.77,1064.9 -33.91,1249.59 -17.64,110.41 -25.93,118.48 -196.17,133.96 -97.59,8.88 -213.94,0.64 -316.19,1.87 -217.09,2.6 -439.97,22.25 -655.51,7.1 -753.45,-3.81 -894.45,-249.2 -862.24,-988.32 25.77,-591.36 140.5,-1029 654.65,-1178.75zm5016.45 2078.04c-327.55,17.05 -695.47,96.33 -988.9,-77.64 -253.08,-150.06 -128.8,-576.08 -137.53,-891.18 262.83,-271.78 772.97,-499.67 1286.93,-518.89 211.93,28.28 213.79,101.74 277.31,302.1 51.23,161.59 66.53,365.51 48.2,535.9 -39.53,367.33 -161.72,552.9 -486.01,649.71zm-7059.89 -1469.68c474.25,-13.08 1016.72,260.38 1279.5,500.86 18.02,176.12 18.54,365.65 25.39,546.46 7.93,209.46 -27.35,287.28 -164.04,369.46 -210.59,126.62 -694.82,125.99 -936.32,66.38 -366.85,-55.13 -492.04,-259.2 -528.86,-662.97 -16.05,-176.03 3.69,-367.79 53.73,-533.23 53.22,-175.93 101.7,-248.32 270.6,-286.96zm5008.33 1536.58c-228.06,23.7 -460.81,3.56 -690.79,2.82 -245.25,-0.79 -419.56,55.51 -526.44,-142.82l-118.56 -400.41c-14.67,-164.44 -18.75,-332.44 6.72,-495.71 35.99,-230.72 116.52,-570.83 298.38,-654.6 78.71,-270.4 718.56,-547.73 1156.37,-466.83 570.51,42.37 678.31,699.35 700.35,1155.84 32.49,673.26 -79.35,1049.86 -826.03,1001.71zm-6897.91 -565.12c-197.73,27.19 -164.02,86.95 -127.21,495.1 -215.85,-93.76 -273.7,-337.06 -581.93,-297.26 -57.59,313.81 -14.25,646.48 118.11,919.05 -7.02,6.36 -17.67,13.2 -22.99,16.68l-138.72 79.83c-322.69,215.48 -36.11,883.97 112.24,1103.14l188.72 -15.86c75.23,-151.66 100.37,-114.11 181.38,-214.24 11.34,114.33 -1.55,497.92 116.49,564.13 233.45,62.65 500.1,-250.63 613.29,-332.11 56.34,356.4 57.93,1140.33 701.22,349.21 47.8,-58.79 94.99,-125.47 142.93,-179.97 170.32,346.03 188.37,1037.82 917.37,218.26l89.99 -92.54c6.57,-6.3 15.19,-14.12 21.32,-19.89l45.07 -41.24c32.05,268.02 88.61,550.96 165.23,815.62 96.8,334.3 188.18,437.84 321.64,672.91 87.24,79.7 106.66,102.56 273.22,121.21 244.34,-328.01 228.78,-208.21 452.85,-758.11 120.38,-295.44 195.02,-589.07 310.5,-898.92 157.07,486.65 268.64,1453.26 757.69,1500.95 533.81,52.06 630.68,-1015.23 843.17,-1449.56 120.15,194.51 190.99,581.73 279.18,821.29 278.79,757.23 743.45,901.58 1069.34,4.36 108.83,-299.63 165.93,-579.63 243.7,-890.59 85.9,143.11 261.25,893.21 542.63,1365.59 282.84,618.01 643.71,73.67 797.11,-412.49 88.89,-281.71 123.56,-663.89 207.76,-904.38 185.46,130.42 339.55,596.67 776.29,510.38 221.61,-220.27 155.61,-355.87 282.04,-584.82 302.31,305.48 668.87,899.67 794.03,190.13l50.59 -270.51c35.04,-87.22 -3.63,-23.83 52.82,-86.61 87.3,143.73 285.46,369.42 548.95,341.05 132.58,-139.53 118.29,-348.46 119.56,-570.53 131.86,69.7 129.39,239.85 374.33,214 100.01,-113.97 213.86,-438.97 242.53,-608.02 60.55,-357 -30.38,-439.01 -285.73,-558.35 82.19,-283.02 220.78,-623.75 102.11,-938.54 -248.84,-25.11 -391.42,182.52 -567.75,295.71 16.95,-213.76 98.94,-558.62 -215.8,-481.34 -127.09,31.21 -341.7,235.14 -441.1,306.67 -29.26,-1058.75 -209.62,-1110.87 -923.04,-620.28 -83.29,-811.74 -228.88,-867.12 -1014.57,-697.65l-706.65 371.58c-135.55,-440.44 -173.49,-1163.6 -1126.33,-1050.38 -874.22,103.87 -962.68,542.12 -1202,973.68 -143.74,-203.76 -247.84,-835.34 -1198.15,-958.14 -763.01,-98.6 -1030.65,354.38 -1119.9,1050.59 -219.93,-40.54 -1676.91,-1205.19 -1726.9,319.31 -124.43,-10.42 -998.79,-946.97 -918.58,633.85 -211.26,-93.27 -197.91,-249.79 -538.05,-321.95z"/>
   <path className="fil1" d="M7865.52 2651.79c-155,448.16 -191.14,1060.12 -186.54,1550.72 106.88,198.33 281.19,142.03 526.44,142.82 229.98,0.74 462.73,20.88 690.79,-2.82 71.48,-151.39 63.43,-69.02 180.06,-201.6 434.16,-493.5 169.09,-1621.36 -54.38,-1955.95 -437.81,-80.9 -1077.66,196.43 -1156.37,466.83z"/>
   <path className="fil2" d="M6138.91 4364.64c215.54,15.15 438.42,-4.5 655.51,-7.1 102.25,-1.23 218.6,7.01 316.19,-1.87 170.24,-15.48 178.53,-23.55 196.17,-133.96 45.2,-670.83 -87.56,-958.38 -160.08,-1557.61 -70.44,-129.68 -272.06,-282.17 -446.71,-355.17 -248.78,-103.98 -496.33,-129.51 -768.67,-111.36 -48.23,460.86 -646.93,1571.99 207.59,2167.07z"/>
   <path className="fil2" d="M8331.52 5549.65c263.29,80.81 242.04,50.98 441.25,-30.11 -107.24,402.7 -469.35,52.9 -903.28,92.05 36.33,-152.58 338.34,-99.9 462.03,-61.94zm-538.31 1332.24c123.86,70.42 285.53,230.74 483.09,245.07 247.36,17.94 400.92,-143.47 540.03,-225.03 103.42,-312.39 293.56,-1020.96 216.58,-1345.61 -157.84,-192.85 -480.1,-156.77 -721.64,-146.13 -229.36,10.11 -580.31,-30.83 -693.89,129.27 -234.44,330.46 117.18,1004.86 175.83,1342.43z"/>
   <path className="fil2" d="M6223.71 5539.08c348.65,249.31 469.08,-183.95 916.94,67.86 -97.14,37.19 -293.86,13.23 -424.02,54.25 -218.12,68.76 -194.58,97.19 -438.48,63.12l-54.44 -185.23zm-50.74 1375.04c216.72,111.36 425.04,404.34 889.16,82.67 112.12,-77.72 -19.59,-31.68 134.58,-93.88 90.63,-254.22 233.28,-681.45 251.71,-985.11 35.45,-583.96 -280.82,-469.25 -762.36,-485.87 -167.35,-5.78 -431,-16.51 -585.43,38.82 -342.05,122.56 -19.87,984.45 72.34,1443.37z"/>
   <path className="fil2" d="M10271.06 7293.35c157.22,-204.71 269.58,-1076.27 288.9,-1376.89 20.11,-312.87 -29.74,-468.32 -342.13,-505.59 -196.31,-23.41 -600.15,19.71 -812.96,36.97 50.61,466.89 15.54,758.36 166.37,1220.15 58.86,180.17 138.48,321.91 242.49,427.73 92.14,93.73 268.88,271.48 457.33,197.63z"/>
   <path className="fil2" d="M10947.77 4275.61c341.5,-646.08 223.08,-733.68 160.5,-1487.71 -513.96,19.22 -1024.1,247.11 -1286.93,518.89 8.73,315.1 -115.55,741.12 137.53,891.18 293.43,173.97 661.35,94.69 988.9,77.64z"/>
   <path className="fil2" d="M4092.41 4289.09c241.5,59.61 725.73,60.24 936.32,-66.38 136.69,-82.18 171.97,-160 164.04,-369.46 -6.85,-180.81 -7.37,-370.34 -25.39,-546.46 -262.78,-240.48 -805.25,-513.94 -1279.5,-500.86 -41.84,566.45 -184.85,1104.09 204.53,1483.16z"/>
   <path className="fil2" d="M4715.18 7325.24c407.68,20.23 590.01,-303.97 712.21,-658.14 100.47,-291.17 198.26,-902.31 135.32,-1200.59 -94.69,-20.47 -665.07,-46.59 -774.69,-36.51 -288.73,26.54 -364.36,213.54 -349.68,487.17 22.03,410.59 129.33,1046.29 276.84,1408.07z"/>
   <path className="fil2" d="M8896.21 4342.51c746.68,48.15 858.52,-328.45 826.03,-1001.71 -22.04,-456.49 -129.84,-1113.47 -700.35,-1155.84 223.47,334.59 488.54,1462.45 54.38,1955.95 -116.63,132.58 -108.58,50.21 -180.06,201.6z"/>
   <path className="fil2" d="M6138.91 4364.64c-854.52,-595.08 -255.82,-1706.21 -207.59,-2167.07 -514.15,149.75 -628.88,587.39 -654.65,1178.75 -32.21,739.12 108.79,984.51 862.24,988.32z"/>
   <path className="fil2" d="M11072.41 6594.73c79.39,-230.07 194.95,-408.05 254.95,-694.89 41.67,-199.18 103.22,-666.75 -52.51,-798.12 -171.76,55.99 -221.47,119.64 -300.03,199.23l-53.68 50.66c-305.71,276.38 -381.61,661.59 -155.54,935.52 107.37,130.09 178.82,251.17 306.81,307.6z"/>
   <path className="fil2" d="M3968.93 6590.16c246.77,-279.86 434.73,-322.82 360.71,-848.03 -16.24,-115.31 -47.8,-141.17 -113.43,-210.8 -157.32,-166.9 -244.32,-339.91 -548.7,-431.18 -1.15,435.24 -93.51,671.14 110.67,1188.12 161.44,408.77 100.23,276.61 190.75,301.89z"/>
   <path className="fil2" d="M10271.06 7293.35c-188.45,73.85 -365.19,-103.9 -457.33,-197.63 -104.01,-105.82 -183.63,-247.56 -242.49,-427.73 -150.83,-461.79 -115.76,-753.26 -166.37,-1220.15 -466.17,159.23 -176.86,902.18 -41.17,1286.54 126.8,359.19 315.64,971.82 595.45,1070.2 109.62,-62.67 269.4,-306.81 311.91,-511.23z"/>
   <path className="fil2" d="M4715.18 7325.24c78.52,207.08 200,461.27 396.77,498.38 191.02,-147.04 403.36,-720.68 517.48,-1060.14 162.31,-482.84 309.39,-786.07 126.27,-1252.1l-192.99 -44.87c62.94,298.28 -34.85,909.42 -135.32,1200.59 -122.2,354.17 -304.53,678.37 -712.21,658.14z"/>
   <path className="fil2" d="M11766.15 5102.72c1.42,130.65 81.25,409.85 111.08,568.61 38,202.24 24.63,386.11 10.21,583.2 22.72,109.51 50.53,108.48 130.89,187.87 69.97,69.14 83.17,89.08 175.69,160.87 140.74,-361.42 179.25,-908.19 125.07,-1304.58 -17.13,-147.86 -102.38,-238.19 -233.1,-301.12 -161.71,-12.52 -224.65,18.24 -319.84,105.15z"/>
   <path className="fil2" d="M2666.06 5317.37c-36.49,521.79 5.3,811.51 127.4,1286.3 175.12,-22.14 244.16,-176.73 339.3,-339.82 -138.79,-254.57 48.98,-871.81 114.64,-1136.52 -283.59,-162 -508.89,-169.33 -581.34,190.04z"/>
   <path className="fil2" d="M11759.82 4432.35c117.2,80.97 325.66,79.88 466.4,51.78 204.81,-115.57 194.03,-1366.25 -140.41,-1195.56 -146.23,129.71 -216.04,297.91 -310.54,484.29 -114.06,224.95 -129.72,432.62 -15.45,659.49z"/>
   <path className="fil2" d="M3262.22 4450.46c75.06,-350.12 61.81,-578.43 -183.4,-919.89l-145.89 -226.45c-147.14,-59.81 -164.17,-4.87 -214.15,124.36 -114.91,297.08 -115.29,806.86 28.58,1070.55 209.86,47.74 324.73,33.25 514.86,-48.57z"/>
   <path className="fil2" d="M2303.03 6041.24c71.1,-182.78 46.46,-586.92 0.93,-756.52 -29.96,-113.81 -48.2,-179.91 -98.87,-241.22 -476.83,-32.08 -398.24,914.91 -316.49,1298.56 205.75,-44.14 337.15,-164.4 414.43,-300.82z"/>
   <path className="fil2" d="M12690.27 5281.51c-59.99,205.01 -19.72,464.11 -24.58,704.54 41.19,174.05 317.64,316.34 453.13,338.54 11.49,-232.37 163.71,-1343.86 -256.72,-1308.02 -118.97,57.86 -124.98,102.18 -171.83,264.94z"/>
   <path className="fil2" d="M3968.93 6590.16c-90.52,-25.28 -29.31,106.88 -190.75,-301.89 -204.18,-516.98 -111.82,-752.88 -110.67,-1188.12 -380.17,97 -307.27,925.46 -208.01,1291.91 132.82,490.37 267.93,398.59 509.43,198.1z"/>
   <path className="fil2" d="M11072.41 6594.73c75.69,111.62 127.57,133.67 272.75,140.54 403.46,-427.17 352.71,-1745.06 -70.31,-1633.55 155.73,131.37 94.18,598.94 52.51,798.12 -60,286.84 -175.56,464.82 -254.95,694.89z"/>
   <path className="fil2" d="M2601.65 4748.64l-216.87 -603.2c-68.65,-92.38 -227.82,-246.13 -409.96,-257.89 -56.23,249.07 72.24,899.79 339.23,1100.48 170,-33.18 225.12,-107.76 287.6,-239.39z"/>
   <path className="fil2" d="M12634.03 4134.05l-213.43 602.4c15.43,168.89 101.78,218.54 315.42,234.63 185.73,-285.85 316.59,-658.91 304.03,-1108.07 -218.13,30.44 -320.73,131.22 -406.02,271.04z"/>
   <path className="fil2" d="M7196.71 6902.91c-154.17,62.2 -22.46,16.16 -134.58,93.88 -464.12,321.67 -672.44,28.69 -889.16,-82.67 81.09,275.89 228.36,767.73 515.07,763.36 263.47,-4.02 431.86,-484.27 508.67,-774.57z"/>
   <path className="fil2" d="M8816.33 6901.93c-139.11,81.56 -292.67,242.97 -540.03,225.03 -197.56,-14.33 -359.23,-174.65 -483.09,-245.07 107.68,319.47 208.53,628.39 447.5,768.73 361.42,54.04 493.84,-411.48 575.62,-748.69z"/>
   <path className="fil2" d="M4092.41 4289.09c-389.38,-379.07 -246.37,-916.71 -204.53,-1483.16 -168.9,38.64 -217.38,111.03 -270.6,286.96 -50.04,165.44 -69.78,357.2 -53.73,533.23 36.82,403.77 162.01,607.84 528.86,662.97z"/>
   <path className="fil2" d="M10947.77 4275.61c324.29,-96.81 446.48,-282.38 486.01,-649.71 18.33,-170.39 3.03,-374.31 -48.2,-535.9 -63.52,-200.36 -65.38,-273.82 -277.31,-302.1 62.58,754.03 181,841.63 -160.5,1487.71z"/>
   <path className="fil2" d="M1937.51 4963.99c-65.97,-117.6 -91.69,-271.63 -148.76,-391.74 -60.21,-126.74 -128.14,-223.92 -192.6,-354.58 -42.16,-89.43 -96.12,-110.02 -216.5,-128.8 -16.66,401.08 73.13,905.36 369.95,1057.24 101.65,-45.61 133.76,-87.26 187.91,-182.12z"/>
   <path className="fil2" d="M13391.09 4231c-110.74,197.34 -283.13,484.37 -310.1,729.31 31.1,139.93 47.85,118.99 203.54,169.55 83.51,-61.47 204.95,-263.11 262.18,-431.87 75.63,-223.04 88.5,-396.7 70.19,-632.31 -104.61,18.09 -204.38,92.36 -225.81,165.32z"/>
   <path className="fil2" d="M3262.22 4450.46c503.7,-180.65 260.3,-522.28 242.97,-600.49 -59.47,-268.45 -20.66,-203.19 -201.71,-333.48 -127.23,-91.55 -192.2,-153.27 -370.55,-212.37l145.89 226.45c245.21,341.46 258.46,569.77 183.4,919.89z"/>
   <path className="fil2" d="M11759.82 4432.35c-114.27,-226.87 -98.61,-434.54 15.45,-659.49 94.5,-186.38 164.31,-354.58 310.54,-484.29 -281.09,70.09 -516.34,229.32 -586.03,526.93 -27.79,118.67 -280.37,469.98 260.04,616.85z"/>
   <path className="fil2" d="M13494.01 5882.06c0.2,76.08 -18.76,23.54 18.33,79.81 131.06,-40.77 152.21,-93.77 229.55,-397.74 63.89,-251.09 57.79,-302.33 -14.96,-509l-124 -30.2c-50.08,342.48 -216.25,425.19 -108.92,857.13z"/>
   <path className="fil2" d="M7306.78 4221.71c242.68,-184.69 133.69,-1003.52 33.91,-1249.59 -54.8,-135.14 -94.15,-218.22 -193.99,-308.02 72.52,599.23 205.28,886.78 160.08,1557.61z"/>
   <path className="fil2" d="M1510.8 5927.66c35.36,-231.07 17.82,-620.1 -102.35,-793.17 -42.98,-61.92 8.85,-27.59 -67.05,-55.83 -254.57,136.65 -68.05,713.88 90.7,898.63l78.7 -49.63z"/>
   <path className="fil2" d="M7678.98 4202.51c-4.6,-490.6 31.54,-1102.56 186.54,-1550.72 -181.86,83.77 -262.39,423.88 -298.38,654.6 -25.47,163.27 -21.39,331.27 -6.72,495.71l118.56 400.41z"/>
   <path className="fil2" d="M3132.76 6263.85c181.42,-133.26 150.12,-262.99 147.19,-451.71 -4.08,-263.47 42.1,-332.69 82.9,-561.93l-115.45 -122.88c-65.66,264.71 -253.43,881.95 -114.64,1136.52z"/>
   <path className="fil2" d="M11887.44 6254.53c14.42,-197.09 27.79,-380.96 -10.21,-583.2 -29.83,-158.76 -109.66,-437.96 -111.08,-568.61l-121.83 146.08c48.83,220.93 80.53,311.27 74.9,563.61 -4.57,204.79 -2.1,356.14 168.22,442.12z"/>
   <path className="fil2" d="M1510.8 5927.66c158.61,-97.78 263.11,-367.09 229.88,-645.32 -276.69,-217.32 -234.91,-319.06 -399.28,-203.68 75.9,28.24 24.07,-6.09 67.05,55.83 120.17,173.07 137.71,562.1 102.35,793.17z"/>
   <path className="fil2" d="M2303.96 5284.72c45.53,169.6 70.17,573.74 -0.93,756.52 210.08,-149.9 138.05,-159.77 178.77,-463.68 28.98,-216.34 90.56,-289.74 138.27,-459.36l-270.27 -31.1 -8.63 119.37c-2.32,7.54 -7.2,18.98 -9.83,26.02 -2.74,7.37 -10.25,20.07 -12.84,26.14 -2.66,6.22 -8.46,18.21 -14.54,26.09z"/>
   <path className="fil2" d="M13494.01 5882.06c-107.33,-431.94 58.84,-514.65 108.92,-857.13 -220.75,32.15 -52.92,115.51 -347.67,214.03 -18.99,313.6 25.41,496.12 238.75,643.1z"/>
   <path className="fil2" d="M12665.69 5986.05c4.86,-240.43 -35.41,-499.53 24.58,-704.54 -6.32,-7.08 -12.3,-29.86 -14.04,-24.79 -1.74,5.07 -10.5,-19.27 -12.75,-25.5 -2.27,-6.27 -7.74,-18.99 -10.35,-26.8l-29.67 -111.21c-1.73,-6.14 -3.53,-18.58 -8.3,-26.52l-216.88 22.31c-10.9,66.14 94.71,306 113.27,426.91 14.11,91.97 14.9,175.65 25.06,261.9 19.14,162.55 33.25,147.31 129.08,208.24z"/>
   <path className="fil2" d="M2793.46 6603.67c-122.1,-474.79 -163.89,-764.51 -127.4,-1286.3 -162.13,228.79 -151.19,1132.94 36.04,1359.69 125.3,-35.27 59.37,-24.31 91.36,-73.39z"/>
   <path className="fil2" d="M12194.02 6603.27l134.95 55.51c72.21,-319.59 242.33,-1121.19 -9.88,-1360.09 54.18,396.39 15.67,943.16 -125.07,1304.58z"/>
   <path className="fil2" d="M7869.49 5611.59c433.93,-39.15 796.04,310.65 903.28,-92.05 -199.21,81.09 -177.96,110.92 -441.25,30.11 -123.69,-37.96 -425.7,-90.64 -462.03,61.94z"/>
   <path className="fil2" d="M1937.51 4963.99c5.38,-5.31 14.29,-20.92 16.18,-15.9 5.41,14.4 78.56,-71.75 63.02,-181.27 -1.6,-11.3 -73.38,-218.79 -80.47,-234 -64.84,-139.09 -194.43,-238.21 -340.09,-315.15 64.46,130.66 132.39,227.84 192.6,354.58 57.07,120.11 82.79,274.14 148.76,391.74z"/>
   <path className="fil2" d="M6223.71 5539.08l54.44 185.23c243.9,34.07 220.36,5.64 438.48,-63.12 130.16,-41.02 326.88,-17.06 424.02,-54.25 -447.86,-251.81 -568.29,181.45 -916.94,-67.86z"/>
   <path className="fil2" d="M13080.99 4960.31c26.97,-244.94 199.36,-531.97 310.1,-729.31 -126.16,65.83 -635.76,481 -310.1,729.31z"/>
   <path className="fil2" d="M12420.6 4736.45l213.43 -602.4c-122.46,60.2 -172.6,99.1 -234.4,265.03 -53.83,144.53 -135.78,230.06 20.97,337.37z"/>
   <path className="fil2" d="M2601.65 4748.64c154.68,-123.52 54.84,-171.43 2.62,-318.83 -69.93,-197.38 -49.19,-209.04 -219.49,-284.37l216.87 603.2z"/>
  </g>
 </g>
</svg>
