<?xml version="1.0" encoding="UTF-8"?>
<!DOCTYPE svg PUBLIC "-//W3C//DTD SVG 1.0//EN" "http://www.w3.org/TR/2001/REC-SVG-20010904/DTD/svg10.dtd">
<!-- Creator: CorelDRAW 2020 (64-Bit) -->
<svg xmlns="http://www.w3.org/2000/svg" xml:space="preserve" width="150mm" height="100mm" version="1.0" style="shape-rendering:geometricPrecision; text-rendering:geometricPrecision; image-rendering:optimizeQuality; fill-rule:evenodd; clip-rule:evenodd"
viewBox="0 0 15000 10000"
 xmlns:xlink="http://www.w3.org/1999/xlink"
 xmlns:xodm="http://www.corel.com/coreldraw/odm/2003">
 <defs>
  <style type="text/css">
   <![CDATA[
    .fil0 {fill:#5D6A79}
    .fil1 {fill:#F1F1F2}
   ]]>
  </style>
 </defs>
 <g id="Capa_x0020_1">
  <metadata id="CorelCorpID_0Corel-Layer"/>
  <g id="_2036089078016">
   <path className="fil0" d="M3885 5949.79l-26.19 45.38 -31.2 37.74 -25.63 38.62 -150.88 54.81c-348.61,-262.14 -448.57,-1534.08 -33.04,-1869.2 235.92,18.57 339.51,139.15 471.16,247.59 159.47,100.42 170.84,87.02 197.54,329.49 48.46,440.1 87.47,456.63 -148.79,836.64 -106.05,170.57 -88.32,176.1 -252.97,278.93zm7199.97 -1.07c-61.39,0 -46.92,12.7 -27.62,-49.07l-230.98 -301.62c-208.69,-328.15 -251.64,-866.93 117.8,-1094.04l31.97 -50.27c79.54,-103.8 332.7,-285.85 476.67,-154.35 230.5,210.53 333.48,1383.63 -108.92,1816.04 -171.84,-43.09 -176.12,-58.68 -258.92,-166.69zm-3902.85 181.52c-63.52,255.11 -318.9,619.36 -657.64,497.76 -230.22,-82.64 -371.34,-499.5 -428.53,-793.58 -71.26,-192.7 -179.51,-867.12 -169.94,-1073.43 21.3,-459.3 569.63,-331.81 938.05,-335.62 568.48,-5.88 635.77,107.47 559.9,692.03 -44.13,339.92 -94.28,727.82 -241.84,1012.84zm1708.6 -229.71c-33.83,123.1 -96.13,327.73 -145.84,425.72 -46.38,91.44 -199.53,263.72 -276.46,292.95 -311.29,118.26 -591.97,-260.43 -646.27,-507.16 -149.83,-195.88 -219.38,-757.55 -252.43,-1029.73 -74.57,-614.22 19.16,-674.33 599.07,-671.48 420.65,2.06 910.22,-126.56 902.03,386.43 -5.3,331.52 -106.46,797.11 -180.1,1103.27zm-3438.04 -1476.18c260.03,-11.17 363.08,43.56 374.03,302.87 7.48,177.31 61.94,445.92 -34.44,582.86 1,195.38 -83.7,640.67 -180.03,794.49 -47.09,190.75 -85.47,300.49 -184.64,467.35 -99.81,167.92 -138.12,286.3 -398.43,269.9 -203,-115.11 -328.23,-364.92 -391.81,-648.71 -123.05,-240.35 -290,-1358.12 -253.75,-1640.93 153.83,-179.96 240.24,-132.75 504.16,-131.64 183.88,0.78 384.83,-5.83 564.91,3.81zm7836.77 545.12l30.2 31.26c55.09,143.11 11.45,140.11 153.63,188.91 26.59,-144.9 -8.51,-59.14 -19.23,-139.82 -15.95,-120.01 -44.69,-39.71 17.44,-121.08 183.46,154.28 404.8,494.3 278.28,799.51 -100.58,136.44 -271.12,-58.51 -319.91,-122.33 -75.48,-98.74 -118.85,-285.06 -131.81,-431.25 -73.12,-70.38 -107.22,-198.38 -133.18,-276.68 79.1,34.9 76.09,36.01 124.58,71.48zm-10916.78 589.43c-60.64,120.19 -339.52,373.18 -569.5,395.55l-63.37 13.06c-49.07,-76.45 -52.01,-77.04 -41.91,-215.22l134.5 -549.7c79.48,-238.51 154.86,-461.85 389.9,-523.87l173.08 11.76 148.16 25.33 -75.04 753.59c-45.97,30.68 -61.62,53.66 -95.82,89.5zm-1114.59 185.53c-161.79,-219.84 95.05,-593.95 151.88,-764.6l91.86 0.27 42.31 -38.99 45.73 22.42c-29.85,71.54 -89.1,129.52 -53.19,222.29 219.37,-58.69 1.74,-168.93 272.7,-265.52 -38.37,188.51 -150.46,649.62 -321.42,784.94 -239.96,189.93 -228.66,41.55 -229.87,39.19zm11344.16 -1049.21l20.7 7.06c70.02,-43.74 77,-34 152.98,-31.98 264.8,71.57 277.25,231.91 380.11,505.16 73.66,195.67 162.52,498.86 134.83,713.29 -139.92,240.09 -607.25,-274.02 -693.91,-327.51 -111.79,-138.75 -74.84,-295.79 -100.12,-513.46 -29.83,-256.82 -127.67,-315.39 105.41,-352.56zm-2246.12 1489.69c-43.43,267.96 -221.18,686.84 -483.42,649.45 -225.47,-32.14 -384.26,-396.2 -472.93,-653.54 -85.33,-270.06 -199.26,-621.98 -211.72,-916.05 -57.4,-170.86 -29.84,-407.78 -15.95,-603.07 16.97,-238.76 124.42,-249.91 353.95,-258.54 264.09,7.37 536.61,-8.15 797.29,2.38 345.22,13.94 311.35,165.98 281.12,463.52 -28.85,283.86 -123.78,1103.16 -248.34,1315.85zm1595.45 -1692.13c60.91,-36.99 19.74,-55.49 124.02,-5.28 272.88,39.43 297.73,314.9 326.87,630.32 23.01,249.13 53.46,601.46 -57.45,792.24 -142.05,-3.16 -323.25,-136.87 -373.79,-245.04l-158.46 -207.82c-82.31,-144.89 -62.55,-138.87 -62.55,-305.23 0,-311.79 -46.96,-443.96 -41.41,-565.91l10.71 -58.28c124.75,-42.01 97.54,-46.57 232.06,-35zm-8946.43 1180.61l-21.71 39.29c-82.25,87.44 -169.93,215.38 -336.93,201.67 -123.73,-236.32 -68.1,-629.02 -38.63,-894.53 32.38,-291.71 101.61,-562.92 421.4,-538.75l283.72 60.46c-44.54,266.25 -64.67,372.49 -65.52,646.03 -0.83,266.82 -106.66,354.81 -242.33,485.83zm10277.35 -842.43l-48.32 -22.75c-130.83,-4.37 -146.39,10.07 -177.82,-97.14 -21.68,-73.95 19.31,-106.59 54.68,-187.72 86.36,-198.06 54.87,-199.21 207.08,-326.93 -11.76,-48.57 -20.26,-35.28 31.18,-35.28 114.38,-82.65 181.24,-160.32 349.82,-165.53 53.48,166.54 -13.26,356.98 -90.12,528.69 -84.87,189.62 -113.27,305.97 -326.5,306.66zm-5505.92 -1124.04c272.74,-633.73 1700.8,-886.98 1846.77,270.96l34.79 331.89c-298.12,-9.03 -423.79,-12.93 -562.59,159.61 -79.54,-118.56 -109.63,-79.69 -254.76,-164.48l-526.43 2.27c-173.15,4.55 -453.17,-18.25 -598.15,37.97 -138.06,53.54 -105.81,117.09 -140.1,68.58 -6.42,-9.08 -21.68,11.66 -33,16.43 38.68,-246.24 83.4,-555.66 233.47,-723.23zm-2399.16 276.28c47.44,-424.84 343,-772.1 783.47,-799.96 371.3,-23.48 770.11,129.8 982.26,419.43 85.1,116.19 27.7,15.7 68.52,116.61 162.49,153.43 209.47,472.25 235.21,718.52 -314.07,-174.69 -337.14,-91.47 -729.83,-121.52l-667.91 7.97c-65.66,103.2 -72.34,72.66 -131.89,159.93l-242.48 -149.85c-101.8,-26.27 -237.02,-13.33 -345.91,-9.88l48.56 -341.25zm-3766.68 146.21l26.81 38.3 29.98 40.93c177.38,52.9 129.47,106.55 216.57,317.43 24.37,59.02 72.63,142.07 61.83,194.87 -24.1,117.91 -39.5,109.33 -171.22,88.95 -206.97,108.08 -283.14,-48.9 -369.31,-231.15 -74.02,-156.54 -185.57,-412.06 -88.5,-573.21 127.59,6.14 206.14,65.44 293.84,123.88zm10075.49 -187.07c631.35,-450.84 745.56,-235.3 663.49,540.31 -113.6,-12.8 -22.16,1.87 -135.68,-58.89 -61.87,-33.12 -26.47,-24.84 -113.64,-53.6 -174.57,-11.29 -312.08,32.62 -452.2,73.09 -50.59,-120.04 -123.11,-220.26 -152.14,-314.41l190.17 -186.5zm-8712.23 430.86l-253.09 65.87 -66.9 76.49 -19.46 -98.39c-17.19,-239.33 -28.25,-466.16 71.51,-675.13 202.53,-51.21 365.73,21.04 511.3,147.73l44.37 37.5 40.73 20.56c101.68,76.45 133.53,73.71 203.13,174.45 -24.39,128.19 -84.36,198.82 -168.48,319.77l-363.11 -68.85zm9886.54 202.73c-170.02,-9.71 -289.99,15.57 -436,46.55 50.72,-247.08 147.88,-403.45 321.65,-500.62 -10.6,-57.78 -26.01,-47.15 26.93,-46.92l30.61 -39.38 33.29 -36.63 39.88 -27.29 41.24 -45.77c188.63,-194.25 243.37,25.5 206.3,220.03 -31.8,166.87 -103.02,324.22 -167.6,476.33l-96.3 -46.3zm-9049.2 -782.56l34.57 -23.42c257.28,-34.99 463.46,-33.55 713.27,52.58 107.3,36.99 209.62,84.72 284.01,140.61 86.18,64.75 96.29,103.75 196.58,185.17l74.24 80.63c47.3,70.28 9.32,14.58 49.99,100.4 -173.41,-11.84 -383.03,-16.67 -556.51,-6.58 -214.62,12.48 -249.07,39.47 -309.03,209.38 -95.78,-86.18 -140.42,-122.47 -219.64,-190.32 -111.82,-59.01 -201.52,-142.39 -364.93,-179.02l-106.25 -33.96c39.57,-198.05 85.43,-230.03 203.7,-335.47zm-1525.32 323.65c50.75,0 36.51,-10.43 25.93,44.22l16.71 55.55c125.01,50.28 83.23,44.24 156.62,164.7 66.56,109.26 57.65,121.25 95.83,255.37 -114.87,-20.93 -233.91,-47.39 -374.81,-53.42l-179.45 45.7c-67.97,-214.42 -212.98,-480.89 -155.09,-722.2 108.23,-58.02 132.15,-19.5 143.65,-17.06 109.04,23.14 213.58,147.61 270.61,227.14zm8952.22 30.76c-58.45,37.36 -115.1,59.66 -170.05,91.46 -71.25,41.23 -104.17,71.77 -168.48,114.49l-152.21 161.44c-139.98,-110.55 -57.89,-179.55 -355.07,-204.75 -181.69,-15.41 -369.41,12.02 -547.92,-14.01 43.77,-112.68 51.5,-90.92 139.24,-155.47 24.68,-47.61 4.42,-14.56 41.66,-62.02 245.97,-313.56 921.86,-441.95 1109.65,-294.17l51.08 44.38 104.19 2.91 112.44 318.88c-173.51,-26.76 -23.2,-20.16 -164.53,-3.14zm-3768.95 1401.66l37.44 -115.27 24.82 110.12c117.36,1111.23 1159.41,2090.78 1565.35,-35.32 180.28,485.7 260.3,1387.72 770.79,1438.43 546.95,54.34 699.28,-1078.69 766.01,-1442.98 218.61,249.45 370.06,753.87 789.76,707.67 113.59,-139.67 255.82,-385.74 289.29,-653.54l296.03 304.71c263.15,247.37 478.8,229.38 516.22,-191.8 64.26,37.37 28.26,15.48 77.53,50.89l119.26 99.51c89.31,76.92 81.11,66.99 164.14,117.28 290.6,176 513.42,238.13 524.96,-164.25 157.86,68.51 370.8,230.15 461.23,-36.24 118.82,-350.04 -172.43,-725.57 -306.69,-904.25 147.51,-239.14 350.05,-589.26 216.41,-920.03 -208.59,-64.3 -364.27,55.65 -497.67,147.62l-26.65 -80.51c-9.08,-31.3 -10.62,-50.13 -21.6,-84.98 -18.57,-58.87 -32.35,-84.28 -54.45,-119.4 -351.61,-84.49 -546.32,241.54 -691.9,408.09 -19.55,-243.46 -34.41,-411.8 -133.09,-564.87 -485.26,-79.9 -602.54,193.06 -871.47,338.43 -111.48,-128.14 -148.39,-462.31 -925.69,-295.49 -353.77,75.92 -654.55,307.19 -762.86,505.67 -47.1,-73.41 -68.32,-297.75 -121.17,-453.24 -348.98,-1026.67 -1827.56,-816.9 -2149.74,255.12l-34.64 75.92 -23.84 -67.52c-115.31,-505.74 -605.24,-908.77 -1238.59,-913.33 -714.4,-5.14 -893.47,482.06 -1001.75,1118.02 -176.58,-228.45 -420.27,-440.98 -801.22,-518.79 -755.05,-154.23 -793.89,173.88 -913.28,301.39 -71.95,-85.39 -406.85,-324.3 -615.17,-354.53 -370.06,-53.71 -371.76,243.34 -389.93,576.16 -193.95,-157.08 -322.09,-497.21 -727.29,-403.63l-34.84 299.99c-200.91,-88.18 -302.56,-292.2 -546.52,-119.96 -116.88,347.77 140.82,669.24 239.98,918.01 -323.43,192.29 -624.99,1328.06 133.49,910.45 78.08,219.06 37.7,434.91 438.06,221.48 225.74,-120.34 293.53,-185.14 443.89,-323.87 56.72,168.78 47.17,221.39 140.33,338.91 333.22,35.94 526.72,-295.1 671.06,-448.61 188.84,466.37 278.64,1045.19 863.55,292.42 94.99,-122.24 153.49,-256.32 230.06,-349.37 129.85,463.48 227.9,1489.42 773.71,1434.93 457.53,-45.67 634.98,-968.54 764.44,-1444.82 120.14,505.31 238.22,1292.08 790.14,1243.95 452.72,-39.47 720.7,-724.2 782.1,-1208.57z"/>
   <path className="fil1" d="M9188.05 5264.77c12.46,294.07 126.39,645.99 211.72,916.05 143.43,51.79 419.26,287.79 739.79,165.83 90.96,-34.61 151.36,-112.5 216.56,-161.74 124.56,-212.69 219.49,-1031.99 248.34,-1315.85 30.23,-297.54 64.1,-449.58 -281.12,-463.52 -260.68,-10.53 -533.2,4.99 -797.29,-2.38 -175.09,145.71 -332.2,502.82 -338,861.61z"/>
   <path className="fil1" d="M4637.36 6193.11l109.15 90.1c288.26,210.16 692.65,17.88 798.24,-85.27l67.49 -93.37c96.33,-153.82 181.03,-599.11 180.03,-794.49 31.58,-272.15 -31.41,-508.66 -186.65,-734.74l-152.94 -150.99c-180.08,-9.64 -381.03,-3.03 -564.91,-3.81 -263.92,-1.11 -350.33,-48.32 -504.16,131.64 -36.25,282.81 130.7,1400.58 253.75,1640.93z"/>
   <path className="fil1" d="M7961.44 4666.31c77.24,-53.61 227.76,-75.94 359.41,-106.91 151.4,-35.61 230.61,1.11 373.88,15.04l-93.67 60.02c-11.66,5.19 -74.73,20.04 -86.1,23.12 -49.48,13.4 -121.1,36.91 -169.48,46.68 -152.08,30.73 -242.24,-1.8 -384.04,-37.95zm-139.29 1445.73c581.2,425.11 792.15,-135.82 1068.57,-211.51 73.64,-306.16 174.8,-771.75 180.1,-1103.27 8.19,-512.99 -481.38,-384.37 -902.03,-386.43 -579.91,-2.85 -673.64,57.26 -599.07,671.48 33.05,272.18 102.6,833.85 252.43,1029.73z"/>
   <path className="fil1" d="M7035.41 4620.5c-174.85,174.36 -612.53,62.18 -719.21,-33.39 342.06,-74.38 384.93,19.27 719.21,33.39zm-939.46 1213.92l456.58 371.04c254.08,108.77 424.01,26.91 629.59,-75.22 147.56,-285.02 197.71,-672.92 241.84,-1012.84 75.87,-584.56 8.58,-697.91 -559.9,-692.03 -368.42,3.81 -916.75,-123.68 -938.05,335.62 -9.57,206.31 98.68,880.73 169.94,1073.43z"/>
   <path className="fil1" d="M7776.57 3706.92c46.95,437.43 241.75,408.19 537.78,600.25l526.43 -2.27c274.66,40.11 560.22,-126.38 749.55,-227.61l33.01 -99.41c-145.97,-1157.94 -1574.03,-904.69 -1846.77,-270.96z"/>
   <path className="fil1" d="M5377.41 3983.2l19.17 97.81c96.04,53.43 164.72,100.77 303.7,151.11 115.74,41.93 249.32,56.47 348.85,92.13l667.91 -7.97c92.52,-80.8 197.31,-128.48 310.96,-234.55 106.98,-99.84 195.15,-166.8 183.66,-362.45 -40.82,-100.91 16.58,-0.42 -68.52,-116.61 -212.15,-289.63 -610.96,-442.91 -982.26,-419.43 -440.47,27.86 -736.03,375.12 -783.47,799.96z"/>
   <path className="fil1" d="M10976.14 4453.72l-31.97 50.27c-187.85,409.8 66.06,988.63 113.18,1395.66l27.62 49.07c82.8,108.01 87.08,123.6 258.92,166.69 442.4,-432.41 339.42,-1605.51 108.92,-1816.04 -143.97,-131.5 -397.13,50.55 -476.67,154.35z"/>
   <path className="fil1" d="M3801.98 6071.53l25.63 -38.62 31.2 -37.74 26.19 -45.38c243.45,-359.5 203.83,-1011.42 204.22,-1445.06 -131.65,-108.44 -235.24,-229.02 -471.16,-247.59 -415.53,335.12 -315.57,1607.06 33.04,1869.2l150.88 -54.81z"/>
   <path className="fil1" d="M11971.22 5665.02c50.54,108.17 231.74,241.88 373.79,245.04 110.91,-190.78 80.46,-543.11 57.45,-792.24 -29.14,-315.42 -53.99,-590.89 -326.87,-630.32l-124.02 5.28c28.45,187.95 -23.56,395.02 -24.65,588.58 -1.2,211.78 30.24,384.31 44.3,583.66z"/>
   <path className="fil1" d="M2983.43 5712.68l21.71 -39.29c112.56,-412.86 49.93,-766.34 24.13,-1192.32 -319.79,-24.17 -389.02,247.04 -421.4,538.75 -29.47,265.51 -85.1,658.21 38.63,894.53 167,13.71 254.68,-114.23 336.93,-201.67z"/>
   <path className="fil1" d="M3845.9 3769.95l-34.57 23.42c-31.96,116.48 -116.2,270.31 -97.45,369.43 163.41,36.63 253.11,120.01 364.93,179.02 150.61,-122.68 708.45,-180.94 960.95,-193.51 -100.29,-81.42 -110.4,-120.42 -196.58,-185.17 -74.39,-55.89 -176.71,-103.62 -284.01,-140.61 -249.81,-86.13 -455.99,-87.57 -713.27,-52.58z"/>
   <path className="fil1" d="M9983.74 4140.94c143.59,4.44 314.19,49.72 466.23,67.09 84.29,9.64 170.82,11.9 255.31,26.75 155.2,27.28 145.17,16.06 194.42,118.95 64.31,-42.72 97.23,-73.26 168.48,-114.49 54.95,-31.8 111.6,-54.1 170.05,-91.46l-52.1 -318.65c-71.74,24.32 -51.08,34.27 -51.08,-44.38 -187.79,-147.78 -863.68,-19.39 -1109.65,294.17 -37.24,47.46 -16.98,14.41 -41.66,62.02z"/>
   <path className="fil1" d="M12596.95 5561.24c86.66,53.49 553.99,567.6 693.91,327.51 -57.47,-76.89 -61.99,-119.76 -101.56,-218.1 -8.22,-20.43 -44.8,-107.74 -53.89,-125.19 -34.96,-67.1 -11.24,-36.81 -51.87,-75.49 -109.5,-68.45 -43.07,-17.88 -114.51,-180.45l-302.69 -475.89 75.82 -40.06 33.76 -103.27 -152.98 31.98 -20.7 -7.06c3.73,164.39 -36.64,294.02 -40.01,456.74 -3.03,146.28 24.26,266.62 34.72,409.28z"/>
   <path className="fil1" d="M2315.23 4792.39c87.15,106.68 24.58,61.85 3.85,91.13 -99.73,98.11 -287.42,343.84 -311.61,534.03l-40.25 59.25c-136.7,70.45 -80.86,27.5 -155.44,196.31 -58.48,132.38 -79.89,149.24 -71.98,294.4l63.37 -13.06c229.98,-22.37 508.86,-275.36 569.5,-395.55 122.43,-267.21 33.64,-589.95 22.7,-868.42l-173.08 -11.76 92.94 113.67z"/>
   <path className="fil1" d="M2634.54 4417.17l20.4 72.73 65.96 -50.83 253.09 -65.87c196.55,-136.43 309.1,-119.81 328.46,-425.37l-40.73 -20.56c-57.3,2.97 -44.37,17.48 -44.37,-37.5 -145.57,-126.69 -308.77,-198.94 -511.3,-147.73 -99.76,208.97 -88.7,435.8 -71.51,675.13z"/>
   <path className="fil1" d="M11686.22 3942.34c36.66,296.81 182.31,324.37 414.17,427.82 87.17,28.76 51.77,20.48 113.64,53.6 113.52,60.76 22.08,46.09 135.68,58.89 82.07,-775.61 -32.14,-991.15 -663.49,-540.31z"/>
   <path className="fil1" d="M7182.12 6130.24c-205.58,102.13 -375.51,183.99 -629.59,75.22l-456.58 -371.04c57.19,294.08 198.31,710.94 428.53,793.58 338.74,121.6 594.12,-242.65 657.64,-497.76z"/>
   <path className="fil1" d="M7822.15 6112.04c54.3,246.73 334.98,625.42 646.27,507.16 76.93,-29.23 230.08,-201.51 276.46,-292.95 49.71,-97.99 112.01,-302.62 145.84,-425.72 -276.42,75.69 -487.37,636.62 -1068.57,211.51z"/>
   <path className="fil1" d="M4637.36 6193.11c63.58,283.79 188.81,533.6 391.81,648.71 260.31,16.4 298.62,-101.98 398.43,-269.9 99.17,-166.86 137.55,-276.6 184.64,-467.35l-67.49 93.37c-105.59,103.15 -509.98,295.43 -798.24,85.27l-109.15 -90.1z"/>
   <path className="fil1" d="M10356.12 6184.91c-65.2,49.24 -125.6,127.13 -216.56,161.74 -320.53,121.96 -596.36,-114.04 -739.79,-165.83 88.67,257.34 247.46,621.4 472.93,653.54 262.24,37.39 439.99,-381.49 483.42,-649.45z"/>
   <path className="fil1" d="M2206.29 4583.44l186.89 -12.62 -64.53 -354.03 -16.71 -55.55 -25.93 -44.22c-57.03,-79.53 -161.57,-204 -270.61,-227.14 -11.5,-2.44 -35.42,-40.96 -143.65,17.06 -57.89,241.31 87.12,507.78 155.09,722.2l179.45 -45.7z"/>
   <path className="fil1" d="M1774.7 4809.89l-107.18 -601.25 -29.98 -40.93 -26.81 -38.3c-87.7,-58.44 -166.25,-117.74 -293.84,-123.88 -97.07,161.15 14.48,416.67 88.5,573.21 86.17,182.25 162.34,339.23 369.31,231.15z"/>
   <path className="fil1" d="M12918.13 3925.87c0,61.88 16.77,49.75 -41.24,45.77l-39.88 27.29 -33.29 36.63 -30.61 39.38 -26.93 46.92c-141.1,104.72 -126.83,243.33 -147.19,419.49 20.12,-1.36 103.8,-8.97 122.54,-6.8l106.56 26.13c10.04,3.05 21.55,10.33 32.44,15.25l96.3 46.3c64.58,-152.11 135.8,-309.46 167.6,-476.33 37.07,-194.53 -17.67,-414.28 -206.3,-220.03z"/>
   <path className="fil1" d="M13234.17 4808.21l48.32 22.75c213.23,-0.69 241.63,-117.04 326.5,-306.66 76.86,-171.71 143.6,-362.15 90.12,-528.69 -168.58,5.21 -235.44,82.88 -349.82,165.53l-31.18 35.28c-7.19,390.17 -117.92,159.68 64.65,562.42 -59.63,-90.47 -38.01,-112.81 -136.9,-222.9l-11.69 272.27z"/>
   <path className="fil1" d="M3885 5949.79l-26.19 45.38 -31.2 37.74 -25.63 38.62 25.63 -38.62 31.2 -37.74 26.19 -45.38c164.65,-102.83 146.92,-108.36 252.97,-278.93 236.26,-380.01 197.25,-396.54 148.79,-836.64 -26.7,-242.47 -38.07,-229.07 -197.54,-329.49 -0.39,433.64 39.23,1085.56 -204.22,1445.06z"/>
   <path className="fil1" d="M1544.13 4941.11c0,71.6 19.83,66.74 -42.31,38.99 -67.6,276.13 -257.47,362.12 -243.74,764.33 1.21,2.36 -10.09,150.74 229.87,-39.19 170.96,-135.32 283.05,-596.43 321.42,-784.94 -270.96,96.59 -53.33,206.83 -272.7,265.52 -35.91,-92.77 23.34,-150.75 53.19,-222.29l-45.73 -22.42z"/>
   <path className="fil1" d="M11057.35 5899.65c-19.3,61.77 -33.77,49.07 27.62,49.07l-27.62 -49.07c-47.12,-407.03 -301.03,-985.86 -113.18,-1395.66l31.97 -50.27 -31.97 50.27c-369.44,227.11 -326.49,765.89 -117.8,1094.04l230.98 301.62z"/>
   <path className="fil1" d="M13298.05 5174.67c12.96,146.19 56.33,332.51 131.81,431.25 48.79,63.82 219.33,258.77 319.91,122.33 -28.71,-397.65 -170.35,-517.07 -278.28,-799.51 -62.13,81.37 -33.39,1.07 -17.44,121.08 10.72,80.68 45.82,-5.08 19.23,139.82 -142.18,-48.8 -98.54,-45.8 -153.63,-188.91l-30.2 -31.26 -58.42 3.72 67.02 201.48z"/>
   <path className="fil1" d="M11971.22 5665.02c-14.06,-199.35 -45.5,-371.88 -44.3,-583.66 1.09,-193.56 53.1,-400.63 24.65,-588.58l124.02 -5.28c-104.28,-50.21 -63.11,-31.71 -124.02,5.28 -134.52,-11.57 -107.31,-7.01 -232.06,35l-10.71 58.28c-5.55,121.95 41.41,254.12 41.41,565.91 0,166.36 -19.76,160.34 62.55,305.23l158.46 207.82z"/>
   <path className="fil1" d="M3005.14 5673.39l-21.71 39.29 21.71 -39.29c135.67,-131.02 241.5,-219.01 242.33,-485.83 0.85,-273.54 20.98,-379.78 65.52,-646.03l-283.72 -60.46c25.8,425.98 88.43,779.46 -24.13,1192.32z"/>
   <path className="fil1" d="M6717.04 4316.28c392.69,30.05 415.76,-53.17 729.83,121.52 -25.74,-246.27 -72.72,-565.09 -235.21,-718.52 11.49,195.65 -76.68,262.61 -183.66,362.45 -113.65,106.07 -218.44,153.75 -310.96,234.55z"/>
   <path className="fil1" d="M8314.35 4307.17c-296.03,-192.06 -490.83,-162.82 -537.78,-600.25 -150.07,167.57 -194.79,476.99 -233.47,723.23 11.32,-4.77 26.58,-25.51 33,-16.43 34.29,48.51 2.04,-15.04 140.1,-68.58 144.98,-56.22 425,-33.42 598.15,-37.97z"/>
   <path className="fil1" d="M12775.92 4670.3l-33.76 103.27c56.36,109.55 51.93,60.78 125.61,159.71 31.77,42.66 87.64,133.57 111.25,170.82 52.01,82.06 200.01,286.01 104.52,365.87 40.63,38.68 16.91,8.39 51.87,75.49 9.09,17.45 45.67,104.76 53.89,125.19 39.57,98.34 44.09,141.21 101.56,218.1 27.69,-214.43 -61.17,-517.62 -134.83,-713.29 -102.86,-273.25 -115.31,-433.59 -380.11,-505.16 -75.98,-2.02 -82.96,-11.76 -152.98,31.98l152.98 -31.98z"/>
   <path className="fil1" d="M1739.8 5967.51l63.37 -13.06 -63.37 13.06c-7.91,-145.16 13.5,-162.02 71.98,-294.4 74.58,-168.81 18.74,-125.86 155.44,-196.31l40.25 -59.25 -40.25 59.25c-180.12,16 -44.76,16.99 -94.59,-42.68 34.67,-136.07 107.74,-272.63 173.15,-373.92 203.42,-314.99 139.52,-258.95 269.45,-267.81l3.85 91.13c20.73,-29.28 83.3,15.55 -3.85,-91.13l-92.94 -113.67c-235.04,62.02 -310.42,285.36 -389.9,523.87l-134.5 549.7c-10.1,138.18 -7.16,138.77 41.91,215.22z"/>
   <path className="fil1" d="M4078.81 4341.82c79.22,67.85 123.86,104.14 219.64,190.32 59.96,-169.91 94.41,-196.9 309.03,-209.38 173.48,-10.09 383.1,-5.26 556.51,6.58 -40.67,-85.82 -2.69,-30.12 -49.99,-100.4l-74.24 -80.63c-252.5,12.57 -810.34,70.83 -960.95,193.51z"/>
   <path className="fil1" d="M10899.7 4353.73c-49.25,-102.89 -39.22,-91.67 -194.42,-118.95 -84.49,-14.85 -171.02,-17.11 -255.31,-26.75 -152.04,-17.37 -322.64,-62.65 -466.23,-67.09 -87.74,64.55 -95.47,42.79 -139.24,155.47 178.51,26.03 366.23,-1.4 547.92,14.01 297.18,25.2 215.09,94.2 355.07,204.75l152.21 -161.44z"/>
   <path className="fil1" d="M3261.72 3927.27l40.73 20.56c-19.36,305.56 -131.91,288.94 -328.46,425.37l363.11 68.85c84.12,-120.95 144.09,-191.58 168.48,-319.77 -69.6,-100.74 -101.45,-98 -203.13,-174.45l-40.73 -20.56 -44.37 -37.5c0,54.98 -12.93,40.47 44.37,37.5z"/>
   <path className="fil1" d="M12100.39 4370.16c-231.86,-103.45 -377.51,-131.01 -414.17,-427.82l-190.17 186.5c29.03,94.15 101.55,194.37 152.14,314.41 140.12,-40.47 277.63,-84.38 452.2,-73.09z"/>
   <path className="fil1" d="M6049.13 4324.25c-99.53,-35.66 -233.11,-50.2 -348.85,-92.13 -138.98,-50.34 -207.66,-97.68 -303.7,-151.11l-19.17 -97.81 -48.56 341.25c108.89,-3.45 244.11,-16.39 345.91,9.88l242.48 149.85c59.55,-87.27 66.23,-56.73 131.89,-159.93z"/>
   <path className="fil1" d="M8840.78 4304.9c145.13,84.79 175.22,45.92 254.76,164.48 138.8,-172.54 264.47,-168.64 562.59,-159.61l-34.79 -331.89 -33.01 99.41c-189.33,101.23 -474.89,267.72 -749.55,227.61z"/>
   <path className="fil1" d="M9188.05 5264.77c5.8,-358.79 162.91,-715.9 338,-861.61 -229.53,8.63 -336.98,19.78 -353.95,258.54 -13.89,195.29 -41.45,432.21 15.95,603.07z"/>
   <path className="fil1" d="M5792.27 5310.08c96.38,-136.94 41.92,-405.55 34.44,-582.86 -10.95,-259.31 -114,-314.04 -374.03,-302.87l152.94 150.99c155.24,226.08 218.23,462.59 186.65,734.74z"/>
   <path className="fil1" d="M1637.54 4167.71l29.98 40.93 107.18 601.25c131.72,20.38 147.12,28.96 171.22,-88.95 10.8,-52.8 -37.46,-135.85 -61.83,-194.87 -87.1,-210.88 -39.19,-264.53 -216.57,-317.43l-29.98 -40.93 -26.81 -38.3 26.81 38.3z"/>
   <path className="fil1" d="M13234.17 4808.21l48.32 22.75 -48.32 -22.75 11.69 -272.27c98.89,110.09 77.27,132.43 136.9,222.9 -182.57,-402.74 -71.84,-172.25 -64.65,-562.42l31.18 -35.28c-51.44,0 -42.94,-13.29 -31.18,35.28 -152.21,127.72 -120.72,128.87 -207.08,326.93 -35.37,81.13 -76.36,113.77 -54.68,187.72 31.43,107.21 46.99,92.77 177.82,97.14z"/>
   <path className="fil1" d="M1967.22 5476.8l40.25 -59.25c24.19,-190.19 211.88,-435.92 311.61,-534.03l-3.85 -91.13c-129.93,8.86 -66.03,-47.18 -269.45,267.81 -65.41,101.29 -138.48,237.85 -173.15,373.92 49.83,59.67 -85.53,58.68 94.59,42.68z"/>
   <path className="fil1" d="M13083.54 5469.97c95.49,-79.86 -52.51,-283.81 -104.52,-365.87 -23.61,-37.25 -79.48,-128.16 -111.25,-170.82 -73.68,-98.93 -69.25,-50.16 -125.61,-159.71l-75.82 40.06 302.69 475.89c71.44,162.57 5.01,112 114.51,180.45z"/>
   <path className="fil1" d="M7961.44 4666.31c141.8,36.15 231.96,68.68 384.04,37.95 48.38,-9.77 120,-33.28 169.48,-46.68 11.37,-3.08 74.44,-17.93 86.1,-23.12l93.67 -60.02c-143.27,-13.93 -222.48,-50.65 -373.88,-15.04 -131.65,30.97 -282.17,53.3 -359.41,106.91z"/>
   <path className="fil1" d="M6316.2 4587.11c106.68,95.57 544.36,207.75 719.21,33.39 -334.28,-14.12 -377.15,-107.77 -719.21,-33.39z"/>
   <path className="fil1" d="M2372.67 5558.9c34.2,-35.84 49.85,-58.82 95.82,-89.5l75.04 -753.59 -148.16 -25.33c10.94,278.47 99.73,601.21 -22.7,868.42z"/>
   <path className="fil1" d="M12596.95 5561.24c-10.46,-142.66 -37.75,-263 -34.72,-409.28 3.37,-162.72 43.74,-292.35 40.01,-456.74 -233.08,37.17 -135.24,95.74 -105.41,352.56 25.28,217.67 -11.67,374.71 100.12,513.46z"/>
   <path className="fil1" d="M1258.08 5744.43c-13.73,-402.21 176.14,-488.2 243.74,-764.33 62.14,27.75 42.31,32.61 42.31,-38.99l-42.31 38.99 -91.86 -0.27c-56.83,170.65 -313.67,544.76 -151.88,764.6z"/>
   <path className="fil1" d="M12837.01 3998.93l-33.29 36.63 -30.61 39.38c-52.94,-0.23 -37.53,-10.86 -26.93,46.92 -173.77,97.17 -270.93,253.54 -321.65,500.62 146.01,-30.98 265.98,-56.26 436,-46.55 -10.89,-4.92 -22.4,-12.2 -32.44,-15.25l-106.56 -26.13c-18.74,-2.17 -102.42,5.44 -122.54,6.8 20.36,-176.16 6.09,-314.77 147.19,-419.49l26.93 -46.92 30.61 -39.38 33.29 -36.63 39.88 -27.29c58.01,3.98 41.24,16.11 41.24,-45.77l-41.24 45.77 -39.88 27.29z"/>
   <path className="fil1" d="M2311.94 4161.24l16.71 55.55 64.53 354.03 -186.89 12.62c140.9,6.03 259.94,32.49 374.81,53.42 -38.18,-134.12 -29.27,-146.11 -95.83,-255.37 -73.39,-120.46 -31.61,-114.42 -156.62,-164.7l-16.71 -55.55c10.58,-54.65 24.82,-44.22 -25.93,-44.22l25.93 44.22z"/>
   <path className="fil1" d="M13749.77 5728.25c126.52,-305.21 -94.82,-645.23 -278.28,-799.51 107.93,282.44 249.57,401.86 278.28,799.51z"/>
   <path className="fil1" d="M11186.13 3829.13l52.1 318.65c141.33,-17.02 -8.98,-23.62 164.53,3.14l-112.44 -318.88 -104.19 -2.91 -51.08 -44.38c0,78.65 -20.66,68.7 51.08,44.38z"/>
   <path className="fil1" d="M3713.88 4162.8c-18.75,-99.12 65.49,-252.95 97.45,-369.43l34.57 -23.42 -34.57 23.42c-118.27,105.44 -164.13,137.42 -203.7,335.47l106.25 33.96z"/>
   <path className="fil1" d="M13289.45 4969.47l30.2 31.26 -30.2 -31.26c-48.49,-35.47 -45.48,-36.58 -124.58,-71.48 25.96,78.3 60.06,206.3 133.18,276.68l-67.02 -201.48 58.42 -3.72z"/>
   <path className="fil1" d="M7469.28 5549.44l62.26 -5.15 -24.82 -110.12 -37.44 115.27z"/>
   <path className="fil1" d="M2720.9 4439.07l-65.96 50.83 -20.4 -72.73 19.46 98.39 66.9 -76.49z"/>
  </g>
 </g>
</svg>
