<?xml version="1.0" encoding="UTF-8"?>
<!DOCTYPE svg PUBLIC "-//W3C//DTD SVG 1.0//EN" "http://www.w3.org/TR/2001/REC-SVG-20010904/DTD/svg10.dtd">
<!-- Creator: CorelDRAW 2020 (64-Bit) -->
<svg xmlns="http://www.w3.org/2000/svg" xml:space="preserve" width="150mm" height="100mm" version="1.0" style="shape-rendering:geometricPrecision; text-rendering:geometricPrecision; image-rendering:optimizeQuality; fill-rule:evenodd; clip-rule:evenodd"
viewBox="0 0 15000 10000"
 xmlns:xlink="http://www.w3.org/1999/xlink"
 xmlns:xodm="http://www.corel.com/coreldraw/odm/2003">
 <defs>
  <style type="text/css">
   <![CDATA[
    .fil0 {fill:#5D6A79}
    .fil1 {fill:#F1F1F2}
   ]]>
  </style>
 </defs>
 <g id="Capa_x0020_1">
  <metadata id="CorelCorpID_0Corel-Layer"/>
  <g id="_2036086425008">
   <path className="fil0" d="M8256.38 6124.55c182.27,5.43 117.85,-37.05 111.15,106.66l-198.73 23.1 -22.39 -24.11 -32.87 -42.2 -27.34 -97.79 170.18 34.34zm-1515.65 0.83l168.33 -39.05 -25.56 102.05 -33.21 42.2 -22.39 23.42 -200.36 -17.03c-5.04,-149.77 -69.72,-108.12 113.19,-111.59zm3553.68 -282c-74.23,258.75 -114.08,379.05 -291.34,500.1 -231.5,7.01 -317.93,-118.04 -388.1,-262.24 147.69,-147.38 229.92,-292.14 224.8,-616.82 222.75,113.05 134.31,133.32 494.65,164.86l-40.01 214.1zm-4972.74 211.16c78.46,10.3 49.55,-59.77 67.27,55.59 -181.41,86.57 -144.41,194.8 -360.03,245 -170.74,-83.38 -284.73,-249.99 -297.42,-491.91 -63.71,-58.9 -66.49,-135.57 -69.17,-233.52 362.8,-33.92 269.5,-50.62 494.5,-165.33 -4.04,281.34 76.14,429.42 164.85,590.17zm6274.87 -344.07c-20.81,278.05 -23.67,474.53 -217.64,597.71 -203.38,1.7 -292.18,-122.62 -394.34,-235.11 -87.93,-96.82 -201.62,-261.51 -225.33,-413.92l-27.85 -27.21c886.55,-104.48 665.63,-351.24 845.63,-408.18l19.53 486.71zm-8197.57 18.32c-4.97,-161.34 -8.76,-379.96 42.44,-512.29 6.12,6.51 14.34,8.72 16.68,21.02l31.03 42.47c76.24,116.68 64.61,149.51 255.83,234.56 149.57,66.52 332.11,101.96 507.85,103.56l-11.6 40.98c-35.18,166.86 -128.51,281.09 -235.56,406.7 -99.73,117.01 -168.16,243.64 -387.84,242.14 -194.31,-123.61 -189.79,-303.35 -218.83,-579.14zm6329.42 -1052.71c52.33,206.15 42.31,805.02 -7.12,1039.08 -64.05,303.25 -396.85,381.14 -751.15,357.44 -522.18,-9.57 -1154.47,0.67 -1341.28,-383.13 -203.97,-419.08 48.48,-1057.5 240.79,-1403.03 367.41,-660.16 1261.49,-889.24 1664.13,-290.77 107.63,159.96 201.09,465.59 194.63,680.41zm2099.79 698.93c283.32,-10.08 362.02,110.89 581.03,-32.91 3.69,-2.42 11.46,-10.29 18.33,-13.52 -35.68,244.73 117.92,549.25 -39.67,727.37l-10.79 85.6c-240.9,-5.1 -330.05,-99.34 -407.64,-241.89 -86.59,-159.08 -177.78,-321.36 -151.18,-507.29l-46.3 -54.49 56.22 37.13zm1372.75 791.71c-217.94,-48.47 -398.69,-149.13 -488.35,-268.68 -72.18,-96.25 -222.83,-335.17 -178.4,-524.05 10.62,-162.6 -6.53,-46.42 44.17,-91.3 152.99,72.81 156.68,70.81 317.5,20.79 98.95,79.91 222.16,160.12 292.6,330.6 45.87,111.01 122.87,428.95 12.48,532.64zm-439.35 -759.92c99.11,168.65 134.82,49.27 217.14,296.11l97.5 -2.91c-90.59,-302.19 -51.06,-214.19 -287.73,-344.94l-26.91 51.74zm-7482.61 -781.43c-5.42,-1173.61 1323.25,-1283.26 1848.1,-338.89 181.87,327.23 428.83,951.25 263.35,1355.15 -175.26,427.76 -712.42,408.03 -1301.85,429.38 -376.55,33.54 -744.04,-32.66 -815.81,-361.08 -45.89,-209.99 -71.25,-924.73 6.21,-1084.56zm-2296.35 776.56l70.91 -22.21 96.88 -31.13 79.16 -28.66 -33.02 106.04c-75.53,401.64 -185.38,634.55 -531.25,725.26l-78.67 -78.48c-88.38,-221.75 -20.42,-503.89 -17.43,-743.13 6.78,3.1 15.88,3.43 18.5,12.57l38.21 26.32c118.94,63.92 155.27,38.96 356.71,33.42zm-1046.07 253.3l48.01 70.85c63.24,-93.18 54.55,-112.93 122.24,-182.6 95.01,-97.78 73.46,-1.1 138.68,-158.8 -186.7,-36.96 -252.1,79.34 -308.93,270.55zm-187.99 320.63c17.32,-380.39 165,-521.37 352.29,-672.24l146.12 45.13 195 -51.72c96.79,413.91 -274.02,867.61 -677.4,859.54l-16.01 -180.71zm11355.44 -709.71c42.36,-79.41 -50.85,-54.92 94.49,-38.91 4.26,0.47 89.88,35.11 146.87,42.27 -71.82,100.55 14.21,29.23 -109.04,63.56l63.42 51.32c34.65,28.56 43.91,34.71 73.44,64.62l-23.98 120.48 86.88 -81.59 32.47 113.86 13.44 53.11 95.39 -25.29c-26.14,-200.86 -137.25,-239.91 -239.24,-348.82l185.1 -50.09c47.44,207.06 318.5,512.57 135.06,763.32 -76.46,-16.18 -151.85,-57.43 -207.47,-93.47 -112.98,-73.2 -96.1,-68.36 -139.29,-228.25l35.48 -60.07c-71.45,0 -52.76,-14.88 -35.48,60.07 -43.29,-108.36 -35.45,-120.64 -109.15,-228.9 -45.24,-66.45 -112.23,-122.41 -98.39,-177.22zm-11418.71 406.04c17.43,-75.17 36.16,-60.24 -35.55,-60.24l35.55 60.24c-67.25,248.24 -260.26,338.6 -378.04,295.96l-26.18 -160.31c26.78,-265.83 148.79,-384.38 191.96,-575.76l187.38 47.89c-103.98,107.35 -240.9,180.92 -236.59,372.41l91.63 2.76 13.7 -52.84c50.18,-179.15 18.99,-69.28 83.94,-103.48l34.44 70.67 -34.44 -70.67c31.18,-107.2 131.46,-239.27 245.37,-251.78 22.42,56.93 84.52,-73.02 -5.15,76.32 -18.19,30.3 -47.32,39.01 -80.45,100.91 -43.69,81.65 -58.9,176.68 -87.57,247.92zm11376.97 -618.69c-7.47,125.76 6.25,66.11 -97.31,153.74 27.32,-93.54 28.83,-89.59 97.31,-153.74zm-3207.39 115.49c14.85,-742.51 -39.3,-723.9 620.75,-993.45 418.67,-170.97 966.35,-413.22 922.16,284.23 90.1,117.95 80.08,542.04 39.26,714 -94.54,398.28 -853.74,361.88 -1184.61,345.51 -269.51,-13.34 -334.02,-108.71 -397.56,-350.29zm-6265.12 -749.84c21.41,-652.99 514.91,-413.46 931.74,-244.19 598.86,243.19 624.48,245.64 617.72,938.68 -23.27,250.24 -110.71,386.22 -363.53,404.43 -333.11,24 -1120.19,57.53 -1216.01,-344.34 -38.17,-160.11 -34.82,-630.6 30.08,-754.58zm-1655.31 634.56l99.84 148.35c-74.8,-54.18 -96.93,-33.67 -99.84,-148.35zm9792.11 135.95l-167.87 -114.97 -27.21 -661.61c121.79,-65.18 210.99,-150.03 335.71,-221.77 143.42,-85.97 310.17,-269.79 514.77,-186.23 113.37,234.99 40.3,1074.65 -121.1,1298.64 -192.26,4.54 -384.25,-37.03 -534.3,-114.06zm-8676.08 -1059.26l34.52 35.92c49.63,2.61 39.6,-10.55 32,37.89 167.14,22.71 46.41,-5.17 181.62,100.07 60.35,46.97 105.95,75.04 169.29,108.65l-24.79 666.01 -203.41 122.11c-157.79,71.7 -317.82,106.56 -503.85,102.67 -158.95,-221.02 -236.03,-1066.13 -119.72,-1297.26 152.95,-65.93 314.61,36.95 434.34,123.94zm10137.15 876.75l-70.84 -66.73c6.45,-120.37 57.27,-359.55 126.45,-463.49 112.83,-169.52 214.37,-229.49 361.2,-286.34 524.88,-70.99 -219.15,1484.55 -416.81,816.56zm-11888.71 -805.66l77.11 -15.6c145.22,45.02 131.73,30.78 223.67,122.41 55.57,55.39 144.12,140.78 180.25,215.07 93.66,192.63 149.7,410.35 2.69,547.48l-96.64 104.46c-300.63,-44.3 -638.15,-808.46 -387.08,-973.82zm11326.27 945.09c-257.58,-141.14 -141.16,-490.74 35.04,-656.4 60.47,-56.86 109.02,-120 186.25,-170.71 -11.26,-46.91 -18.59,-33.02 32.44,-33.02l220.33 -111.35c10.89,20.69 15.84,24.8 17.09,39.95 19.5,235.92 25.84,248.25 -83.17,577.66 -67.77,204.77 -153.9,362.83 -313.7,442.52l-94.28 -88.65zm-10586.12 -915.29l34.25 30.44 36.26 29.02c101.44,69.07 340.85,293.45 367.18,375.99 78.5,246.08 48.37,446.58 -132.02,513.06l-46.84 19.11c-47.37,68.48 -22.82,34.83 -37.65,10.03 -142.17,-49 -233.21,-223.88 -296.76,-416.18 -51.84,-156.86 -160.64,-453.95 -71.8,-605.94l147.38 44.47zm2351.33 -254.47c-84.84,-7.46 -815.54,-353.95 -900.82,333.2 -134.97,-54.97 -77.79,-50.03 -197.95,-141.23 -933.85,-708.81 -811.21,8.91 -841.75,261.24 -281.67,-270.5 -598.22,-564.44 -718.53,-147.22 -158.63,-163.56 -578.98,-410.11 -625.14,55.28 -33.98,342.52 165.74,607.57 297.98,811.15 -63.14,284.98 -392.32,510.37 -151.55,949.05 164.32,20.35 251.5,-46.35 370.25,-107.14l47.98 258.24c352.7,80.75 575.03,-189.13 757.18,-356.45l69.99 259.67c176.1,171.45 340.69,84.38 500.86,-69.86 190.3,-183.26 164.46,-254.18 287.59,-478 35.65,355.57 62.16,993.1 534.56,771.99 198.51,-92.91 402.23,-388.23 487.01,-573.64 81.84,-179 25.06,-160.17 191.69,-177.03 72.06,61.95 11.76,-12.18 48.04,68.63 42.52,94.7 76.27,427.92 272.55,650.41 334.82,379.54 623.09,-281.17 666.7,-205.78l192.15 15.15c98.87,16.21 164.52,26.76 266.06,29.32 179.86,4.54 352.43,-23.07 530.05,-33.82 116.63,99.42 101.14,142.88 246.95,210.97 314.31,-45.54 157.34,-175.1 402.87,-314.35 193.83,-109.93 234.64,-202.17 373.24,-345.27 211.44,220.76 22.6,160.37 374.08,344.56 243.69,127.71 77.86,265.2 402.03,315.51 145.01,-68.31 131.19,-112.25 246.95,-211.29 0.46,-0.15 588.38,39.88 765.66,10.75l222.5 -21.36c128.27,2.72 476.77,804.13 843.31,-115.47 32.73,-82.11 37.77,-101.22 58.29,-190.05l85.79 -208.08c218.43,22.75 45.22,-40.71 309.79,376.57 80.64,127.17 217.67,293.58 345.74,362.48 477.16,256.74 519.54,-388.5 558.06,-759.75 303.05,567.06 6.58,143.13 419.01,602.24 419.4,115.93 318.99,-50.72 448.79,-312.33 170.76,163.91 396.52,436.51 749.16,354.48l62.23 -255.58c102.69,57.79 190.29,124.98 354.23,104.18 200.75,-366.61 -7.25,-630.46 -156.9,-913.67 93.4,-238.93 343.29,-442.62 303.33,-846.41 -46.15,-466.32 -466.35,-217.87 -624.97,-55.19 -64.63,-224.09 -141.43,-269.29 -356.07,-146.01 -105.44,60.56 -288.15,220.22 -362.62,293.13 -35.2,-304.25 70.67,-391.86 -180.06,-555.49 -232.18,-17.95 -366.62,104.34 -518.4,185.2 -70.76,86.57 -229.68,191.65 -328.26,239.98 -127.02,-294.76 -209.46,-588.57 -825.69,-327.91 -373.32,157.92 -625.12,235.34 -867.65,459.68 -96.26,-183.61 -220.19,-1153.04 -1324.93,-820.78 -476.59,143.33 -855.65,677.92 -975.19,1253.77l-23.52 56.46 -32.9 -56.46c-120.24,-585.17 -509.82,-1127.58 -1002.18,-1262.16 -1086.4,-296.96 -1194.07,630.8 -1297.94,829.05 -235.41,-216.79 -603.08,-297.92 -779.63,-454.56z"/>
   <path className="fil1" d="M5278.97 4625.37c-20.51,401.99 14.7,573.58 202.34,918.2 74.34,136.52 134.05,245.13 242.64,320.43 111.52,77.33 246.3,119.34 364.62,207.01 589.43,-21.35 1126.59,-1.62 1301.85,-429.38 165.48,-403.9 -81.48,-1027.92 -263.35,-1355.15 -524.85,-944.37 -1853.52,-834.72 -1848.1,338.89z"/>
   <path className="fil1" d="M8970.12 6072.6c7.23,-6.1 18.34,-24.68 21.9,-18.04l43.24 -34.94c23.35,-17.79 61.95,-45.71 85.38,-60.84 197.47,-127.55 203.97,-88.89 384.23,-426.06 158.3,-296.11 184.3,-513.28 223.52,-856.64 6.46,-214.82 -87,-520.45 -194.63,-680.41 -402.64,-598.47 -1296.72,-369.39 -1664.13,290.77 -192.31,345.53 -444.76,983.95 -240.79,1403.03 186.81,383.8 819.1,373.56 1341.28,383.13z"/>
   <path className="fil1" d="M9854.87 5168.99c343.2,153.89 661.5,213.25 1070.38,90.13 199.72,-60.14 310.8,-119.35 377.09,-256.08 131.07,-270.36 45.11,-319.27 95.44,-543.27 44.19,-697.45 -503.49,-455.2 -922.16,-284.23 -660.05,269.55 -605.9,250.94 -620.75,993.45z"/>
   <path className="fil1" d="M3589.75 4419.15c-3.42,178.68 -31.23,387.92 76.45,540.15 78.41,110.82 222.88,237.22 390.5,281 473.29,123.64 714.35,50 1082.51,-126.66 6.76,-693.04 -18.86,-695.49 -617.72,-938.68 -416.83,-169.27 -910.33,-408.8 -931.74,244.19z"/>
   <path className="fil1" d="M11867.18 4191.31c-57.37,368.48 -130.4,612.04 -140.63,998.35 150.05,77.03 342.04,118.6 534.3,114.06 161.4,-223.99 234.47,-1063.65 121.1,-1298.64 -204.6,-83.56 -371.35,100.26 -514.77,186.23z"/>
   <path className="fil1" d="M3239.7 5201.05c-7.84,-354.07 -125.56,-724.26 -122.71,-996.84l-32 -37.89 -34.52 -35.92c-119.73,-86.99 -281.39,-189.87 -434.34,-123.94 -116.31,231.13 -39.23,1076.24 119.72,1297.26 186.03,3.89 346.06,-30.97 503.85,-102.67z"/>
   <path className="fil1" d="M5139.21 5113.64c-368.16,176.66 -609.22,250.3 -1082.51,126.66 -167.62,-43.78 -312.09,-170.18 -390.5,-281 -107.68,-152.23 -79.87,-361.47 -76.45,-540.15 -64.9,123.98 -68.25,594.47 -30.08,754.58 95.82,401.87 882.9,368.34 1216.01,344.34 252.82,-18.21 340.26,-154.19 363.53,-404.43z"/>
   <path className="fil1" d="M9854.87 5168.99c63.54,241.58 128.05,336.95 397.56,350.29 330.87,16.37 1090.07,52.77 1184.61,-345.51 40.82,-171.96 50.84,-596.05 -39.26,-714 -50.33,224 35.63,272.91 -95.44,543.27 -66.29,136.73 -177.37,195.94 -377.09,256.08 -408.88,123.12 -727.18,63.76 -1070.38,-90.13z"/>
   <path className="fil1" d="M2246.97 5348.75l-1.49 35.93c-65.22,157.7 -43.67,61.02 -138.68,158.8 -67.69,69.67 -59,89.42 -122.24,182.6l-48.01 -70.85c-68.94,55.9 -12.09,-27.09 -90.48,91.86 -3.7,5.61 -27.39,61.21 -31.86,72.22 -29.58,72.91 -32.76,95.91 -65.65,156.55l16.01 180.71c403.38,8.07 774.19,-445.63 677.4,-859.54l-195 51.72z"/>
   <path className="fil1" d="M13604.43 4190.59c-34.18,159.8 -147.4,276.26 -219.68,424.28 -58.3,119.39 -131.9,282.15 -197.13,392.28 197.66,667.99 941.69,-887.55 416.81,-816.56z"/>
   <path className="fil1" d="M1782.63 5070.85c6.17,-259.74 -341.35,-634.84 -406.61,-884.96l-77.11 15.6c-251.07,165.36 86.45,929.52 387.08,973.82l96.64 -104.46z"/>
   <path className="fil1" d="M3053.53 5379.72l-70.91 22.21 -103.6 67.94c-206.76,113.78 -307.09,360.48 -292.39,602.88l78.67 78.48c345.87,-90.71 455.72,-323.62 531.25,-725.26l-46.14 -77.38 -96.88 31.13z"/>
   <path className="fil1" d="M12878.91 4286.45l-32.44 33.02 -221.29 827.11 94.28 88.65c159.8,-79.69 245.93,-237.75 313.7,-442.52 109.01,-329.41 102.67,-341.74 83.17,-577.66 -1.25,-15.15 -6.2,-19.26 -17.09,-39.95l-220.33 111.35z"/>
   <path className="fil1" d="M8970.12 6072.6c354.3,23.7 687.1,-54.19 751.15,-357.44 49.43,-234.06 59.45,-832.93 7.12,-1039.08 -39.22,343.36 -65.22,560.53 -223.52,856.64 -180.26,337.17 -186.76,298.51 -384.23,426.06 -23.43,15.13 -62.03,43.05 -85.38,60.84l-43.24 34.94c-3.56,-6.64 -14.67,11.94 -21.9,18.04z"/>
   <path className="fil1" d="M13200.93 6166.72c27.58,-155.09 -47.95,-328.95 -124.71,-466.72l-97.5 2.91c-82.32,-246.84 -118.03,-127.46 -217.14,-296.11l-227.4 -32.81c-44.43,188.88 106.22,427.8 178.4,524.05 89.66,119.55 270.41,220.21 488.35,268.68z"/>
   <path className="fil1" d="M3398.97 5728.79c29.04,275.79 24.52,455.53 218.83,579.14 219.68,1.5 288.11,-125.13 387.84,-242.14 107.05,-125.61 200.38,-239.84 235.56,-406.7l-88.07 27.31c-593.06,280.08 -438.43,241.17 -754.16,42.39z"/>
   <path className="fil1" d="M6088.57 6071.01c-118.32,-87.67 -253.1,-129.68 -364.62,-207.01 -108.59,-75.3 -168.3,-183.91 -242.64,-320.43 -187.64,-344.62 -222.85,-516.21 -202.34,-918.2 -77.46,159.83 -52.1,874.57 -6.21,1084.56 71.77,328.42 439.26,394.62 815.81,361.08z"/>
   <path className="fil1" d="M10759.23 5659.15c65.86,43.72 37.32,43.23 146.32,105.37 40.41,23.04 152.26,86.51 211.66,105.45 316.39,100.88 326.04,-46.71 479.33,-159.5l-19.53 -486.71c-180,56.94 40.92,303.7 -845.63,408.18l27.85 27.21z"/>
   <path className="fil1" d="M11596.54 5710.47c-153.29,112.79 -162.94,260.38 -479.33,159.5 -59.4,-18.94 -171.25,-82.41 -211.66,-105.45 -109,-62.14 -80.46,-61.65 -146.32,-105.37 23.71,152.41 137.4,317.1 225.33,413.92 102.16,112.49 190.96,236.81 394.34,235.11 193.97,-123.18 196.83,-319.66 217.64,-597.71z"/>
   <path className="fil1" d="M2260.24 5208.94l37.65 -10.03 46.84 -19.11 -235.16 -889.05 -36.26 -29.02 -34.25 -30.44 -147.38 -44.47c-88.84,151.99 19.96,449.08 71.8,605.94 63.55,192.3 154.59,367.18 296.76,416.18z"/>
   <path className="fil1" d="M3398.97 5728.79c315.73,198.78 161.1,237.69 754.16,-42.39l88.07 -27.31 11.6 -40.98c-175.74,-1.6 -358.28,-37.04 -507.85,-103.56 -191.22,-85.05 -179.59,-117.88 -255.83,-234.56l-31.03 -42.47c-2.34,-12.3 -10.56,-14.51 -16.68,-21.02 -51.2,132.33 -47.41,350.95 -42.44,512.29z"/>
   <path className="fil1" d="M12387.87 6055.95c-42.99,-253.48 -117.04,-463.28 -354.18,-576.94 -112.18,-53.77 -160.27,-37.39 -205.51,-104l-9.92 17.36c-26.6,185.93 64.59,348.21 151.18,507.29 77.59,142.55 166.74,236.79 407.64,241.89l10.79 -85.6z"/>
   <path className="fil1" d="M3084.99 4166.32l32 37.89c-2.85,272.58 114.87,642.77 122.71,996.84l203.41 -122.11 24.79 -666.01c-63.34,-33.61 -108.94,-61.68 -169.29,-108.65 -135.21,-105.24 -14.48,-77.36 -181.62,-100.07 7.6,-48.44 17.63,-35.28 -32,-37.89l-34.52 -35.92 34.52 35.92z"/>
   <path className="fil1" d="M9614.97 6081.24c127.3,-9.2 260.95,-17.3 385.05,-55.52 69.63,-21.44 82.44,-23.61 140.44,-65.42 56.13,-40.45 -1.66,-3.28 58.39,-50.69l69.69 -50.46c5.88,-4.04 16.85,-11.23 25.87,-15.77l40.01 -214.1c-360.34,-31.54 -271.9,-51.81 -494.65,-164.86 5.12,324.68 -77.11,469.44 -224.8,616.82z"/>
   <path className="fil1" d="M4731.49 5863.22c81.82,-6.63 23.33,5.78 91.89,53.69 46.34,32.38 81.07,55.98 134.42,77.17 130.12,51.7 227.54,56.73 363.87,60.46 -88.71,-160.75 -168.89,-308.83 -164.85,-590.17 -225,114.71 -131.7,131.41 -494.5,165.33 2.68,97.95 5.46,174.62 69.17,233.52z"/>
   <path className="fil1" d="M11726.55 5189.66c10.23,-386.31 83.26,-629.87 140.63,-998.35 -124.72,71.74 -213.92,156.59 -335.71,221.77l27.21 661.61 167.87 114.97z"/>
   <path className="fil1" d="M2073.31 4261.73l36.26 29.02 235.16 889.05 -46.84 19.11 -37.65 10.03c14.83,24.8 -9.72,58.45 37.65,-10.03l46.84 -19.11c180.39,-66.48 210.52,-266.98 132.02,-513.06 -26.33,-82.54 -265.74,-306.92 -367.18,-375.99l-36.26 -29.02 -34.25 -30.44 34.25 30.44z"/>
   <path className="fil1" d="M5321.67 6054.54c-136.33,-3.73 -233.75,-8.76 -363.87,-60.46 -53.35,-21.19 -88.08,-44.79 -134.42,-77.17 -68.56,-47.91 -10.07,-60.32 -91.89,-53.69 12.69,241.92 126.68,408.53 297.42,491.91 215.62,-50.2 178.62,-158.43 360.03,-245 -17.72,-115.36 11.19,-45.29 -67.27,-55.59z"/>
   <path className="fil1" d="M9614.97 6081.24c70.17,144.2 156.6,269.25 388.1,262.24 177.26,-121.05 217.11,-241.35 291.34,-500.1 -9.02,4.54 -19.99,11.73 -25.87,15.77l-69.69 50.46c-60.05,47.41 -2.26,10.24 -58.39,50.69 -58,41.81 -70.81,43.98 -140.44,65.42 -124.1,38.22 -257.75,46.32 -385.05,55.52z"/>
   <path className="fil1" d="M1376.02 4185.89c65.26,250.12 412.78,625.22 406.61,884.96 147.01,-137.13 90.97,-354.85 -2.69,-547.48 -36.13,-74.29 -124.68,-159.68 -180.25,-215.07 -91.94,-91.63 -78.45,-77.39 -223.67,-122.41l-77.11 15.6 77.11 -15.6z"/>
   <path className="fil1" d="M11818.26 5392.37l9.92 -17.36c45.24,66.61 93.33,50.23 205.51,104 237.14,113.66 311.19,323.46 354.18,576.94 157.59,-178.12 3.99,-482.64 39.67,-727.37 -6.87,3.23 -14.64,11.1 -18.33,13.52 -219.01,143.8 -297.71,22.83 -581.03,32.91l-56.22 -37.13 46.3 54.49z"/>
   <path className="fil1" d="M12625.18 5146.58l221.29 -827.11 32.44 -33.02c-51.03,0 -43.7,-13.89 -32.44,33.02 -77.23,50.71 -125.78,113.85 -186.25,170.71 -176.2,165.66 -292.62,515.26 -35.04,656.4z"/>
   <path className="fil1" d="M13187.62 5007.15c65.23,-110.13 138.83,-272.89 197.13,-392.28 72.28,-148.02 185.5,-264.48 219.68,-424.28 -146.83,56.85 -248.37,116.82 -361.2,286.34 -69.18,103.94 -120,343.12 -126.45,463.49l70.84 66.73z"/>
   <path className="fil1" d="M1529.15 5602.3l-13.7 52.84 -91.63 -2.76c-78.79,35.81 -17.96,-19.53 -88.1,74.93 -43.25,58.24 -8.78,25.99 -54.65,80.53l26.18 160.31c117.78,42.64 310.79,-47.72 378.04,-295.96l-35.55 -60.24 -2.21 -42.46 -34.44 -70.67c-64.95,34.2 -33.76,-75.67 -83.94,103.48z"/>
   <path className="fil1" d="M12534.18 5373.99l227.4 32.81 26.91 -51.74c236.67,130.75 197.14,42.75 287.73,344.94 76.76,137.77 152.29,311.63 124.71,466.72 110.39,-103.69 33.39,-421.63 -12.48,-532.64 -70.44,-170.48 -193.65,-250.69 -292.6,-330.6 -160.82,50.02 -164.51,52.02 -317.5,-20.79 -50.7,44.88 -33.55,-71.3 -44.17,91.3z"/>
   <path className="fil1" d="M2586.63 6072.75c-14.7,-242.4 85.63,-489.1 292.39,-602.88l103.6 -67.94c-201.44,5.54 -237.77,30.5 -356.71,-33.42l-38.21 -26.32c-2.62,-9.14 -11.72,-9.47 -18.5,-12.57 -2.99,239.24 -70.95,521.38 17.43,743.13z"/>
   <path className="fil1" d="M13349.2 5569.49l-2.18 42.71 -35.48 60.07c43.19,159.89 26.31,155.05 139.29,228.25 55.62,36.04 131.01,77.29 207.47,93.47l13.86 -155.75c-107.21,-117.13 -37.31,-115.95 -190.17,-183.37l-13.44 -53.11 -32.47 -113.86 -86.88 81.59z"/>
   <path className="fil1" d="M13481.99 5654.87l-13.44 -53.11 13.44 53.11c152.86,67.42 82.96,66.24 190.17,183.37l-13.86 155.75c183.44,-250.75 -87.62,-556.26 -135.06,-763.32l-185.1 50.09c101.99,108.91 213.1,147.96 239.24,348.82l-95.39 25.29z"/>
   <path className="fil1" d="M1748.56 5975.86c32.89,-60.64 36.07,-83.64 65.65,-156.55 4.47,-11.01 28.16,-66.61 31.86,-72.22 78.39,-118.95 21.54,-35.96 90.48,-91.86 56.83,-191.21 122.23,-307.51 308.93,-270.55l1.49 -35.93 -146.12 -45.13c-187.29,150.87 -334.97,291.85 -352.29,672.24z"/>
   <path className="fil1" d="M1281.07 5807.84c45.87,-54.54 11.4,-22.29 54.65,-80.53 70.14,-94.46 9.31,-39.12 88.1,-74.93l91.63 2.76 13.7 -52.84 -13.7 52.84 -91.63 -2.76c-4.31,-191.49 132.61,-265.06 236.59,-372.41l-187.38 -47.89c-43.17,191.38 -165.18,309.93 -191.96,575.76z"/>
   <path className="fil1" d="M1613.09 5498.82l34.44 70.67 2.21 42.46c71.71,0 52.98,-14.93 35.55,60.24 28.67,-71.24 43.88,-166.27 87.57,-247.92 33.13,-61.9 62.26,-70.61 80.45,-100.91 89.67,-149.34 27.57,-19.39 5.15,-76.32 -113.91,12.51 -214.19,144.58 -245.37,251.78z"/>
   <path className="fil1" d="M13311.54 5672.27c-17.28,-74.95 -35.97,-60.07 35.48,-60.07l2.18 -42.71 23.98 -120.48c-29.53,-29.91 -38.79,-36.06 -73.44,-64.62l-63.42 -51.32 -132.32 -66.92c-13.84,54.81 53.15,110.77 98.39,177.22 73.7,108.26 65.86,120.54 109.15,228.9z"/>
   <path className="fil1" d="M6827.9 6254l22.39 -23.42 33.21 -42.2c25.37,-146.7 33.9,-73.37 -142.77,-63 -182.91,3.47 -118.23,-38.18 -113.19,111.59l200.36 17.03z"/>
   <path className="fil1" d="M8146.41 6230.2l22.39 24.11 198.73 -23.1c6.7,-143.71 71.12,-101.23 -111.15,-106.66 -154.55,22.72 -79,-62.94 -142.84,63.45l32.87 42.2z"/>
   <path className="fil1" d="M13236.32 5333.07c123.25,-34.33 37.22,36.99 109.04,-63.56 -56.99,-7.16 -142.61,-41.8 -146.87,-42.27 -145.34,-16.01 -52.13,-40.5 -94.49,38.91l132.32 66.92z"/>
   <path className="fil1" d="M13062.26 5053.5c-68.48,64.15 -69.99,60.2 -97.31,153.74 103.56,-87.63 89.84,-27.98 97.31,-153.74z"/>
   <path className="fil1" d="M8113.54 6188l32.87 42.2 22.39 24.11 -22.39 -24.11 -32.87 -42.2c63.84,-126.39 -11.71,-40.73 142.84,-63.45l-170.18 -34.34 27.34 97.79z"/>
   <path className="fil1" d="M1934.44 5053.71c2.91,114.68 25.04,94.17 99.84,148.35l-99.84 -148.35z"/>
   <path className="fil1" d="M3053.53 5379.72l96.88 -31.13 46.14 77.38 33.02 -106.04 -79.16 28.66 -96.88 31.13z"/>
   <path className="fil1" d="M7526.56 4864.49l-56.42 0 32.9 56.46 23.52 -56.46z"/>
   <path className="fil1" d="M6883.5 6188.38l-33.21 42.2 -22.39 23.42 22.39 -23.42 33.21 -42.2 25.56 -102.05 -168.33 39.05c176.67,-10.37 168.14,-83.7 142.77,63z"/>
  </g>
 </g>
</svg>
