<?xml version="1.0" encoding="UTF-8"?>
<!DOCTYPE svg PUBLIC "-//W3C//DTD SVG 1.0//EN" "http://www.w3.org/TR/2001/REC-SVG-20010904/DTD/svg10.dtd">
<!-- Creator: CorelDRAW 2020 (64-Bit) -->
<svg xmlns="http://www.w3.org/2000/svg" xml:space="preserve" width="150mm" height="100mm" version="1.0" style="shape-rendering:geometricPrecision; text-rendering:geometricPrecision; image-rendering:optimizeQuality; fill-rule:evenodd; clip-rule:evenodd"
viewBox="0 0 15000 10000"
 xmlns:xlink="http://www.w3.org/1999/xlink"
 xmlns:xodm="http://www.corel.com/coreldraw/odm/2003">
 <defs>
  <style type="text/css">
   <![CDATA[
    .str0 {stroke:#F1F1F2;stroke-width:7.62;stroke-miterlimit:22.9256}
    .fil5 {fill:#5A6976}
    .fil4 {fill:#5D6976}
    .fil0 {fill:#5D6A79}
    .fil2 {fill:#F0F0F1}
    .fil3 {fill:#F1F1F2}
    .fil1 {fill:#F1F1F2}
    .fil6 {fill:#F2F2F2}
    .fil7 {fill:#F2F2F5}
   ]]>
  </style>
 </defs>
 <g id="Capa_x0020_1">
  <metadata id="CorelCorpID_0Corel-Layer"/>
  <g id="_2072210250560">
   <path className="fil0" d="M7349.92 6327.15c-35.43,335.74 -184.64,708.84 -412.21,826.26 -311.33,160.63 -605.99,-206.47 -647.93,-455.22 -51.11,-68.12 -54.04,-74.87 -86.95,-177.78 -250.17,-782.47 -73.99,-880.75 -19.93,-1422.73l168.3 -18.74 730.88 -7.29 305.5 67.68c-131.41,465.83 127.8,803.66 -37.66,1187.82zm-5757.11 -2047.59l173.53 250.49 -152.58 79.65c-255.99,-104.35 -299.46,-320.45 -271.61,-651.45 135.86,42.17 126.03,22.31 178.12,119.42 26.68,49.75 59.45,147.22 72.54,201.89zm11681.65 368.23c-108.26,-147 -48.96,-175.48 32.55,-334.84 66.98,-130.94 91.79,-221.59 125.84,-355.53l211.14 -14.17c-10.72,226.48 -59.72,445.31 -210.25,602.31l-159.28 102.23zm-1825.34 -263.12c-111.7,-59.93 -59.45,-44.73 -158.96,-138.02l60.89 -508.56c74.93,-77.67 263.78,-214.2 405,-281.23 114.26,-79.11 139.82,-85.98 288.17,-90.38 120.68,337.41 136.14,878.41 -5.27,1229.48 -271.32,59.23 -472.94,-53.22 -589.83,-211.29zm-7309.58 -1078.28c452.69,-195.18 1097.56,195.94 1212.27,577.51 87.85,292.19 66.51,561.03 -159.65,676.92 -211.51,108.38 -547.38,144.58 -797.13,152.83 -426.78,6.09 -583.32,-161.85 -639.77,-576.63 -53.6,-393.86 25.57,-752.25 384.28,-830.63zm-1078.19 50.02c195.82,77.39 492.08,284.09 551.88,395.81 53.06,99.14 48.28,318.52 56.27,447.67 10.25,165.84 -79.3,172.55 -185.33,247.58 -138.21,81.52 -364.34,251.66 -582.34,152.76 -110.82,-184.31 -120.57,-482.21 -123.18,-707.04 -3.1,-266.64 -28.13,-566.9 282.7,-536.78zm6969.19 1313.66l-254.38 -105.12c65,-383.99 83.28,-713.36 48.38,-1103.7l263.45 -63.42c136.13,-90.13 675.84,-213.55 861.84,-187.24 308.71,43.66 307.35,484.87 270.08,779.91 -100.14,792.53 -423.73,917.66 -1189.37,679.57zm-8360.1 -910.66c154.38,39.99 294.88,170.21 346.67,319 54.48,156.52 160.14,313.21 175.86,448.77l-68.69 68.26c-236.64,149.77 -552.91,-597.31 -560.83,-879.15 150.44,18.28 53.55,-27.96 106.99,43.12zm457.85 -257.72c219.56,103.72 541.47,407.37 572.33,709.66 13.63,133.54 34.11,174.42 -104.59,339.3 -62.53,84.54 -44.63,62.74 -166.18,87.37 -156.07,-173.93 -449.04,-758.84 -401.15,-1138.31l99.59 1.98zm10712.09 1045.47c-142.5,-87.8 8.76,-330.12 64.63,-457.42 56.65,-129.08 64.2,-94.68 146.59,-174.02 92.64,-89.21 49.21,-80.01 183.1,-128.11l128.1 -59.62c-6.84,343.71 -232.9,816.62 -474.2,891.17 -92.07,-50.3 -26.33,-8.43 -48.22,-72zm-482.12 19.67c-191.15,-143.23 -184.42,-433.75 -38.9,-640.81 110.19,-156.77 248.17,-301.04 473.72,-387.1l110.9 -15.08c12.44,416.64 -225.56,856.75 -391.87,1096.66l-153.85 -53.67zm-6884.52 -1462.37c99.28,-109.3 165.81,-200.98 323.29,-268.11 158.37,-67.52 313.05,-88.82 493.87,-86.21 332.23,4.79 691.45,132.19 818.78,319.04 98.53,58.41 211.65,243.04 280.71,396.27 130.59,289.77 71.94,249.03 38.2,545.36 -54.5,478.62 267.66,769.98 -288.43,898.81 -208.25,107.82 -719.59,55.61 -973.25,48.68 -539.34,-94.34 -419.25,-25.51 -795.28,-305.86 34.42,-304.97 259.78,-363.37 48.57,-875.55 -18.95,-45.95 -301.34,-336.46 53.54,-672.43zm3005.31 -443.89c-246.27,140.12 -359.97,144.91 -563.17,317.9 -131.36,111.83 -211.57,250.31 -300.61,405.53 -17.15,29.9 -19.86,36.85 -39.05,63.26 -29.57,40.7 -27.37,35.3 -49.84,52.7 -670.51,-1403.07 -2217.45,-876.61 -2315.47,-76.25 -114.39,-31.52 -242.36,-94.87 -318.23,-182.67 -251.17,3.3 -473.61,-136.93 -785.36,-54.91 -333.95,87.88 -310.54,241.75 -461.5,442.98 -63.35,-38.96 -796.4,-797.47 -948.62,-116.46l-67.01 264.7c-2.38,-5.47 -10.01,19.54 -16.8,28.08 -83.27,-185.43 -374.17,-494.6 -683.06,-387.14l-9.78 341.02c-161.68,-91.3 -203.44,-178 -451.69,-131.03l-7.92 237.6c-380.12,-49.91 -238.55,462.2 -175.38,587.35 121.61,240.97 303.13,350.13 553.59,164.92 178.34,112.23 228.46,214.12 430.84,13.15 98.61,56.16 117.75,139.09 266.87,102 113.06,-28.12 132.41,-96.89 207.71,-187.88 124.16,216.47 201.49,252.73 500.8,151.29 163.43,-55.39 228.3,-114.74 360.79,-205.26 93.66,-64 23.44,-26.84 116.5,-74.77 151.42,554.49 516.86,305.57 1019.37,409.19 73.74,-56.44 12.33,-24.48 131.72,-57.93l394.85 -105.42c37.5,62.65 44.57,67.53 86.55,126.12l-607.31 53.25c-9.92,7.36 -61.35,48.72 -64.77,52.42 -52.22,56.46 -11.25,-1.1 -35.64,54.91 -3.71,100.22 -54.6,47.54 31.95,74.52 88.15,-17.25 -26.51,1.91 100.79,-59.61 14.38,-6.95 119.28,-42.46 136.88,-46.12 130.31,-27.08 238.98,-19.96 370.32,-14.86l770.33 186.89c157.79,241.9 -785.67,3261.5 -1246.11,1802.48l-82.37 -238.55c-29.48,107.58 27.36,138.27 -33.83,13.68 -54.02,-109.99 -6.57,2.05 -26.34,-126.96l4.76 115.99c-32.5,161.77 54.83,405.55 144.32,545.52 105.89,165.63 235.89,203.48 488.88,143.51 410.22,-334.16 436.63,-708.57 674.02,-1254.54 79.91,166.14 112.89,471.58 209.93,689.65 85.31,191.7 242.95,439.91 428.02,497.44 536.24,166.73 742.31,-496.03 866.36,-945.51l37.37 101.75c152.16,4.21 48.15,-23.41 136.05,70.56 -81.71,-338.15 -294.64,-916.93 -203.09,-1274.14l147.05 -73.27 104.06 -71.46c-120.51,-169.82 -49.6,99.53 15.3,-46.56 8.6,-19.36 220.41,15.39 5.99,-10.37 -170.47,-19.36 -245.03,83.22 -410.36,-39.87l243.95 -199.13c98.51,29.18 214.56,81.72 337.09,72.96l191.9 -50.69c-439.59,-77.13 -568.69,-91.05 -572.25,-599.96 -2.19,-312.68 109.77,-647.66 235.33,-868.27 225.04,-395.36 882.66,-807.18 1544.62,-552.09 114.75,82.53 117.11,34.9 226.44,162.3 41.72,48.62 88.51,131.85 125.4,226.72 134.51,345.89 142.91,1177.35 -52.06,1514.8l-58.14 83.5c-79.1,101.7 -35.96,-10.7 -91.61,124.92 153.9,123.72 -40.3,-205.28 18.49,86.48l198.52 -15.75c-41.27,-21.13 64.89,-32.98 -128,-22.35 0,-256.16 -15.21,-70.7 65.73,-130.65 91.19,-52.65 51.46,-43.38 118.18,-139.03 305.25,52.55 492.75,242.26 1023.36,201.35 -101.34,122.03 -176.74,158.71 -290.23,239.62 -191.26,-294.37 -335.91,-274.19 -757.46,-245.89 84.47,7.57 146.38,1.9 227.26,4.55 63.77,2.09 79.83,0.53 144.47,15.83 62.2,14.73 76.58,25.99 103.33,41.47 -142.65,-23.04 -390.55,-72.73 -493.53,45.07 229.1,-14.93 455.83,-25.73 620.48,85.95 78.99,223.84 34.67,785.87 26.7,1045.9 56.97,-83.38 62.16,-101.85 61.37,-281.88l46.72 -504.09c125.92,-136.84 253.98,-296.24 479.1,-369.4 83.72,-87.58 135.79,-64.19 251.8,-48.53 165.33,399.15 144.84,1103.84 29.48,1521.18 -8.37,30.26 -15.79,52.67 -27.54,79.99 -75.53,175.65 -286.65,49.84 -324.3,-19.32 -172.49,-78.88 -140.09,-64.07 -247.35,-202.73 -86.97,-112.44 -112.5,-153.17 -150.9,-277.5 -110.25,92.26 -110.78,-150.31 -81.11,170.15 11.05,119.36 -2.12,42.26 71.14,83.55 190.5,220.22 341.46,480.68 771.59,416.99 100.97,-168.83 129.83,-383.74 150.1,-628.94 81.25,62.9 15.48,-1.48 90.3,89.06 37.07,44.85 27.37,38.8 58.24,87.35 567.36,892.02 699.2,-128.72 748.68,-201.52l98.97 73.09 27.71 -71.2c-76.31,-114.99 -87.63,-105.52 -173.66,-192.79 -82.17,78.22 -6.34,70.45 -23.15,276.54 0,-154.6 23.99,-304.57 -60.82,-422.98 11.47,255.26 15.89,651.91 -185.95,797.86 -151.09,-42.97 -185.9,-85.96 -231.3,-199.05 -126.43,-88.78 -152.81,-145.4 -236.22,-309.32 -88.59,-174.11 -82.18,-187.82 -81.39,-393.72 0.48,-127.82 -45.62,-426.91 -36.89,-497.4 12.04,-97.22 134.47,-208.81 237.51,-250.14l117.68 0.02c17.17,-11.17 33.19,-16.91 52.99,-31.09 14.31,-10.24 21.74,-7.17 32.55,-30.15 7.71,-16.38 10.52,-18.79 12.11,-29.21 -247.69,-91.25 -388.08,87.97 -502.04,170.93 -114.29,-113.15 -108.87,-115.66 -331.8,-132.55 114.79,-40.79 179.95,-244.57 263.67,-364.83l32.85 -39.09c162.45,155.67 442.95,401.53 737.57,325.47 143.86,-37.14 93.43,-51.36 179.65,-141.68 339.25,284.21 352.75,93.04 493.89,11.62 191.63,185.13 168.21,199.79 423.34,47.31 52.7,34.36 26.98,-57.78 64.91,96.46 223.34,107.29 389.18,-109.9 486.2,-315.01 120.36,-254.45 229.97,-629.47 -185.89,-575.78 6.89,-134.34 24.5,-118.31 -47.79,-232.67l-168.81 0.62 -250.65 185.48c16.36,-161.6 63.69,-282.39 -60.89,-371.78 -374.99,-24.34 -566.52,354.06 -694.24,384.85 -9.13,-105.94 -16.51,-210.57 -41.43,-313.8 -121.23,-502.05 -632.63,-30.18 -830.03,97.51 -68.99,-76.24 -49.99,-81.91 -88.59,-205.56 -171.13,-548.21 -1005.21,-138.07 -1466.96,-19.01 -165.12,-672.25 -585.01,-807.83 -1337.05,-699.74z"/>
   <path className="fil1" d="M8090.65 4812.53l835.7 139.52c55.49,-56.99 100.83,-111.12 171.73,-191.05 143.51,-161.78 308.72,-523.52 355.43,-741.04 115.15,-536.34 -44.05,-777.11 -155.16,-1227.75 -661.96,-255.09 -1319.58,156.73 -1544.62,552.09 -125.56,220.61 -237.52,555.59 -235.33,868.27 3.56,508.91 132.66,522.83 572.25,599.96z"/>
   <path className="fil2" d="M5473.74 3104.46c37.2,480.57 4.68,645.41 180.99,1109.12 188.72,496.38 391.27,539.65 512.18,744.72 253.66,6.93 765,59.14 973.25,-48.68 328.03,-404.34 -25.11,-1362.19 -30.48,-1840.44 -127.33,-186.85 -486.55,-314.25 -818.78,-319.04 -180.82,-2.61 -335.5,18.69 -493.87,86.21 -157.48,67.13 -224.01,158.81 -323.29,268.11z"/>
   <path className="fil3" d="M7706.78 5086.19l-104.06 71.46c-10.94,562.34 59.1,913.79 155.61,1443.23 8.61,189.86 267.95,472.31 385.63,557.61 257.93,186.95 437,-65.11 536.21,-276.11 178.29,-379.2 276.86,-1174.58 268.68,-1621.61 -116.46,-25.3 -63.97,-20.8 -170.27,-75.78 -36.56,-18.91 -62.54,-24.48 -99.26,-47.2 -48.15,-29.8 -36.51,-28.18 -65.27,-58.54 -266.39,-6.68 -680.92,30.96 -907.27,6.94z"/>
   <path className="fil3" d="M6351.2 5078.94c-1.5,267.47 -73.59,542.68 -82.76,799.24 -10.95,306.59 -0.32,525.15 21.34,820.01 41.94,248.75 336.6,615.85 647.93,455.22 227.57,-117.42 376.78,-490.52 412.21,-826.26 43.98,-518.55 -248.37,-864.87 -267.84,-1255.5l-730.88 7.29z"/>
   <path className="fil3" d="M9248.81 6475.57c54.07,190.38 214.84,456.06 308.71,562.65 204.56,-9.81 323.3,6.68 458.85,-124.27 124.09,-119.87 155.21,-182.17 259.82,-344.59l49.49 -452.36c7.97,-260.03 52.29,-822.06 -26.7,-1045.9 -164.65,-111.68 -391.38,-100.88 -620.48,-85.95l2.3 3.53c-166.02,296.25 -477.2,1080.86 -431.99,1486.89z"/>
   <path className="fil3" d="M10087.99 3397.83c-22.98,445.73 -167.33,797.5 -57.45,1272.24 765.64,238.09 1089.23,112.96 1189.37,-679.57 37.27,-295.04 38.63,-736.25 -270.08,-779.91 -186,-26.31 -725.71,97.11 -861.84,187.24z"/>
   <path className="fil2" d="M4679.38 5023.74c-6.68,291.12 1.75,588.14 9.89,880.87 6.82,245.45 64.66,516.58 39.95,749.36l82.37 238.55c507.1,408.34 754.94,-274.68 777.57,-632.81 14.33,-226.65 -35.74,-552.35 -99.64,-751.4 -56.86,-177.07 -182.9,-449.54 -202.15,-605.16 -131.34,-5.1 -240.01,-12.22 -370.32,14.86 -17.6,3.66 -122.5,39.17 -136.88,46.12 -127.3,61.52 -12.64,42.36 -100.79,59.61z"/>
   <path className="fil2" d="M4139.54 3306.39c-134.6,196.75 -131.5,582.3 -89.64,814.91 21.96,122.04 66.37,241.4 127.25,334.92 84.06,129.14 178.94,162.15 217.88,257.43 249.75,-8.25 585.62,-44.45 797.13,-152.83 226.16,-115.89 247.5,-384.73 159.65,-676.92 -114.71,-381.57 -759.58,-772.69 -1212.27,-577.51z"/>
   <path className="fil4" d="M4092.97 4951.68c144.2,59.49 274.76,169.04 365.78,246.17 170.34,144.32 121.12,221.67 125.45,496.1 6.77,429.71 -155.51,692.69 -439.85,805.14 -60.11,93.13 -150.23,94.63 -271.08,91.13 -204.92,-286.64 -266.64,-1461.58 19.5,-1694.05l200.2 55.51zm-805.39 1357.01c-48.95,111.14 -83.1,153.12 -247.26,186.21 -307.47,-439.45 -165.13,-1384.74 152.37,-1609.75 69.65,-49.36 100.68,-60.74 205.07,-46.17 361.14,135.87 212.46,345.54 210.87,750.62 -0.95,242.03 -109.84,568.03 -321.05,719.09zm-841.02 -236.78c-69.32,98.02 -196.33,119.37 -287.71,84.99 -126.35,-198.94 -87.46,-557.63 -15.91,-800.8 47.54,-161.59 139.12,-357.45 273.63,-432.5 81.62,-45.53 109.13,-36.92 202.21,-39.46 138.72,26.33 216.83,79.01 315.97,139.22 -57.65,212.37 -120.78,319.25 -146.2,579.14 -18.12,185.32 -42.16,383.44 -341.99,469.41zm-1024.75 -33.97c-116.82,-24.61 -31.26,43.72 -114.86,-86.22 -104.27,-162.08 -101.27,-424.32 -57.95,-607.6 84.99,-359.56 147.15,-416.43 516.81,-421.88 158.48,19.51 265.42,53.81 389.69,105.72 -19.12,66.2 -216.3,682.76 -218.24,685.62 -34.97,51.63 -182.59,183.18 -230.63,229.61 -42.21,40.8 -101.54,112.81 -191.59,119.03 -155.67,10.74 -34.26,15.34 -93.23,-24.28zm3252 618.74l-4.76 -115.99c19.77,129.01 -27.68,16.97 26.34,126.96 61.19,124.59 4.35,93.9 33.83,-13.68 24.71,-232.78 -33.13,-503.91 -39.95,-749.36 -8.14,-292.73 -16.57,-589.75 -9.89,-880.87 -86.55,-26.98 -35.66,25.7 -31.95,-74.52l-119.66 177.02c-78.92,-107.86 -489.85,-499.6 -809.62,-242.62l-37.05 32.72c-113.66,-100.51 -165.57,-200.54 -348.83,-198.34 -171.6,2.06 -263.55,110.25 -307.08,213.68 -374.78,-123.67 -431.1,-305.19 -798.25,4.24 -1233.47,-526.79 -1171.53,713.74 -1060.39,976.06 250.42,591.09 700.99,27.03 800.95,-57.5 24.12,184.54 17.01,309.06 154.39,421.03 253.36,57.75 487.14,-141.65 615.1,-251.86 92.75,170 94.6,645.61 389.55,563.24 223.36,-62.38 334.35,-336.84 484.01,-529.72 108.74,253.82 -4.19,685.97 372.29,645.39 144.31,-15.56 262.74,-99.34 349.45,-180.34l268.93 -279.7 34.55 328.56c43.25,141.38 2.23,28.03 38.04,85.6z"/>
   <path className="fil5" d="M7898.75 4863.22l199 89.92c-81.84,13.15 -134.14,11.79 -206.97,19.68 -175.78,19.05 -144.2,43.9 -162.71,56.44 214.42,25.76 2.61,-8.99 -5.99,10.37 -64.9,146.09 -135.81,-123.26 -15.3,46.56 226.35,24.02 640.88,-13.62 907.27,-6.94 206.67,3.35 284.35,-5.23 334.8,181.52 8.18,447.03 -90.39,1242.41 -268.68,1621.61 -99.21,211 -278.28,463.06 -536.21,276.11 -117.68,-85.3 -377.02,-367.75 -385.63,-557.61l-99.57 -95.82c-87.9,-93.97 16.11,-66.35 -136.05,-70.56 54.47,58.9 84.51,173.98 127.34,263.93 219.88,461.71 764.54,1064.07 1153.99,164.67 44.36,-102.45 71.07,-202.28 102.53,-321.78 65.38,-248.33 13.56,-242.44 101.47,-359.32 108.89,209.07 165.34,429.36 280.93,640.51 311.49,568.98 755.28,808.78 983.87,206.34 91.05,-239.95 100.22,-614.72 161.25,-760.43 -73.26,-41.29 -60.09,35.81 -71.14,-83.55 -29.67,-320.46 -29.14,-77.89 81.11,-170.15l-10.29 -683.69 -46.72 504.09c0.79,180.03 -4.4,198.5 -61.37,281.88l-49.49 452.36c-34.46,212.99 -59.14,464.32 -206.54,610.11 -68.6,67.84 -160.54,117.86 -286.77,71.25 -103.49,-38.22 -149.71,-124.47 -225.36,-212.5 -93.87,-106.59 -254.64,-372.27 -308.71,-562.65 -226.85,-375.98 -225.73,-622.74 -200.54,-1029.47 9.76,-157.66 -28.9,-257.52 -43.44,-377.18 238.75,12.23 432.04,-49.02 675.97,-80.24l-2.3 -3.53c102.98,-117.8 350.88,-68.11 493.53,-45.07 -26.75,-15.48 -41.13,-26.74 -103.33,-41.47 -64.64,-15.3 -80.7,-13.74 -144.47,-15.83 -80.88,-2.65 -142.79,3.02 -227.26,-4.55 -86.1,14 -93.85,47.85 -93.85,-56.05 -80.94,59.95 -65.73,-125.51 -65.73,130.65 192.89,-10.63 86.73,1.22 128,22.35l-198.52 15.75c-58.79,-291.76 135.41,37.24 -18.49,-86.48 -214.14,33.33 -229.85,87.88 -522.03,47.6l-835.7 -139.52 -191.9 50.69z"/>
   <path className="fil3" d="M4811.59 6892.52c460.44,1459.02 1403.9,-1560.58 1246.11,-1802.48l-770.33 -186.89c19.25,155.62 145.29,428.09 202.15,605.16 63.9,199.05 113.97,524.75 99.64,751.4 -22.63,358.13 -270.47,1041.15 -777.57,632.81z"/>
   <path className="fil3" d="M10912.87 4961.63c-189.59,391.84 -408.08,1180.8 -70.56,1533.32 37.65,69.16 248.77,194.97 324.3,19.32 11.75,-27.32 19.17,-49.73 27.54,-79.99 115.36,-417.34 135.85,-1122.03 -29.48,-1521.18 -116.01,-15.66 -168.08,-39.05 -251.8,48.53z"/>
   <path className="fil3" d="M4144.35 6499.09c327.97,-362.7 76.23,-1140.48 -51.38,-1547.41l-200.2 -55.51c-286.14,232.47 -224.42,1407.41 -19.5,1694.05 120.85,3.5 210.97,2 271.08,-91.13z"/>
   <path className="fil2" d="M11587.81 4842.25c4.27,261.36 -52.72,483.42 -30.42,781.88 20.65,276.48 71.05,415.54 147.41,668.7 45.4,113.09 80.21,156.08 231.3,199.05 201.84,-145.95 197.42,-542.6 185.95,-797.86 -66.71,-370.48 -108.37,-735.97 -416.56,-851.75l-117.68 -0.02z"/>
   <path className="fil2" d="M3287.58 6308.69c55.25,-253.24 119.95,-412.41 146.14,-683.93 26.12,-270.74 -19.78,-528.15 -35.96,-785.78 -104.39,-14.57 -135.42,-3.19 -205.07,46.17 -317.5,225.01 -459.84,1170.3 -152.37,1609.75 164.16,-33.09 198.31,-75.07 247.26,-186.21z"/>
   <path className="fil2" d="M3484.17 4447.47c40.74,-658.67 -107.79,-617.72 -422.82,-1091.06 -310.83,-30.12 -285.8,270.14 -282.7,536.78 2.61,224.83 12.36,522.73 123.18,707.04 218,98.9 444.13,-71.24 582.34,-152.76z"/>
   <path className="fil5" d="M13231.78 4925.73c350.75,4.48 426.67,82.19 510.16,407.45 74.6,290.64 48.25,583.01 -167.49,697.04 -112.55,130.96 -325.76,-123.03 -406.78,-191.84 -166.34,-141.23 -273.52,-586.39 -336.91,-832.3l401.02 -80.35zm-1526.29 -83.46c308.19,115.78 349.85,481.27 416.56,851.75 84.81,118.41 60.82,268.38 60.82,422.98 16.81,-206.09 -59.02,-198.32 23.15,-276.54 54.53,-286.04 -92.4,-563.44 -134.83,-816.89 134.33,-84.81 150.07,-106.5 313.08,-133.5 461.95,-6.11 677.09,848.34 450.09,1280.34 -138.56,17.19 -242.82,-58.56 -333.23,-103.59 -101.45,-46.91 -38.75,-23.85 -121.45,-33.57l-27.71 71.2c70.89,43.15 111.04,61.48 165.37,140.27l361.6 36.05c116.06,-129 128.61,-195.42 138.51,-423.82 56.12,36.89 25.6,16.54 71.78,54.53 117.49,96.66 266.4,275.92 436.03,274.33 316.11,-2.97 504.81,-646.28 220.54,-1135.32 -158.11,-272.01 -248.08,-190.98 -585.85,-253.88 -58.33,39.13 -222.5,91.71 -312.52,116.65 -131.11,36.33 -107.06,-18.07 -224.86,-82.16 -219.55,-119.44 -445.3,14.14 -615.92,94.87 -80.78,-68.72 -95.24,-92.55 -203.51,-174.15 -1.59,10.42 -4.4,12.83 -12.11,29.21 -10.81,22.98 -18.24,19.91 -32.55,30.15 -19.8,14.18 -35.82,19.92 -52.99,31.09z"/>
   <path className="fil3" d="M11756.05 3456.86c-38.21,149.29 -143.27,258.53 -209.9,434.19 -78.29,206.43 -93.05,270.47 -97.03,493.62 116.89,158.07 318.51,270.52 589.83,211.29 141.41,-351.07 125.95,-892.07 5.27,-1229.48 -148.35,4.4 -173.91,11.27 -288.17,90.38z"/>
   <path className="fil3" d="M8926.35 4952.05c292.18,40.28 307.89,-14.27 522.03,-47.6 55.65,-135.62 12.51,-23.22 91.61,-124.92l58.14 -83.5c194.97,-337.45 186.57,-1168.91 52.06,-1514.8 -36.89,-94.87 -83.68,-178.1 -125.4,-226.72 -109.33,-127.4 -111.69,-79.77 -226.44,-162.3 111.11,450.64 270.31,691.41 155.16,1227.75 -46.71,217.52 -211.92,579.26 -355.43,741.04 -70.9,79.93 -116.24,134.06 -171.73,191.05z"/>
   <path className="fil3" d="M12501.13 6066.82c90.41,45.03 194.67,120.78 333.23,103.59 227,-432 11.86,-1286.45 -450.09,-1280.34 -135.6,333.89 51.92,846.7 116.86,1176.75z"/>
   <path className="fil3" d="M2446.56 6071.91c152.3,-278.73 255.24,-869.37 172.22,-1187.77 -93.08,2.54 -120.59,-6.07 -202.21,39.46 -134.51,75.05 -226.09,270.91 -273.63,432.5 -71.55,243.17 -110.44,601.86 15.91,800.8 91.38,34.38 218.39,13.03 287.71,-84.99z"/>
   <path className="fil3" d="M1421.81 6037.94c135.04,-103.33 227.9,-259.44 290.55,-477.11 55.5,-192.8 113.6,-527.58 53.45,-638.59 -369.66,5.45 -431.82,62.32 -516.81,421.88 -43.32,183.28 -46.32,445.52 57.95,607.6 83.6,129.94 -1.96,61.61 114.86,86.22z"/>
   <path className="fil2" d="M13574.45 6030.22c215.74,-114.03 242.09,-406.4 167.49,-697.04 -83.49,-325.26 -159.41,-402.97 -510.16,-407.45 -117.7,286.9 130.66,1060.06 342.67,1104.49z"/>
   <path className="fil3" d="M9248.81 6475.57c-45.21,-406.03 265.97,-1190.64 431.99,-1486.89 -243.93,31.22 -437.22,92.47 -675.97,80.24 14.54,119.66 53.2,219.52 43.44,377.18 -25.19,406.73 -26.31,653.49 200.54,1029.47z"/>
   <path className="fil3" d="M6166.91 4958.3c-120.91,-205.07 -323.46,-248.34 -512.18,-744.72 -176.31,-463.71 -143.79,-628.55 -180.99,-1109.12 -354.88,335.97 -72.49,626.48 -53.54,672.43 211.21,512.18 -14.15,570.58 -48.57,875.55 376.03,280.35 255.94,211.52 795.28,305.86z"/>
   <path className="fil3" d="M4395.03 4713.65c-38.94,-95.28 -133.82,-128.29 -217.88,-257.43 -60.88,-93.52 -105.29,-212.88 -127.25,-334.92 -41.86,-232.61 -44.96,-618.16 89.64,-814.91 -358.71,78.38 -437.88,436.77 -384.28,830.63 56.45,414.78 212.99,582.72 639.77,576.63z"/>
   <path className="fil3" d="M4144.35 6499.09c284.34,-112.45 446.62,-375.43 439.85,-805.14 -4.33,-274.43 44.89,-351.78 -125.45,-496.1 -91.02,-77.13 -221.58,-186.68 -365.78,-246.17 127.61,406.93 379.35,1184.71 51.38,1547.41z"/>
   <path className="fil3" d="M7140.16 4909.62c556.09,-128.83 233.93,-420.19 288.43,-898.81 33.74,-296.33 92.39,-255.59 -38.2,-545.36 -69.06,-153.23 -182.18,-337.86 -280.71,-396.27 5.37,478.25 358.51,1436.1 30.48,1840.44z"/>
   <path className="fil3" d="M2596.03 4550.65c10.31,-254.77 -20.91,-428.41 -147.04,-622.89 -35.09,-54.09 -131.36,-192.56 -162.14,-228.12 -99.54,-114.98 -83.9,-24.43 -158.56,-197.95l-99.59 -1.98c-47.89,379.47 245.08,964.38 401.15,1138.31 121.55,-24.63 103.65,-2.83 166.18,-87.37z"/>
   <path className="fil3" d="M10433.77 5331.03l10.29 683.69c38.4,124.33 63.93,165.06 150.9,277.5 107.26,138.66 74.86,123.85 247.35,202.73 -337.52,-352.52 -119.03,-1141.48 70.56,-1533.32 -225.12,73.16 -353.18,232.56 -479.1,369.4z"/>
   <path className="fil3" d="M12793.08 3538.92c-76.33,102.41 -101.35,160.01 -161.7,241.21 -52.68,70.87 -96.29,115.63 -150.16,200.7 -96.63,152.6 -167.99,391.23 -122.96,586l153.85 53.67c166.31,-239.91 404.31,-680.02 391.87,-1096.66l-110.9 15.08z"/>
   <path className="fil3" d="M13574.45 6030.22c-212.01,-44.43 -460.37,-817.59 -342.67,-1104.49l-401.02 80.35c63.39,245.91 170.57,691.07 336.91,832.3 81.02,68.81 294.23,322.8 406.78,191.84z"/>
   <path className="fil3" d="M1421.81 6037.94c58.97,39.62 -62.44,35.02 93.23,24.28 90.05,-6.22 149.38,-78.23 191.59,-119.03 48.04,-46.43 195.66,-177.98 230.63,-229.61 1.94,-2.86 199.12,-619.42 218.24,-685.62 -124.27,-51.91 -231.21,-86.21 -389.69,-105.72 60.15,111.01 2.05,445.79 -53.45,638.59 -62.65,217.67 -155.51,373.78 -290.55,477.11z"/>
   <path className="fil3 str0" d="M6289.78 6698.19c-21.66,-294.86 -32.29,-513.42 -21.34,-820.01 9.17,-256.56 81.26,-531.77 82.76,-799.24l-168.3 18.74c-54.06,541.98 -230.24,640.26 19.93,1422.73 32.91,102.91 35.84,109.66 86.95,177.78z"/>
   <path className="fil3" d="M10030.54 4670.07c-109.88,-474.74 34.47,-826.51 57.45,-1272.24l-263.45 63.42c34.9,390.34 16.62,719.71 -48.38,1103.7l254.38 105.12z"/>
   <path className="fil3" d="M3287.58 6308.69c211.21,-151.06 320.1,-477.06 321.05,-719.09 1.59,-405.08 150.27,-614.75 -210.87,-750.62 16.18,257.63 62.08,515.04 35.96,785.78 -26.19,271.52 -90.89,430.69 -146.14,683.93z"/>
   <path className="fil3" d="M11704.8 6292.83c-76.36,-253.16 -126.76,-392.22 -147.41,-668.7 -22.3,-298.46 34.69,-520.52 30.42,-781.88 -103.04,41.33 -225.47,152.92 -237.51,250.14 -8.73,70.49 37.37,369.58 36.89,497.4 -0.79,205.9 -7.2,219.61 81.39,393.72 83.41,163.92 109.79,220.54 236.22,309.32z"/>
   <path className="fil3" d="M2446.56 6071.91c299.83,-85.97 323.87,-284.09 341.99,-469.41 25.42,-259.89 88.55,-366.77 146.2,-579.14 -99.14,-60.21 -177.25,-112.89 -315.97,-139.22 83.02,318.4 -19.92,909.04 -172.22,1187.77z"/>
   <path className="fil3" d="M12206.02 5840.46c86.03,87.27 97.35,77.8 173.66,192.79 82.7,9.72 20,-13.34 121.45,33.57 -64.94,-330.05 -252.46,-842.86 -116.86,-1176.75 -163.01,27 -178.75,48.69 -313.08,133.5 42.43,253.45 189.36,530.85 134.83,816.89z"/>
   <path className="fil3" d="M2124.28 4595.44c-18.68,-171.29 -83.07,-337.32 -163.17,-462.18 -48.75,-75.99 -82.76,-117.6 -134.88,-183.47 -74.14,-93.7 -37.46,-89.25 -155.79,-190.38 -53.44,-71.08 43.45,-24.84 -106.99,-43.12 7.92,281.84 324.19,1028.92 560.83,879.15z"/>
   <path className="fil3" d="M3484.17 4447.47c106.03,-75.03 195.58,-81.74 185.33,-247.58 -7.99,-129.15 -3.21,-348.53 -56.27,-447.67 -59.8,-111.72 -356.06,-318.42 -551.88,-395.81 315.03,473.34 463.56,432.39 422.82,1091.06z"/>
   <path className="fil3" d="M13234.7 3787.61c-63.33,104.28 -94.25,123.19 -145.48,201.44 -32.47,49.59 -81.41,143.49 -104.78,177.78 -106.74,156.62 -109.75,216.63 -144.06,380.33 21.89,63.57 -43.85,21.7 48.22,72 241.3,-74.55 467.36,-547.46 474.2,-891.17l-128.1 59.62z"/>
   <path className="fil3" d="M7658.76 6505.06l99.57 95.82c-96.51,-529.44 -166.55,-880.89 -155.61,-1443.23l-147.05 73.27c-91.55,357.21 121.38,935.99 203.09,1274.14z"/>
   <path className="fil3" d="M7349.92 6327.15c165.46,-384.16 -93.75,-721.99 37.66,-1187.82l-305.5 -67.68c19.47,390.63 311.82,736.95 267.84,1255.5z"/>
   <path className="fil3" d="M9557.52 7038.22c75.65,88.03 121.87,174.28 225.36,212.5 126.23,46.61 218.17,-3.41 286.77,-71.25 147.4,-145.79 172.08,-397.12 206.54,-610.11 -104.61,162.42 -135.73,224.72 -259.82,344.59 -135.55,130.95 -254.29,114.46 -458.85,124.27z"/>
   <path className="fil3" d="M11449.12 4384.67c3.98,-223.15 18.74,-287.19 97.03,-493.62 66.63,-175.66 171.69,-284.9 209.9,-434.19 -141.22,67.03 -330.07,203.56 -405,281.23l-60.89 508.56c99.51,93.29 47.26,78.09 158.96,138.02z"/>
   <path className="fil3" d="M12358.26 4566.83c-45.03,-194.77 26.33,-433.4 122.96,-586 53.87,-85.07 97.48,-129.83 150.16,-200.7 60.35,-81.2 85.37,-138.8 161.7,-241.21 -225.55,86.06 -363.53,230.33 -473.72,387.1 -145.52,207.06 -152.25,497.58 38.9,640.81z"/>
   <path className="fil3 str0" d="M2596.03 4550.65c138.7,-164.88 118.22,-205.76 104.59,-339.3 -30.86,-302.29 -352.77,-605.94 -572.33,-709.66 74.66,173.52 59.02,82.97 158.56,197.95 30.78,35.56 127.05,174.03 162.14,228.12 126.13,194.48 157.35,368.12 147.04,622.89z"/>
   <path className="fil6" d="M1613.76 4609.7l-20.95 -330.14c-13.09,-54.67 -45.86,-152.14 -72.54,-201.89 -52.09,-97.11 -42.26,-77.25 -178.12,-119.42 -27.85,331 15.62,547.1 271.61,651.45z"/>
   <path className="fil7" d="M13274.46 4647.79l159.28 -102.23c150.53,-157 199.53,-375.83 210.25,-602.31l-122.91 160.6c-31.8,54.3 -64.98,93.46 -97.87,147.23 -69.95,114.32 -120.75,270.27 -148.75,396.71z"/>
   <path className="fil3" d="M13274.46 4647.79c28,-126.44 78.8,-282.39 148.75,-396.71 32.89,-53.77 66.07,-92.93 97.87,-147.23l122.91 -160.6 -211.14 14.17c-34.05,133.94 -58.86,224.59 -125.84,355.53 -81.51,159.36 -140.81,187.84 -32.55,334.84z"/>
   <path className="fil3" d="M12840.38 4547.16c34.31,-163.7 37.32,-223.71 144.06,-380.33 23.37,-34.29 72.31,-128.19 104.78,-177.78 51.23,-78.25 82.15,-97.16 145.48,-201.44 -133.89,48.1 -90.46,38.9 -183.1,128.11 -82.39,79.34 -89.94,44.94 -146.59,174.02 -55.87,127.3 -207.13,369.62 -64.63,457.42z"/>
   <path className="fil3" d="M2124.28 4595.44l68.69 -68.26c-15.72,-135.56 -121.38,-292.25 -175.86,-448.77 -51.79,-148.79 -192.29,-279.01 -346.67,-319 118.33,101.13 81.65,96.68 155.79,190.38 52.12,65.87 86.13,107.48 134.88,183.47 80.1,124.86 144.49,290.89 163.17,462.18z"/>
   <path className="fil3 str0" d="M8948.85 5260.77c-50.45,-186.75 -128.13,-178.17 -334.8,-181.52 28.76,30.36 17.12,28.74 65.27,58.54 36.72,22.72 62.7,28.29 99.26,47.2 106.3,54.98 53.81,50.48 170.27,75.78z"/>
   <path className="fil3" d="M1613.76 4609.7l152.58 -79.65 -173.53 -250.49 20.95 330.14z"/>
  </g>
 </g>
</svg>
