<?xml version="1.0" encoding="UTF-8"?>
<!DOCTYPE svg PUBLIC "-//W3C//DTD SVG 1.0//EN" "http://www.w3.org/TR/2001/REC-SVG-20010904/DTD/svg10.dtd">
<!-- Creator: CorelDRAW 2020 (64-Bit) -->
<svg xmlns="http://www.w3.org/2000/svg" xml:space="preserve" width="150mm" height="100mm" version="1.0" style="shape-rendering:geometricPrecision; text-rendering:geometricPrecision; image-rendering:optimizeQuality; fill-rule:evenodd; clip-rule:evenodd"
viewBox="0 0 15000 10000"
 xmlns:xlink="http://www.w3.org/1999/xlink"
 xmlns:xodm="http://www.corel.com/coreldraw/odm/2003">
 <defs>
  <style type="text/css">
   <![CDATA[
    .str0 {stroke:#5D6A79;stroke-width:20;stroke-miterlimit:22.9256}
    .fil1 {fill:#5D6A79}
    .fil0 {fill:#F1F1F2}
   ]]>
  </style>
 </defs>
 <g id="Capa_x0020_1">
  <metadata id="CorelCorpID_0Corel-Layer"/>
  <g id="_2036084131520">
   <path class="fil0" d="M5311.22 3055.83c-34.11,324.41 -37.41,822.28 59.94,1131.8 80.29,255.25 182.77,405 397.49,562.67 48.97,35.95 141.18,83.23 189.4,117.26 348.91,32.86 760.08,34.5 1107.72,-15.44l259 -66.9c230.2,-503.99 -40.01,-940.93 -160,-1430.64l-29.3 -74.72c-113.79,-283.18 -436.47,-580.27 -828.59,-641.91 -511.19,-80.36 -852.43,88.75 -995.66,417.88z"/>
   <path class="fil0" d="M7938.75 3365.34c-75.49,202.47 -131.98,545.44 -141.09,767.86 -7.55,183.93 -13.15,425.13 61.5,589.03l92 140.19c275.5,62.01 800.78,28.35 1100.45,22.91 248.89,-252.44 394.94,-174.21 547.06,-630.53 109.69,-329.03 100.31,-684.31 76.25,-1034.75 -53.37,-346.35 -475.93,-534.6 -917.86,-483.17 -388.86,45.26 -788.03,337.15 -818.31,628.46z"/>
   <path class="fil0" d="M4525.89 6224.64c115.85,123.29 200.03,525.33 398.1,629.64 140.68,74.09 301.76,-30.85 373.45,-93.68 132.87,-116.47 70.14,-162.38 246.92,-286.83 67.18,-476.28 264.67,-952.96 105.63,-1404.06 -280.05,-65.29 -961.01,-90.52 -1199.65,24.36 -78.57,347.57 35.21,766.41 75.55,1130.57z"/>
   <path class="fil0" d="M9442.73 6375.45c55.53,89.06 161.24,228.24 230.31,311.95 57.61,69.81 188.8,196.79 330.49,188.92 275.6,-15.31 316.01,-463.55 468.19,-624.38 27.55,-281.65 188.37,-868.6 74,-1100.64 -125.03,-224.9 -1121.6,-124.5 -1200.24,-22.58 -150.12,194.52 35.01,991.08 97.25,1246.73z"/>
   <path class="fil0" d="M6098.42 5299.23c14.64,-177.18 131.86,-186.53 373.66,-101.41 272.46,95.91 177.89,37.26 423.98,-2.2 -101.62,91.9 -16.76,73.42 -141.59,131.65 -263.45,122.89 -304.94,-155.62 -656.05,-28.04zm-49.38 1159.45c26.81,26.25 21.08,21.99 51.81,60.37 280.87,350.65 661.75,309.99 912.82,-17.7 55.62,-72.59 35.36,-79.35 96.22,-161.25 117.44,-399.69 206.4,-882.5 6.69,-1216.04 -243.03,-33.93 -950.53,-53.83 -1147.57,13.44 -297.29,235.23 -19.92,997.04 80.03,1321.18z"/>
   <path class="fil0" d="M8113.29 5193.59c221.73,67.94 225.35,83.89 446.77,-2.18 185.61,-72.15 294.35,-51.86 357.05,105.88 -413.94,-106.58 -496.14,190.9 -748.21,-36.26 -47.11,-42.46 -21.7,-19.11 -55.61,-67.44zm-234.98 1140.18c213.49,181.84 61.28,295.42 445.73,401.97 297.7,82.51 376.39,-48.24 531.73,-195.32l85.46 -79.92c136.88,-187.65 222.34,-757.62 204.28,-1020.1 -15.47,-224.88 -47.53,-250.51 -132.05,-293.56 -118.9,-46.75 -952.58,-41.44 -1107.44,-7.01 -253.4,325.72 -103.22,777.52 -27.71,1193.94z"/>
   <path class="fil0" d="M10704.68 4700.29c335.02,-270.28 406.06,-87.67 614.47,-560.83 137.31,-311.74 73.3,-667.61 22.62,-988.86 -56.47,2.63 -45.23,17.98 -45.23,-33.41 -399.71,-162.83 -872.27,148.23 -1005.25,347.64 -210.87,316.19 -327.33,720.2 -165.57,1147.17 154.64,91.99 363.97,92.61 578.96,88.29z"/>
   <path class="fil0" d="M3687.72 3107.03l-30.31 40.2c17.05,380.48 -162.41,586.41 55.52,1034.38 141.22,290.29 297.38,358.1 619.17,509.24l535.2 -62.16c150.47,-382.55 107.45,-871.22 -140.98,-1143.81 -228.8,-251.04 -529.89,-538.12 -1038.6,-377.85z"/>
   <path class="fil0" d="M3619.64 5155.19c-41.22,274.33 -1.04,556.21 71.63,813.85 78.21,277.24 148.03,461.46 462.74,420.98l24.45 -36.77c-2.53,-55.66 -16.42,-42.68 37.67,-42.68 124.54,-162.29 182.17,-191.2 144.66,-436.67 -74.23,-116.31 -41.12,-47.87 -40.28,-153.84l-135.79 -473.11c-25.18,-33.35 -204.45,-190.7 -267.54,-216.82 -170.6,-70.62 -259.58,-18.97 -297.54,125.06z"/>
   <path class="fil0" d="M10914.57 5150.98l-32.18 36.38 -34.54 29.9 -23.13 50.14c-16.58,162.16 -71.64,404.7 -155.4,508.58l-30.73 126.13c-27.26,191.9 -6.74,245.33 115.09,367.84 58.68,0 43.75,-13.68 37.81,47.24l14.7 50 32.32 32c546.95,-3.03 483.37,-601.76 563.42,-1017.45 14.27,-146.66 -5.62,-222.99 -40.27,-344.33 -218.82,-40.96 -312.38,-6.4 -447.09,113.57z"/>
   <path class="fil0" d="M11736.97 6209.61c245.34,148.51 314.31,-53.59 380.91,-286.5 45.68,-159.71 88.86,-505.66 86.16,-676.86 -114.4,-442.26 -699.85,-347.69 -703.45,-66.18 -1.75,137.01 69.29,384.08 77.06,553.91 13.59,296.89 10.49,277.22 159.32,475.63z"/>
   <path class="fil0" d="M2801.23 5247.43c30.15,340.42 57.64,1117.24 429.61,989.86 136.1,-119.7 183.26,-247.07 193.83,-475.84 9.39,-202.97 54.78,-365.33 75.6,-558.47 40.4,-374.91 -584.78,-359.9 -699.04,44.45z"/>
   <path class="fil0" d="M12393.49 5700.41c124.66,133.14 212.58,344.23 450.07,315.54 111.58,-142.99 63.36,-306.43 73.02,-502.46 8.02,-219.46 -45.49,-350.4 -118.55,-500.67 -158.34,-10.81 -140.54,26.08 -285.32,26.37 -135.27,0.26 -138.59,-37 -283.61,-28.19 56.36,245.3 143.95,335.55 164.39,689.41z"/>
   <path class="fil0" d="M2119.96 5334.61c-1.4,291.51 -42.78,359.58 0.01,690.86 307.68,33.16 343.27,-147.75 483.07,-308.11 9.72,-119.37 27.14,-285.9 53.33,-398.35 25.87,-111.04 34.82,-92.47 69.16,-180.68l19.38 -139.55c-99.29,-9.54 -160.83,33.58 -284.98,29.57 -128.93,-4.16 -135.07,-37.18 -266.83,-26.8 -44.11,119.71 -84.8,173.54 -73.14,333.06z"/>
   <path class="fil0" d="M11341.77 3150.6c50.68,321.25 114.69,677.12 -22.62,988.86 -208.41,473.16 -279.45,290.55 -614.47,560.83 530.25,31.04 791.46,14.94 896.86,-497.91 78.75,-383.22 82.44,-988.33 -259.77,-1051.78l-45.23 -33.41c0,51.39 -11.24,36.04 45.23,33.41z"/>
   <path class="fil0" d="M4332.1 4690.85c-321.79,-151.14 -477.95,-218.95 -619.17,-509.24 -217.93,-447.97 -38.47,-653.9 -55.52,-1034.38l30.31 -40.2 -30.31 40.2c-340.66,133.5 -348.01,680.14 -245.34,1083.14 127.78,501.51 406.35,457.71 920.03,460.48z"/>
   <path class="fil0" d="M1283.99 5215.27c-9.01,153.02 48.9,398 102.79,550.14l45.27 98.1c119.18,184.89 350.65,-104.41 410.34,-232.82 103.33,-222.28 25,-366.23 27.03,-589.8 -308.06,0.88 -507.28,-135.55 -585.43,174.38z"/>
   <path class="fil0" d="M13170.36 5054.94c-114.65,262.64 -53.27,809.54 328.14,863.19 278.34,-317.37 82.23,-319.04 262.64,-492.19l-105.79 -404.27 -484.99 33.27z"/>
   <path class="fil0" d="M5959.25 4873.71c-45.92,-32.63 -133.74,-77.95 -180.37,-112.41 -204.49,-151.15 -302.08,-294.7 -378.54,-539.39 -92.71,-296.71 -89.57,-773.98 -57.09,-1084.97 -249.68,294.59 -302.27,1391.2 -52.87,1655.55 157.86,75 457.3,77.92 668.87,81.22z"/>
   <path class="fil0" d="M9051.61 4885.33c558.73,2.09 750.82,16.53 799.37,-545.06 27.7,-320.54 61.84,-916.36 -176.06,-1120.22 24.06,350.44 33.44,705.72 -76.25,1034.75 -152.12,456.32 -298.17,378.09 -547.06,630.53z"/>
   <path class="fil0" d="M11736.03 3943.9c-23.6,247.06 -93.94,458.91 -175.63,650.89l136.44 36.68c129.89,18.5 196.97,-24.82 260.53,-100.21 73.03,-86.63 84.57,-145.46 101.01,-256.41 19.36,-130.71 82.34,-562.32 77.35,-683.81 -82.64,-114.01 -59.94,-101.31 -215.92,-138.95 -17.55,34.15 -29.42,74.37 -49.73,109.43 -25.78,44.48 -62.99,79.46 -72.79,99.66 -28.51,58.77 -28.23,186.86 -61.26,282.72z"/>
   <path class="fil0" d="M2866.26 3585.64c22.45,277.68 92.07,836.7 204.81,1013.51l206.5 35.98 159.22 -53.88c-109.06,-228.84 -142.81,-377.36 -179.6,-675.18 -18.66,-74.23 -35.81,-214.88 -61.01,-274.02 -17.81,-41.8 -76.92,-122.43 -107.92,-184.08 -158.02,12.87 -166.09,11.06 -222,137.67z"/>
   <path class="fil0" d="M2153.03 3885.23c66.38,105.2 209.24,662.27 461.11,765.03 86.34,-20.49 53.62,-4.26 140.13,-47.13 21.13,-98.42 -5.58,-219.19 -23.29,-350.75 -42.21,-313.42 -299.19,-560.34 -589.48,-670.33 -36.19,112.5 -22.18,170.07 11.53,303.18z"/>
   <path class="fil0" d="M12366.38 4665.33c197.43,-78.25 307.06,-335.51 395.51,-537.92l89.95 -242.18c31.92,-111.24 44.1,-170.64 11.66,-282.47 -198.99,38.11 -409.66,282 -502.08,416.52 -78.13,113.73 -78.16,194.25 -105.24,357.39 -35.73,215.33 -17.78,172.9 110.2,288.66z"/>
   <path class="fil0" d="M9442.73 6375.45c53.25,323.05 249.47,1011.96 577.53,914.16 243.88,-72.71 385.04,-699.39 451.46,-1037.67 -152.18,160.83 -192.59,609.07 -468.19,624.38 -141.69,7.87 -272.88,-119.11 -330.49,-188.92 -69.07,-83.71 -174.78,-222.89 -230.31,-311.95z"/>
   <path class="fil0" d="M8941.23 6460.5l-85.46 79.92c-155.34,147.08 -234.03,277.83 -531.73,195.32 -384.45,-106.55 -232.24,-220.13 -445.73,-401.97 87.64,272.14 177.71,556.01 339.72,785.56 304.21,431.07 651.53,-363 723.2,-658.83z"/>
   <path class="fil0" d="M5544.36 6473.77c-176.78,124.45 -114.05,170.36 -246.92,286.83 -71.69,62.83 -232.77,167.77 -373.45,93.68 -198.07,-104.31 -282.25,-506.35 -398.1,-629.64 60.88,301.14 172.91,917.1 440.45,1046.06 304.26,146.66 505.11,-517.61 578.02,-796.93z"/>
   <path class="fil0" d="M6049.04 6458.68c92.41,297.32 277.18,673.21 499.74,775.63 318.62,-38.5 465.1,-577.14 561.11,-894.21 -60.86,81.9 -40.6,88.66 -96.22,161.25 -251.07,327.69 -631.95,368.35 -912.82,17.7 -30.73,-38.38 -25,-34.12 -51.81,-60.37z"/>
   <path class="fil0" d="M10838.51 6399.19l-32.32 -32 -14.7 -50c5.94,-60.92 20.87,-47.24 -37.81,-47.24l37.81 47.24 14.7 50 32.32 32c79.53,146.51 155.4,236.95 366.94,278.84 206.98,-109.6 256.96,-273.11 277.16,-569.47 13.61,-199.7 32.42,-583.4 -80.68,-726.82 -80.05,415.69 -16.47,1014.42 -563.42,1017.45z"/>
   <path class="fil0" d="M4154.01 6390.02l24.45 -36.77 37.67 -42.68c-54.09,0 -40.2,-12.98 -37.67,42.68l-24.45 36.77c-314.71,40.48 -384.53,-143.74 -462.74,-420.98 -72.67,-257.64 -112.85,-539.52 -71.63,-813.85 -81.29,170.7 -109.29,629.33 -104.12,847.76 8.21,346.8 49.69,516.89 281.59,662.34 200.87,-49.52 268.65,-139.75 356.9,-275.27z"/>
   <path class="fil0" d="M11736.97 6209.61c129.54,161.98 135.48,305.76 420.98,320.91 216.72,-217.92 182.5,-992.39 46.09,-1284.27 2.7,171.2 -40.48,517.15 -86.16,676.86 -66.6,232.91 -135.57,435.01 -380.91,286.5z"/>
   <path class="fil0" d="M3230.84 6237.29c-371.97,127.38 -399.46,-649.44 -429.61,-989.86 -176.32,325.72 -100.48,944.92 -16.87,1272.38 280.13,11.74 329.03,-150.88 446.48,-282.52z"/>
   <path class="fil0" d="M13761.14 5425.94c-180.41,173.15 15.7,174.82 -262.64,492.19 -381.41,-53.65 -442.79,-600.55 -328.14,-863.19l-193.66 11.23c-3.87,116.32 78.11,548.96 126.89,654.87 51.76,112.38 379.26,327.82 465.47,350.69 209.95,-123.21 265.31,-355.64 192.08,-645.79z"/>
   <path class="fil0" d="M1283.99 5215.27c-46.07,123.67 -78.5,319.79 -66.93,469.17 5.29,68.34 26.3,172.13 51.97,232.29 62.7,146.93 28.73,87.65 128.94,134.42 113.77,11.67 438.69,-256.1 477.57,-313.43 98.93,-145.9 125.16,-483.89 166.15,-689.57l-172.27 -7.26c-2.03,223.57 76.3,367.52 -27.03,589.8 -59.69,128.41 -291.16,417.71 -410.34,232.82l-45.27 -98.1c-53.89,-152.14 -111.8,-397.12 -102.79,-550.14z"/>
   <path class="fil0" d="M12805.8 4654.33c186.75,-35.63 214.25,-151.09 316.65,-333.46 56.1,-99.91 57.56,-123.7 90.94,-228.19 55.18,-172.72 91.88,-176.89 50.68,-237.95 -397.46,137.27 -365.11,407.08 -435.84,596.4 -76.78,205.53 -74.08,175.4 -22.43,203.2z"/>
   <path class="fil0" d="M2166.96 4652.62l70.88 -26.74c-21.22,-99.08 -96.89,-363.31 -151.59,-476.31 -53.38,-110.29 -10.47,-29.81 -76.82,-99.22 -2.62,-2.73 -69.6,-68.99 -70.9,-70.13 -75.27,-66.32 -95.22,-52.12 -177.73,-135.03 -61.06,2.54 -47.5,19.17 -53.43,-34.3 -53.34,-10.71 -39.03,-21.7 -43.43,32.32 127.22,77.39 79,74.27 130.94,244.3 29.3,95.88 55.34,136.75 98.07,222.45 84.83,170.15 124.41,264.58 274.01,342.66z"/>
   <path class="fil0" d="M12393.49 5700.41l11.49 200.21c96.65,63.53 285.29,255.34 443.66,297.16 23.99,6.33 62.21,11.89 86.61,11.82 148.42,-0.42 32.39,-0.13 85.26,-21.17 52.27,-159.15 -3.04,-559.32 -103.93,-674.94 -9.66,196.03 38.56,359.47 -73.02,502.46 -237.49,28.69 -325.41,-182.4 -450.07,-315.54z"/>
   <path class="fil0" d="M2603.04 5717.36c-139.8,160.36 -175.39,341.27 -483.07,308.11 -42.79,-331.28 -1.41,-399.35 -0.01,-690.86l-79.8 213.64c-184.32,801.65 -1.95,832.17 560.29,312.41l2.59 -143.3z"/>
   <path class="fil0" d="M11696.84 4631.47c117.83,64.64 206.13,82.65 355.27,64.53 172.68,-210.69 181.79,-877.69 83.62,-1104.96 4.99,121.49 -57.99,553.1 -77.35,683.81 -16.44,110.95 -27.98,169.78 -101.01,256.41 -63.56,75.39 -130.64,118.71 -260.53,100.21z"/>
   <path class="fil0" d="M3277.57 4635.13l-206.5 -35.98c-112.74,-176.81 -182.36,-735.83 -204.81,-1013.51 -90.91,225.81 -64.46,896.39 71.32,1096.23 132.09,24.84 222.6,4.74 339.99,-46.74z"/>
   <path class="fil0" d="M7951.16 4862.42l-92 -140.19c-74.65,-163.9 -69.05,-405.1 -61.5,-589.03 9.11,-222.42 65.6,-565.39 141.09,-767.86 -307,254.25 -267.26,1137.71 -140.58,1485.31l152.99 11.77z"/>
   <path class="fil0" d="M7108.44 3423.33c54.07,469.59 226.72,926.35 7.49,1409.49l-101.77 26.08 101.77 -26.08c135.23,-19.94 148.04,-115.7 173.32,-279.24 21.56,-139.49 28.17,-281.27 16.7,-422.09 -19.38,-237.9 -69,-543.44 -197.51,-708.16l-27.9 -71.63 27.9 71.63z"/>
   <path class="fil0" d="M1760.8 3845.19l-53.43 -34.3c5.93,53.47 -7.63,36.84 53.43,34.3zm406.16 807.43c-149.6,-78.08 -189.18,-172.51 -274.01,-342.66 -42.73,-85.7 -68.77,-126.57 -98.07,-222.45 -51.94,-170.03 -3.72,-166.91 -130.94,-244.3 10.36,285.71 200.38,988.57 503.02,809.41z"/>
   <path class="fil0" d="M12805.8 4654.33c163.34,159.67 353.84,-111.47 407.83,-246.01 70.13,-174.76 128.62,-401.75 127.81,-607.26l-77.37 53.67c41.2,61.06 4.5,65.23 -50.68,237.95 -33.38,104.49 -34.84,128.28 -90.94,228.19 -102.4,182.37 -129.9,297.83 -316.65,333.46z"/>
   <path class="fil0" d="M13234.26 4674.81l127.64 -118.52c107.23,-142.79 135.02,-364.31 261.91,-484.21l-1.41 -137.69c-303.59,109.06 -155.02,189.96 -334.86,551.68l-57.83 164.75c-0.36,-4.79 2.41,16.14 4.55,23.99z"/>
   <path class="fil0" d="M1376.75 4042.9c77.01,58.04 245.5,484.01 367.36,617.19 63.54,-63.55 51.44,99.08 53.49,-86.68 -240.53,-181.44 -63.75,-468.5 -354.21,-642.72 -61.56,42.6 -34.48,-72.95 -66.64,112.21z"/>
   <path class="fil0" d="M6098.42 5299.23c351.11,-127.58 392.6,150.93 656.05,28.04 124.83,-58.23 39.97,-39.75 141.59,-131.65 -246.09,39.46 -151.52,98.11 -423.98,2.2 -241.8,-85.12 -359.02,-75.77 -373.66,101.41z"/>
   <path class="fil0" d="M8113.29 5193.59c33.91,48.33 8.5,24.98 55.61,67.44 252.07,227.16 334.27,-70.32 748.21,36.26 -62.7,-157.74 -171.44,-178.03 -357.05,-105.88 -221.42,86.07 -225.04,70.12 -446.77,2.18z"/>
   <path class="fil0" d="M2614.14 4650.26c-251.87,-102.76 -394.73,-659.83 -461.11,-765.03 17.21,214.91 68.67,361.6 133.69,554.68 46.9,139.28 20.87,146.48 121.61,202 58.78,32.39 177.06,73.94 205.81,8.35z"/>
   <path class="fil0" d="M1744.11 4660.09c-121.86,-133.18 -290.35,-559.15 -367.36,-617.19 9.89,262.9 105.89,534.71 271,661.61l96.36 -44.42z"/>
   <path class="fil0" d="M12366.38 4665.33c71.51,48.04 198.78,31.58 266.96,-22.96 55.41,-44.33 67.87,-139.78 95.33,-225.38 58.94,-183.78 99.46,-364.94 123.17,-531.76l-89.95 242.18c-88.45,202.41 -198.08,459.67 -395.51,537.92z"/>
   <path class="fil0" d="M13234.26 4674.81l171.61 25.5c92.16,-120.9 204.2,-395.99 217.94,-628.23 -126.89,119.9 -154.68,341.42 -261.91,484.21l-127.64 118.52z"/>
   <path class="fil0" d="M10847.85 5217.26l-23.13 50.14 -138.06 42.08 -17.34 466.5 -30.73 126.13 30.73 -126.13c83.76,-103.88 138.82,-346.42 155.4,-508.58l23.13 -50.14 34.54 -29.9 32.18 -36.38 -32.18 36.38 -34.54 29.9z"/>
   <path class="fil0" d="M4320.51 5720.06c-0.84,105.97 -33.95,37.53 40.28,153.84l-40.28 -153.84c32.45,-137.88 11.19,-204.75 -0.05,-355.36l-135.74 -117.75 135.79 473.11z"/>
   <path class="fil0" d="M11736.03 3943.9c33.03,-95.86 32.75,-223.95 61.26,-282.72 9.8,-20.2 47.01,-55.18 72.79,-99.66 20.31,-35.06 32.18,-75.28 49.73,-109.43 -103.03,32.7 -119.68,70.95 -177.09,122.81l-6.69 369z"/>
   <path class="fil0" d="M3257.19 3906.07c-1.58,-193.55 19.01,-300.67 -44.4,-425.45l-124.53 -32.65c31,61.65 90.11,142.28 107.92,184.08 25.2,59.14 42.35,199.79 61.01,274.02z"/>
   <path class="fil0" d="M11554.89 6312.94l30.08 -82.04c31.86,36.38 58.94,29.57 72.98,58 -24.56,-91.78 -19.08,-60.36 -64.45,-110.21 -20.76,37 -43.08,-58.71 -38.61,134.25z"/>
   <g>
    <g>
     <path class="fil1" d="M10638.59 5902.11l30.73 -126.13 17.34 -466.5 138.06 -42.08 23.13 -50.14 66.72 -66.28c134.71,-119.97 228.27,-154.53 447.09,-113.57 34.65,121.34 54.54,197.67 40.27,344.33 113.1,143.42 94.29,527.12 80.68,726.82 -20.2,296.36 -70.18,459.87 -277.16,569.47 -211.54,-41.89 -287.41,-132.33 -366.94,-278.84l-32.32 -32 -14.7 -50 -37.81 -47.24c-121.83,-122.51 -142.35,-175.94 -115.09,-367.84zm-6422.46 408.46l-62.12 79.45c-88.25,135.52 -156.03,225.75 -356.9,275.27 -231.9,-145.45 -273.38,-315.54 -281.59,-662.34 -5.17,-218.43 22.83,-677.06 104.12,-847.76 37.96,-144.03 126.94,-195.68 297.54,-125.06 63.09,26.12 242.36,183.47 267.54,216.82l135.74 117.75c11.24,150.61 32.5,217.48 0.05,355.36l40.28 153.84c37.51,245.47 -20.12,274.38 -144.66,436.67zm5013.76 -421c0.05,0.08 23.53,28.97 24.66,50.24 10.38,195.41 45.94,-135.52 -11.53,71.8 -1.42,5.11 -8.18,15.98 -13.13,23.45 -23.19,-38.47 -80.92,-11.25 0,-145.49zm-3685.53 584.2c-72.91,279.32 -273.76,943.59 -578.02,796.93 -267.54,-128.96 -379.57,-744.92 -440.45,-1046.06 -40.34,-364.16 -154.12,-783 -75.55,-1130.57 238.64,-114.88 919.6,-89.65 1199.65,-24.36 159.04,451.1 -38.45,927.78 -105.63,1404.06zm3396.87 -13.27c-71.67,295.83 -418.99,1089.9 -723.2,658.83 -162.01,-229.55 -252.08,-513.42 -339.72,-785.56 -75.51,-416.42 -225.69,-868.22 27.71,-1193.94 154.86,-34.43 988.54,-39.74 1107.44,7.01 84.52,43.05 116.58,68.68 132.05,293.56 18.06,262.48 -67.4,832.45 -204.28,1020.1zm-1831.34 -120.4c-96.01,317.07 -242.49,855.71 -561.11,894.21 -222.56,-102.42 -407.33,-478.31 -499.74,-775.63 -99.95,-324.14 -377.32,-1085.95 -80.03,-1321.18 197.04,-67.27 904.54,-47.37 1147.57,-13.44 199.71,333.54 110.75,816.35 -6.69,1216.04zm3361.83 -88.16c-66.42,338.28 -207.58,964.96 -451.46,1037.67 -328.06,97.8 -524.28,-591.11 -577.53,-914.16 -62.24,-255.65 -247.37,-1052.21 -97.25,-1246.73 78.64,-101.92 1075.21,-202.32 1200.24,22.58 114.37,232.04 -46.45,818.99 -74,1100.64zm1732.32 -1005.69c136.41,291.88 170.63,1066.35 -46.09,1284.27 -285.5,-15.15 -291.44,-158.93 -420.98,-320.91 -148.83,-198.41 -145.73,-178.74 -159.32,-475.63 -7.77,-169.83 -78.81,-416.9 -77.06,-553.91 3.6,-281.51 589.05,-376.08 703.45,66.18zm966.32 -191.31l484.99 -33.27 105.79 404.27c73.23,290.15 17.87,522.58 -192.08,645.79 -86.21,-22.87 -413.71,-238.31 -465.47,-350.69 -48.78,-105.91 -130.76,-538.55 -126.89,-654.87l193.66 -11.23zm-9939.52 1182.35c-117.45,131.64 -166.35,294.26 -446.48,282.52 -83.61,-327.46 -159.45,-946.66 16.87,-1272.38 114.26,-404.35 739.44,-419.36 699.04,-44.45 -20.82,193.14 -66.21,355.5 -75.6,558.47 -10.57,228.77 -57.73,356.14 -193.83,475.84zm-1946.85 -1022.02c78.15,-309.93 277.37,-173.5 585.43,-174.38l172.27 7.26c-40.99,205.68 -67.22,543.67 -166.15,689.57 -38.88,57.33 -363.8,325.1 -477.57,313.43 -100.21,-46.77 -66.24,12.51 -128.94,-134.42 -25.67,-60.16 -46.68,-163.95 -51.97,-232.29 -11.57,-149.38 20.86,-345.5 66.93,-469.17zm11632.59 298.22c100.89,115.62 156.2,515.79 103.93,674.94 -52.87,21.04 63.16,20.75 -85.26,21.17 -24.4,0.07 -62.62,-5.49 -86.61,-11.82 -158.37,-41.82 -347.01,-233.63 -443.66,-297.16l-11.49 -200.21c-20.44,-353.86 -108.03,-444.11 -164.39,-689.41 145.02,-8.81 148.34,28.45 283.61,28.19 144.78,-0.29 126.98,-37.18 285.32,-26.37 73.06,150.27 126.57,281.21 118.55,500.67zm-10313.54 203.87l-2.59 143.3c-562.24,519.76 -744.61,489.24 -560.29,-312.41l79.8 -213.64c-11.66,-159.52 29.03,-213.35 73.14,-333.06 131.76,-10.38 137.9,22.64 266.83,26.8 124.15,4.01 185.69,-39.11 284.98,-29.57l-19.38 139.55c-34.34,88.21 -43.29,69.64 -69.16,180.68 -26.19,112.45 -43.61,278.98 -53.33,398.35zm6626.89 -744.58l84.76 23.64c-78.54,43.76 -55.2,38.19 -82.77,120.06 6.51,108.83 23.36,56.09 -42.06,42.1 -3.61,-0.77 -17.16,-6.64 -20.77,-7.99 -5.01,-1.86 -15.44,-14.19 -20.51,-23.18l-20.28 -48.76 -164.25 -49.35c27.59,-15.85 -13.08,-26.07 122.53,-52.05 73.6,-14.09 86.99,-5.25 143.35,-4.47zm-2253.29 17.06c294.76,-37.41 352.24,-73.45 412.58,-378.21 52.51,-265.17 22.52,-514.08 -6.15,-781.26l0.66 0.05c-6.29,-17.49 -8.84,-39.34 -7.55,-57.72l-0.82 -8.71c-17.84,-39.39 -10.49,-69.45 -22.71,-93.29 -4.48,-8.73 -7.89,-17.9 -10.23,-27.25 -31.03,-42.79 -43.76,-136.77 -140.91,-337.29 -70.52,-145.54 -130.56,-228.29 -232.04,-335.28 -458.34,-483.24 -1693.97,-743.42 -1929.94,737.23 -77.65,-40.49 -653.47,-1076.78 -1429.78,-682 -212.58,108.1 -191.71,243.83 -351.18,398.22 -149.61,-132.09 -437.24,-167.55 -522.39,211.18 -23.46,104.33 -16.56,176.44 -74.79,258.36 -78.65,-144.03 -743.38,-858.21 -635.14,-3.33 -137.1,-95.54 -227.65,-201.53 -439.26,-224.48l-42.4 192.83c-321.94,-86.05 -325.72,128.72 -243.87,432.46 210.05,779.42 459.17,433.23 616.73,450.12 158.11,16.96 93.01,102.76 322.7,18.84 244.5,-89.34 279.16,188.79 516.3,-73.78 188.82,75.82 162.53,202.6 584.83,46.68 385.29,-142.26 111.4,163.6 1259.85,61.78 314.54,-27.88 375.78,-66.78 443.5,-339.21 59.28,252.69 104.86,298.75 202.48,457.83 -987.88,-8.44 -637.86,-26.2 -956.11,258.15 -189.33,-215.86 -425.23,-356.51 -740.83,-191.13 -583.86,-340.84 -456.77,-60.96 -700.38,-60.27 -100.36,0.28 -53.01,-42.34 -258.04,-14.77 -203.64,27.39 -135.62,-2.71 -287.63,-12.52 -168.73,-10.89 -79.12,37.62 -236.58,49.93 -162.62,12.72 -492.86,-52.3 -632.01,-37.64 -310.12,32.68 -384.11,645.25 -293.08,963.76 139.84,489.34 485.87,269.95 704.05,47.11 12.82,201.73 -2.74,217.85 61.23,380.6 408.73,52.51 441.45,-162.28 680.83,-252.85 18.27,288.04 21.02,612.2 320.38,584.62 109.8,-10.11 247.55,-101.89 298.99,-157.08 115.33,-123.77 53.89,-154.59 215.73,-262.36 49.37,588.61 441.71,877.82 975.12,47.33 163.79,308.32 177.37,1263.95 735.17,1133.3 459.44,-107.61 487.75,-1120.3 638.72,-1259.71 136.15,52.43 325.58,1187.96 778.19,1212.3 344.65,18.52 563.14,-585.13 648.6,-874.62 41.59,-140.87 46.87,-255.57 97.11,-310.51 -5.49,-50.1 17.98,-102.05 17.98,-102.06 6.38,-70.91 12.38,-64.32 17.09,-92.91l-14.9 2.85c38.29,-531.95 113.38,-904.22 -340.1,-975.29zm743.82 1217.28c139.68,270.97 230.59,1129.98 699.18,1145.69 491.97,16.51 650.54,-1121.04 810.25,-1211.48 183.58,163.32 154.41,1147.6 649.56,1263.92 495.55,116.42 590.68,-761 715.6,-1140.82 91.43,133.13 310.86,408.66 468.29,481.84 290.52,135.04 485.21,-178.43 491.55,-433.33 -4.47,-192.96 17.85,-97.25 38.61,-134.25 45.37,49.85 39.89,18.43 64.45,110.21 62.7,111.55 308.43,372.19 494.96,349.19 236.11,-29.12 231.12,-340.59 267.97,-584.53 149.11,106.08 798.93,625.98 721.93,-129.21 94.09,41.39 538.91,567.86 720.76,-52.07 51.19,-174.5 67.44,-931.26 -295.95,-958 -143.05,-10.53 -420.36,42.09 -585.26,44.49 -166.49,2.42 -56.93,-37.53 -226.28,-56.25l-577.27 13.68c-123.13,7.7 -76.93,-24.96 -214.47,-67.04 -228.83,-70.01 -376.85,73.16 -511.95,141.32 -326.08,-175.24 -558.62,16.43 -740.83,190.14 -127.5,-123.65 -71.3,-204.46 -336.94,-256.04 -186.73,-36.26 -408.8,-7.92 -600.39,-1.52l66.63 -111.27c80.37,-136.54 76.47,-154.71 116.94,-350.85 78.2,430.39 615.23,388.44 1148.39,351.87 315.78,-21.66 265.4,-177.07 521.27,-83.01 476.79,175.27 460.27,46.83 608.21,-32.93 206.69,217.59 260.91,64.76 423.59,55.96 106.3,-5.74 4.84,7.49 145.7,37.15 213.37,44.93 207.06,-57.18 332.19,-40.13 162.77,22.19 376.06,299.38 564.39,-453.19 71.58,-286.05 98.55,-530.03 -250.93,-428.39 -6.22,-127.81 5.25,-113.35 -52.85,-189.63 -250.13,28.62 -244.17,129.28 -420.21,217.34 21.22,-195.67 31.71,-244.07 -31.71,-403.2 -270.63,-21.18 -514.77,279.11 -594.89,410.66 -6.96,-8.95 -14.44,-34.92 -17.01,-29.45 -2.52,5.38 -12.49,-21.49 -15.69,-29.49 -55.06,-137.74 -83.3,-728.98 -614.57,-409.8 -115.46,-411.33 -490.07,-568.96 -972.99,-413.32 -510.05,164.39 -574.81,510.32 -741.85,699.31 -141.61,-224.39 -114.24,-1134.18 -1109.81,-1105.42 -686.26,19.83 -1059.7,476.97 -1206.49,1043.86 -1.5,13.08 -8.09,29.97 -16.99,47.94 -0.41,6.72 -1.53,13.58 -3.46,20.5 -5.03,21.45 -26.83,60.53 -25.73,82.46 0.75,14.9 -1.72,29.09 -6.77,41.91 -114.79,1056.36 29.61,1137.9 637.45,1158.6 -175.11,-88.74 -465.69,10.66 -539.35,186.81 -85.85,205.28 -61.39,498.77 -33.65,733.68 9.99,20.6 13.08,45.45 5.29,72.73 -7.64,33.04 9.63,88.57 13.2,123.78l12.6 58.66c0.22,1.51 2.92,9.43 5.33,20.92zm-2025.97 -1224.45l286.08 11.74c-100.86,61.19 -103.59,43.85 -172.62,139.67l-113.46 -151.41zm3357.12 -97.34c-299.67,5.44 -824.95,39.1 -1100.45,-22.91l-152.99 -11.77c-126.68,-347.6 -166.42,-1231.06 140.58,-1485.31 30.28,-291.31 429.45,-583.2 818.31,-628.46 441.93,-51.43 864.49,136.82 917.86,483.17 237.9,203.86 203.76,799.68 176.06,1120.22 -48.55,561.59 -240.64,547.15 -799.37,545.06zm-3708.36 -1748.39c738.92,-1709.1 2924.63,1400.68 1670.91,1721.96 -331.06,47.88 -722.63,46.31 -1054.91,14.81 -211.57,-3.3 -511.01,-6.22 -668.87,-81.22 -249.4,-264.35 -196.81,-1360.96 52.87,-1655.55zm7891.01 1537.87c-2.14,-7.85 -4.91,-28.78 -4.55,-23.99l57.83 -164.75c179.84,-361.72 31.27,-442.62 334.86,-551.68l1.41 137.69c-13.74,232.24 -125.78,507.33 -217.94,628.23l-171.61 -25.5zm-11857.51 -631.91c32.16,-185.16 5.08,-69.61 66.64,-112.21 290.46,174.22 113.68,461.28 354.21,642.72 -2.05,185.76 10.05,23.13 -53.49,86.68l-96.36 44.42c-165.11,-126.9 -261.11,-398.71 -271,-661.61zm1489.51 -457.26c55.91,-126.61 63.98,-124.8 222,-137.67l124.53 32.65c63.41,124.78 42.82,231.9 44.4,425.45 36.79,297.82 70.54,446.34 179.6,675.18l-159.22 53.88c-117.39,51.48 -207.9,71.58 -339.99,46.74 -135.78,-199.84 -162.23,-870.42 -71.32,-1096.23zm8830.58 1045.83l-136.44 -36.68c81.69,-191.98 152.03,-403.83 175.63,-650.89l6.69 -369c57.41,-51.86 74.06,-90.11 177.09,-122.81 155.98,37.64 133.28,24.94 215.92,138.95 98.17,227.27 89.06,894.27 -83.62,1104.96 -149.14,18.12 -237.44,0.11 -355.27,-64.53zm-10032.9 -788.26c4.4,-54.02 -9.91,-43.03 43.43,-32.32l53.43 34.3c82.51,82.91 102.46,68.71 177.73,135.03 1.3,1.14 68.28,67.4 70.9,70.13 66.35,69.41 23.44,-11.07 76.82,99.22 54.7,113 130.37,377.23 151.59,476.31l-70.88 26.74c-302.64,179.16 -492.66,-523.7 -503.02,-809.41zm9040.74 857.08c-214.99,4.32 -424.32,3.7 -578.96,-88.29 -161.76,-426.97 -45.3,-830.98 165.57,-1147.17 132.98,-199.41 605.54,-510.47 1005.25,-347.64l45.23 33.41c342.21,63.45 338.52,668.56 259.77,1051.78 -105.4,512.85 -366.61,528.95 -896.86,497.91zm-7047.27 -1553.06l30.31 -40.2c508.71,-160.27 809.8,126.81 1038.6,377.85 248.43,272.59 291.45,761.26 140.98,1143.81l-535.2 62.16c-513.68,-2.77 -792.25,41.03 -920.03,-460.48 -102.67,-403 -95.32,-949.64 245.34,-1083.14zm9148.39 1507.1c-51.65,-27.8 -54.35,2.33 22.43,-203.2 70.73,-189.32 38.38,-459.13 435.84,-596.4l77.37 -53.67c0.81,205.51 -57.68,432.5 -127.81,607.26 -53.99,134.54 -244.49,405.68 -407.83,246.01zm46.04 -769.1c-23.71,166.82 -64.23,347.98 -123.17,531.76 -27.46,85.6 -39.92,181.05 -95.33,225.38 -68.18,54.54 -195.45,71 -266.96,22.96 -127.98,-115.76 -145.93,-73.33 -110.2,-288.66 27.08,-163.14 27.11,-243.66 105.24,-357.39 92.42,-134.52 303.09,-378.41 502.08,-416.52 32.44,111.83 20.26,171.23 -11.66,282.47zm-10237.7 765.03c-28.75,65.59 -147.03,24.04 -205.81,-8.35 -100.74,-55.52 -74.71,-62.72 -121.61,-202 -65.02,-193.08 -116.48,-339.77 -133.69,-554.68 -33.71,-133.11 -47.72,-190.68 -11.53,-303.18 290.29,109.99 547.27,356.91 589.48,670.33 17.71,131.56 44.42,252.33 23.29,350.75 -86.51,42.87 -53.79,26.64 -140.13,47.13z"/>
     <path class="fil1 str0" d="M9081.54 5061.61l46.76 17.04 20.28 48.76c5.07,8.99 15.5,21.32 20.51,23.18 3.61,1.35 17.16,7.22 20.77,7.99 65.42,13.99 48.57,66.73 42.06,-42.1l-83.34 10.93 -20.28 -48.76 -46.76 -17.04c113.65,-95.2 107.04,-25.38 124.88,-76.58 3.82,-10.97 16.11,-7.43 23.51,-12.25 -56.36,-0.78 -69.75,-9.62 -143.35,4.47 -135.61,25.98 -94.94,36.2 -122.53,52.05l117.49 32.31z"/>
    </g>
    <path class="fil1 str0" d="M9254.55 5939.81c-1.13,-21.27 -24.61,-50.16 -24.66,-50.24 -80.92,134.24 -23.19,107.02 0,145.49 4.95,-7.47 11.71,-18.34 13.13,-23.45 57.47,-207.32 21.91,123.61 11.53,-71.8z"/>
   </g>
   <path class="fil0" d="M5772.67 5896.06l0 0z"/>
  </g>
 </g>
</svg>
