<?xml version="1.0" encoding="UTF-8"?>
<!DOCTYPE svg PUBLIC "-//W3C//DTD SVG 1.0//EN" "http://www.w3.org/TR/2001/REC-SVG-20010904/DTD/svg10.dtd">
<!-- Creator: CorelDRAW 2020 (64-Bit) -->
<svg xmlns="http://www.w3.org/2000/svg" xml:space="preserve" width="150mm" height="100mm" version="1.0" style="shape-rendering:geometricPrecision; text-rendering:geometricPrecision; image-rendering:optimizeQuality; fill-rule:evenodd; clip-rule:evenodd"
viewBox="0 0 15000 10000"
 xmlns:xlink="http://www.w3.org/1999/xlink"
 xmlns:xodm="http://www.corel.com/coreldraw/odm/2003">
 <defs>
  <style type="text/css">
   <![CDATA[
    .fil0 {fill:#5D6A79}
    .fil1 {fill:#F1F1F2}
   ]]>
  </style>
 </defs>
 <g id="Capa_x0020_1">
  <metadata id="CorelCorpID_0Corel-Layer"/>
  <g id="_2072209336832">
   <path className="fil0" d="M6427.85 6109.38c8.15,-100.25 21.12,-209.15 80.11,-288.28l141.7 -138.5c3.26,-3.19 14.27,-6.54 16.6,-16.69 2.31,-10.08 10.48,-11.59 16.33,-16.74 170.13,222.64 345.37,101.85 478.41,-58.75l50.76 -59.24c211.54,202.58 129.92,25.72 164.1,497.2 85.36,279.08 -66.44,969.97 -672.32,650.93 -436.35,-229.76 -217.48,-86.74 -619.12,-116.4 -216.11,-15.95 -303.16,-252.43 -322.68,-496.79 11.83,-152.66 23.1,-260.94 109.46,-379.66 168.49,80.25 211.75,188.73 475.11,169.19l-25.78 339.47 93.84 93.42c43.59,-62.45 34.36,-74.54 13.48,-179.16zm2517.92 -106.54c28.23,250.26 -283.37,595.54 -435.36,761.25 -396.78,432.61 -933.11,-418.62 -990.09,-656.35 -52.93,-135.13 -64.8,-303.07 4.59,-432.98 146.73,-40.49 366.03,305.74 741.01,137.96 524.31,-234.6 285.82,-366.41 628.18,-257.38l51.67 447.5zm-5323.9 267.55c-65.14,206.93 -174.59,303.34 -333.26,458.53 -225.33,220.39 -319.71,151.98 -662.97,152.81 -320.68,0.78 -475.33,45.67 -683.13,-134.64 -96.03,-83.32 -255.63,-347.18 -260.36,-545.11 -76.34,-125.18 -64.37,-293.31 -47.23,-458.59 62.68,22.21 649.74,525.95 939.04,-100.29 117.39,64.19 336.88,272.2 521.74,303.23 285.19,47.87 366.43,-99.24 529.92,-152.94 6,-1.98 23.99,6.36 28.44,-4.46 4.63,-11.24 19.83,-3.98 29.74,-2.98 53.44,171.19 41.5,340.01 -61.93,484.44zm6434.78 -73.48c10.99,279.16 -146.6,1030.61 -473.81,886.95 -121.07,-53.15 -248.46,-239.43 -319.57,-389.06 -92.43,-194.48 -114.16,-348.06 -182.85,-551.29 -54.24,-231.82 -71.79,-374.2 -27.5,-612.59 114.59,15.91 119.17,59.67 231.55,118.44 265.94,139.08 568.76,160.3 865.11,162.26 -23.45,132.11 -32.56,296.63 -92.93,385.29zm1434.14 -17.1c-39.02,233.83 -39.31,415.23 -130.95,596.43 -235.49,-58.47 -181.76,-198.53 -159.61,-443.76l28.65 -719.38 272.28 83.83 -10.37 482.88zm-396.02 120.94c-45.73,275.99 -67.39,479.83 -249.4,613.9 -373.58,-8.63 -420.88,-393.09 -504.65,-777.42l-55.96 -317.54c808.46,-115.53 474.97,-218.06 762.16,-337.37 108.88,228.01 78.41,547.37 47.85,818.43zm-5439.67 -128.92c24.63,215.94 -128.29,429.55 -233.29,503.38 -207.84,146.15 -399.73,84.79 -644.21,75.46 -205.2,-7.83 -529.26,71.47 -681.25,-39.59 -137.81,-100.7 -230.18,-243.54 -242.58,-462.74l-10.08 -422.94c54.04,19.29 23.25,11.64 71.97,45.46 378.32,262.69 398.91,-12.13 593.36,-136.6 -33.82,150.45 -77.85,288.63 -34.66,439.89l31.66 128.29c124.17,9.5 43.58,13.33 91.25,-44.77l-9.7 -369.19c109.86,-25.18 307.78,134.5 504.25,66.3 204.95,-71.14 212.94,-199.23 356.05,-322.26 195.45,227.69 133.44,86.7 236.65,149.26l-29.42 390.05zm-1880.62 -568.01l-19.94 87.9c-109.97,-78.73 6.27,-79.97 19.94,-87.9zm5197.22 -129.69c-71.83,-17.67 -93.42,-0.55 -112.33,-73.71 23.16,-12.77 -49.17,-105.57 82.07,-9.86 37.48,27.33 21.31,48.22 30.26,83.57zm-1684.14 -665.88c36.36,-316.77 264.56,-616.56 505.73,-703.13 403.95,-145.01 600.99,165.46 763.96,336.45l10.13 54.04c117.05,62.91 230.76,287.88 260.97,446.51 21.65,113.72 28.03,219.82 -19.13,317.91 -51.18,106.45 -97.6,138.35 -195.59,159.03 10.22,50.73 20.79,37.02 -30.16,42.3l-36.9 31.92 -31.26 39.53c-499.02,327.92 -511.69,257.2 -993.01,-32.29l-39.62 -31.08 -45.47 -17.68 -29.18 -38.35c-93.8,-69.71 -157.64,-102.63 -177.12,-264.35 -13.17,-109.25 10.75,-263.83 56.65,-340.81zm2923.7 -902.23c62.77,54.82 93.32,107.63 166.01,193.29 65.27,76.92 97.88,131.03 142.53,210.52 83.58,148.8 185.04,273.5 211.23,452.95 101.99,698.68 281.07,805.23 -147.73,893.34l-60.14 16.27c-559.06,80.92 -1463.84,-69.18 -1555.77,-475.96 -84.57,-374.18 93.96,-1420.95 393.96,-1673.29 321.99,-270.83 799.84,273.1 849.91,382.88zm-5807.66 1562.4c-10.25,183.13 -72.91,292.02 -148.27,383.6 -163.09,23.37 -192.86,-3.72 -278.16,-81.61 -196.29,-224.63 -195.08,-746.85 78.67,-1026.75 111.23,-113.73 239.3,-211.65 462.29,-245.64 228.41,-34.81 349.6,1.9 543.78,89.83l36.82 31.2 38.55 25.7 25.05 46.36c89.09,42.09 88.28,50.51 159.11,161.73 76.01,119.36 58.18,115.86 67.96,259.27 19.03,279.25 68.57,287.66 -65.35,482.99 -132.41,150.76 -257.81,400.41 -596.79,202.27 -118.32,-69.17 -193.06,-114.56 -208.77,-261.01 -6.56,-61.16 7.92,-148.75 1.62,-211.88 -18.72,-187.55 24.74,-71.13 -65.77,-133.06 -73.27,103.76 -51.5,108.78 -50.74,277zm2629.81 77.97c-44.6,85.08 -25.29,58.27 -103.87,110.4 -265.11,-130.73 -84.85,-138.52 -211.67,-304.48 -62.03,32.6 -47.34,3.19 -122.91,166.19 -101.71,219.41 -268.24,311.12 -502.29,154.7 -111.96,-57.53 -160.58,-93.52 -210.15,-181.81l55.41 -67.11c36.1,-152.85 72.1,-98.33 -12.49,-184.49 -90.88,44.43 -44.15,18 -105.7,135.81 -32.14,61.52 -58.88,115.07 -88.42,173.74 -117.34,108.34 1.67,52.62 -148.26,110.51l-47 -209.3c-28.04,-519.58 -120.54,-794.06 512.33,-812.41 426.62,-12.37 735.5,-295.57 989.62,109.63 126.25,167.61 76.91,148.25 85.72,394.84 5.71,160.03 24.99,268.75 -90.32,403.78zm-5212.19 183.77c-133.98,-121.93 -154.97,-112.6 -227.05,-292.08 -505.97,-1259.79 1451.73,-1784.37 1777.16,-957.37l8.82 46.02 45.88 61.13c142.33,99.73 294.07,470.97 281.49,694.81 -14.72,262.03 -189.33,479.16 -400.85,541.28 -210.58,28.55 -642.52,-141.42 -638.65,-354.33 1.65,-90.89 54.27,-325.98 20.22,-457.09 -31.15,-119.93 22.73,-63.18 -76.46,-114.84 -107.63,99.76 52.22,477.77 -149.19,720.26 -235.98,284.11 -392.2,274.87 -641.37,112.21zm10837.5 -1485.32c167.46,115.83 245.35,517.4 289.1,737.65 82.46,415.09 -24.79,545.16 -417.22,599.73 -463.08,41.96 -1335.64,83.41 -1566.69,-270.87 -306.35,-469.73 -196.66,-3089.6 973.84,-2210.25 107.54,80.79 150.13,151.42 241.69,253.92 158.99,177.98 470.23,676.08 479.28,889.82zm254.32 -709.25c242.26,202.68 649.1,1310.8 534.73,1750.91l-361.11 6.3 -13 -263.71c-77.92,-392.85 -216.43,-762.71 -385.17,-1089.86 -199.46,-386.72 -460.51,-544.53 -255.64,-1042.7 155.48,52.99 101.77,46.87 222.37,195.59 96.82,119.41 232.08,252.73 257.82,443.47zm-1127.05 -683.72l-100.64 -41.77c-180.81,17.14 -367.9,12.56 -508.98,129.91 -421.91,350.93 -450.62,850.85 -455.49,1425.33 -191.05,-134.05 -603.25,-1007.53 -1116.99,-1027.06 -629.07,-23.92 -653.31,1018.34 -769.35,1278.76 -139.16,-149.62 -203.73,-333.26 -330.67,-443.47 -550.12,-477.61 -1142.72,-88.75 -1322.81,513.99 -241.54,-252.16 -386.17,-337.24 -869.82,-189.12 -175.66,53.8 -352.42,17.58 -541.67,60.67 -264.24,60.16 -227.22,97.41 -354.79,229.9 -107.36,-247.73 -500.26,-469.15 -912.03,-400.04 -484.81,81.38 -528.14,241.75 -733.89,568.08 -118.75,-217.3 -170.4,-354.8 -297.88,-549.03 -178.06,-271.32 -202.67,-184.67 -428.13,-387.91 -982.48,-249.13 -1967.29,433.68 -1526.55,1532.58 63.78,159.01 -6.68,161.1 -9.08,369.91 -6.55,570.47 334.04,1116.81 869.76,1087.69 366.02,-19.9 1068.73,152.32 1327.72,-641.93l110.44 201.05c28.57,63.06 56.61,117.14 90.67,155.82 237.19,269.3 1215.48,176.35 1428.45,137.33 141.59,-114.46 210.98,-88.02 399.68,-396.07 163.74,112.79 129.69,245.03 454.31,207.72 512.76,-58.94 665.41,401.66 1053.38,125.68 142.55,-101.4 115.05,-163.45 200.72,-286.78l96.1 -100.18c101.27,184.42 444.05,590.1 766.2,593.19 342.21,3.28 493.35,-463.73 698.87,-689.45 137.62,354.83 298.25,882.37 647.43,904.1 370.28,23.04 470.5,-683.65 547.76,-1033.13 31.13,42.54 5.25,-18.63 47.65,87.74 41.96,105.25 93.81,475.25 277.75,639.95 46.84,41.94 225.51,134.01 333.74,107.01 121.32,-30.27 180.85,-172.85 269.74,-256.19 477.58,541.9 471.21,-731.24 498.7,-1046.98l842.31 -6.44c306.05,-23.81 482.86,-108.75 601.23,-309.58 295.49,40.28 496.36,43.23 516.57,-220.08 67.98,-885.64 -1237.12,-3369.23 -1346.7,-1986.65 -92.94,-40.75 -152.23,-130.81 -210.71,-185.19 -96.34,-89.59 -128.06,-87.57 -243,-159.36z"/>
   <path className="fil1" d="M12530.6 5582.22l108.4 -122.76c298.58,-297 138.08,-850.26 19.72,-1214.62 -9.05,-213.74 -320.29,-711.84 -479.28,-889.82 -91.56,-102.5 -134.15,-173.13 -241.69,-253.92 -1170.5,-879.35 -1280.19,1740.52 -973.84,2210.25 231.05,354.28 1103.61,312.83 1566.69,270.87z"/>
   <path className="fil1" d="M10523.16 5672.39l60.14 -16.27c36.58,-214.55 83.57,-187.7 62.53,-463.06 -12.83,-167.88 -42.29,-288.93 -95.35,-455.1 -97.16,-304.24 -233.88,-554.74 -339.22,-831.94 -50.07,-109.78 -527.92,-653.71 -849.91,-382.88 -300,252.34 -478.53,1299.11 -393.96,1673.29 91.93,406.78 996.71,556.88 1555.77,475.96z"/>
   <path className="fil1" d="M1821.22 5730.16c617.35,-36.37 689.63,-508.95 650.3,-1029.47 8.26,7.75 17.18,18.46 22.57,25.41l68.39 99.89c44.31,70.23 -12.97,23.09 49.3,71.7 99.19,51.66 45.31,-5.09 76.46,114.84 34.05,131.11 -18.57,366.2 -20.22,457.09 -3.87,212.91 428.07,382.88 638.65,354.33l74.92 -130.72c92.68,-122.97 141.55,-213.02 156.38,-439.98 15.67,-239.69 -65.1,-444.55 -111.94,-665.39l-45.88 -61.13 -8.82 -46.02c-325.43,-827 -2283.13,-302.42 -1777.16,957.37 72.08,179.48 93.07,170.15 227.05,292.08z"/>
   <path className="fil1" d="M7287.56 4808.25c-11.58,241.86 94.58,376.04 120.47,605.16l29.18 38.35 45.47 17.68 39.62 31.08c481.32,289.49 493.99,360.21 993.01,32.29l31.26 -39.53 36.9 -31.92 30.16 -42.3c37.46,-412.25 51.62,-511.47 -46.25,-923.45l-10.13 -54.04c-162.97,-170.99 -360.01,-481.46 -763.96,-336.45 -241.17,86.57 -469.37,386.36 -505.73,703.13z"/>
   <path className="fil1" d="M3977.17 5770.41l270.42 -31.71c60.79,-101.5 53.35,-173.89 156.01,-270.28 -0.76,-168.22 -22.53,-173.24 50.74,-277 90.51,61.93 47.05,-54.49 65.77,133.06 6.3,63.13 -8.18,150.72 -1.62,211.88 15.71,146.45 90.45,191.84 208.77,261.01 338.98,198.14 464.38,-51.51 596.79,-202.27 39.83,-509.87 -91.59,-513.73 -161.72,-903.99l-25.05 -46.36 -38.55 -25.7 -36.82 -31.2c-194.18,-87.93 -315.37,-124.64 -543.78,-89.83 -222.99,33.99 -351.06,131.91 -462.29,245.64 -273.75,279.9 -274.96,802.12 -78.67,1026.75z"/>
   <path className="fil1" d="M5536.06 5450.55c88.3,57.31 80.16,109.14 195.26,98.79 29.54,-58.67 56.28,-112.22 88.42,-173.74 61.55,-117.81 14.82,-91.38 105.7,-135.81 84.59,86.16 48.59,31.64 12.49,184.49 26.62,105.38 14.98,112.13 93.77,193.16l39.93 36.78c4.51,4.22 14.26,12.4 21.04,18.98 234.05,156.42 400.58,64.71 502.29,-154.7 75.57,-163 60.88,-133.59 122.91,-166.19 126.82,165.96 -53.44,173.75 211.67,304.48 78.58,-52.13 59.27,-25.32 103.87,-110.4l4.6 -798.62c-254.12,-405.2 -563,-122 -989.62,-109.63 -632.87,18.35 -540.37,292.83 -512.33,812.41z"/>
   <path className="fil1" d="M3621.87 6270.39c-154.34,-24.59 -293.25,-95.69 -466.25,-108.95 -191.54,-14.68 -322.78,42.97 -507.85,65.7 -181.71,22.32 -367.3,43.86 -551.95,35.1 -103.62,-4.91 -172.49,-15.74 -273.58,-37.08 -134.33,-28.36 -73.11,-48.97 -140.09,-23.18 4.73,197.93 164.33,461.79 260.36,545.11 207.8,180.31 362.45,135.42 683.13,134.64 343.26,-0.83 437.64,67.58 662.97,-152.81 158.67,-155.19 268.12,-251.6 333.26,-458.53z"/>
   <path className="fil1" d="M4597.27 6257.67c-47.67,58.1 32.92,54.27 -91.25,44.77l-31.66 -128.29c-192.33,55.51 -435.85,114.98 -591.11,-11.73l-29.48 85.92c12.4,219.2 104.77,362.04 242.58,462.74 151.99,111.06 476.05,31.76 681.25,39.59 244.48,9.33 436.37,70.69 644.21,-75.46 105,-73.83 257.92,-287.44 233.29,-503.38 -29.72,-129.46 -12.05,-61.57 -97.73,-140.29 -139.21,313.7 -765,242.92 -960.1,226.13z"/>
   <path className="fil1" d="M6427.85 6109.38c20.88,104.62 30.11,116.71 -13.48,179.16l-93.84 -93.42 -79.98 -143.37c-125.25,130.89 -344.93,57.18 -478.81,14.37 19.52,244.36 106.57,480.84 322.68,496.79 401.64,29.66 182.77,-113.36 619.12,116.4 605.88,319.04 757.68,-371.85 672.32,-650.93 -94.93,-122.64 19.06,-44.09 -130.62,-75.46 -390.66,-81.86 -362.72,288.59 -817.39,156.46z"/>
   <path className="fil1" d="M1682.15 6201.98c66.98,-25.79 5.76,-5.18 140.09,23.18 101.09,21.34 169.96,32.17 273.58,37.08 184.65,8.76 370.24,-12.78 551.95,-35.1 185.07,-22.73 316.31,-80.38 507.85,-65.7 173,13.26 311.91,84.36 466.25,108.95 103.43,-144.43 115.37,-313.25 61.93,-484.44 -9.91,-1 -25.11,-8.26 -29.74,2.98 -4.45,10.82 -22.44,2.48 -28.44,4.46 -163.49,53.7 -244.73,200.81 -529.92,152.94 -184.86,-31.03 -404.35,-239.04 -521.74,-303.23 -289.3,626.24 -876.36,122.5 -939.04,100.29 -17.14,165.28 -29.11,333.41 47.23,458.59z"/>
   <path className="fil1" d="M7520.32 6107.74c56.98,237.73 593.31,1088.96 990.09,656.35 151.99,-165.71 463.59,-510.99 435.36,-761.25 -203.36,99.4 -494.07,204.67 -714.24,245.07 -170.27,31.24 -547.72,-81.54 -657.52,-231.12 -73.89,50.34 -76.84,-79.66 -53.69,90.95z"/>
   <path className="fil1" d="M7520.32 6107.74c-23.15,-170.61 -20.2,-40.61 53.69,-90.95 109.8,149.58 487.25,262.36 657.52,231.12 220.17,-40.4 510.88,-145.67 714.24,-245.07l-51.67 -447.5c-342.36,-109.03 -103.87,22.78 -628.18,257.38 -374.98,167.78 -594.28,-178.45 -741.01,-137.96 -69.39,129.91 -57.52,297.85 -4.59,432.98z"/>
   <path className="fil1" d="M13073.66 5029.09l49.69 148.99c85.84,-497.36 -24.15,-1206.14 -210.31,-1642.49 -25.74,-190.74 -161,-324.06 -257.82,-443.47 -120.6,-148.72 -66.89,-142.6 -222.37,-195.59 -204.87,498.17 56.18,655.98 255.64,1042.7 168.74,327.15 307.25,697.01 385.17,1089.86z"/>
   <path className="fil1" d="M10056.65 6196.91c-27.38,-0.27 -285.49,71.63 -477.96,66.39 -225.21,-6.13 -335.97,-46.56 -498.27,-119.79 68.69,203.23 90.42,356.81 182.85,551.29 71.11,149.63 198.5,335.91 319.57,389.06 327.21,143.66 484.8,-607.79 473.81,-886.95z"/>
   <path className="fil1" d="M9080.42 6143.51c162.3,73.23 273.06,113.66 498.27,119.79 192.47,5.24 450.58,-66.66 477.96,-66.39 60.37,-88.66 69.48,-253.18 92.93,-385.29 -296.35,-1.96 -599.17,-23.18 -865.11,-162.26 -112.38,-58.77 -116.96,-102.53 -231.55,-118.44 -44.29,238.39 -26.74,380.77 27.5,612.59z"/>
   <path className="fil1" d="M10340.72 6137.23c266.59,74.52 355.96,256.35 754.05,163.52 30.56,-271.06 61.03,-590.42 -47.85,-818.43 -287.19,119.31 46.3,221.84 -762.16,337.37l55.96 317.54z"/>
   <path className="fil1" d="M4597.27 6257.67c195.1,16.79 820.89,87.57 960.1,-226.13 85.68,78.72 68.01,10.83 97.73,140.29l29.42 -390.05c-103.21,-62.56 -41.2,78.43 -236.65,-149.26 -143.11,123.03 -151.1,251.12 -356.05,322.26 -196.47,68.2 -394.39,-91.48 -504.25,-66.3l9.7 369.19z"/>
   <path className="fil1" d="M13073.66 5029.09l13 263.71 361.11 -6.3c114.37,-440.11 -292.47,-1548.23 -534.73,-1750.91 186.16,436.35 296.15,1145.13 210.31,1642.49l-49.69 -148.99z"/>
   <path className="fil1" d="M11094.77 6300.75c-398.09,92.83 -487.46,-89 -754.05,-163.52 83.77,384.33 131.07,768.79 504.65,777.42 182.01,-134.07 203.67,-337.91 249.4,-613.9z"/>
   <path className="fil1" d="M6427.85 6109.38c454.67,132.13 426.73,-238.32 817.39,-156.46 149.68,31.37 35.69,-47.18 130.62,75.46 -34.18,-471.48 47.44,-294.62 -164.1,-497.2l-50.76 59.24c-133.04,160.6 -308.28,281.39 -478.41,58.75 -5.85,5.15 -14.02,6.66 -16.33,16.74 -2.33,10.15 -13.34,13.5 -16.6,16.69l-141.7 138.5c-58.99,79.13 -71.96,188.03 -80.11,288.28z"/>
   <path className="fil1" d="M10583.3 5656.12l-60.14 16.27 60.14 -16.27c428.8,-88.11 249.72,-194.66 147.73,-893.34 -26.19,-179.45 -127.65,-304.15 -211.23,-452.95 -44.65,-79.49 -77.26,-133.6 -142.53,-210.52 -72.69,-85.66 -103.24,-138.47 -166.01,-193.29 105.34,277.2 242.06,527.7 339.22,831.94 53.06,166.17 82.52,287.22 95.35,455.1 21.04,275.36 -25.95,248.51 -62.53,463.06z"/>
   <path className="fil1" d="M1821.22 5730.16c249.17,162.66 405.39,171.9 641.37,-112.21 201.41,-242.49 41.56,-620.5 149.19,-720.26 -62.27,-48.61 -4.99,-1.47 -49.3,-71.7l-68.39 -99.89c-5.39,-6.95 -14.31,-17.66 -22.57,-25.41 39.33,520.52 -32.95,993.1 -650.3,1029.47z"/>
   <path className="fil1" d="M3853.77 6248.34l29.48 -85.92c155.26,126.71 398.78,67.24 591.11,11.73 -43.19,-151.26 0.84,-289.44 34.66,-439.89 -194.45,124.47 -215.04,399.29 -593.36,136.6 -48.72,-33.82 -17.93,-26.17 -71.97,-45.46l10.08 422.94z"/>
   <path className="fil1" d="M12530.6 5582.22c392.43,-54.57 499.68,-184.64 417.22,-599.73 -43.75,-220.25 -121.64,-621.82 -289.1,-737.65 118.36,364.36 278.86,917.62 -19.72,1214.62l-108.4 122.76z"/>
   <path className="fil1" d="M5761.74 6066.12c133.88,42.81 353.56,116.52 478.81,-14.37l79.98 143.37 25.78 -339.47c-263.36,19.54 -306.62,-88.94 -475.11,-169.19 -86.36,118.72 -97.63,227 -109.46,379.66z"/>
   <path className="fil1" d="M11200.23 6332.48l42.57 -18.31c175.61,-51.27 61.02,6 220.32,-115.15 6.85,-5.21 17.81,-13.84 27.67,-19.21l10.37 -482.88 -272.28 -83.83 -28.65 719.38z"/>
   <path className="fil1" d="M3380.15 4526.73l45.88 61.13c46.84,220.84 127.61,425.7 111.94,665.39 -14.83,226.96 -63.7,317.01 -156.38,439.98l-74.92 130.72c211.52,-62.12 386.13,-279.25 400.85,-541.28 12.58,-223.84 -139.16,-595.08 -281.49,-694.81l-45.88 -61.13 -8.82 -46.02 8.82 46.02z"/>
   <path className="fil1" d="M8567.38 4495.61c97.87,411.98 83.71,511.2 46.25,923.45l-30.16 42.3 -36.9 31.92 -31.26 39.53 31.26 -39.53 36.9 -31.92c50.95,-5.28 40.38,8.43 30.16,-42.3 97.99,-20.68 144.41,-52.58 195.59,-159.03 47.16,-98.09 40.78,-204.19 19.13,-317.91 -30.21,-158.63 -143.92,-383.6 -260.97,-446.51l-10.13 -54.04 10.13 54.04z"/>
   <path className="fil1" d="M11200.23 6332.48c-22.15,245.23 -75.88,385.29 159.61,443.76 91.64,-181.2 91.93,-362.6 130.95,-596.43 -9.86,5.37 -20.82,14 -27.67,19.21 -159.3,121.15 -44.71,63.88 -220.32,115.15l-42.57 18.31z"/>
   <path className="fil1" d="M5098.73 4619.05l38.55 25.7 25.05 46.36c70.13,390.26 201.55,394.12 161.72,903.99 133.92,-195.33 84.38,-203.74 65.35,-482.99 -9.78,-143.41 8.05,-139.91 -67.96,-259.27 -70.83,-111.22 -70.02,-119.64 -159.11,-161.73l-25.05 -46.36 -38.55 -25.7 -36.82 -31.2 36.82 31.2z"/>
   <path className="fil1" d="M7033.41 5546.39c115.31,-135.03 96.03,-243.75 90.32,-403.78 -8.81,-246.59 40.53,-227.23 -85.72,-394.84l-4.6 798.62z"/>
   <path className="fil1" d="M7408.03 5413.41l29.18 38.35 45.47 17.68 39.62 31.08 -39.62 -31.08 -45.47 -17.68 -29.18 -38.35c-25.89,-229.12 -132.05,-363.3 -120.47,-605.16 -45.9,76.98 -69.82,231.56 -56.65,340.81 19.48,161.72 83.32,194.64 177.12,264.35z"/>
   <path className="fil1" d="M3977.17 5770.41c85.3,77.89 115.07,104.98 278.16,81.61 75.36,-91.58 138.02,-200.47 148.27,-383.6 -102.66,96.39 -95.22,168.78 -156.01,270.28l-270.42 31.71z"/>
   <path className="fil1" d="M5731.32 5549.34c-115.1,10.35 -106.96,-41.48 -195.26,-98.79l47 209.3c149.93,-57.89 30.92,-2.17 148.26,-110.51z"/>
   <path className="fil1" d="M6092.67 5673.2c-6.78,-6.58 -16.53,-14.76 -21.04,-18.98l-39.93 -36.78c-78.79,-81.03 -67.15,-87.78 -93.77,-193.16l-55.41 67.11c49.57,88.29 98.19,124.28 210.15,181.81z"/>
   <path className="fil1" d="M8859.37 5400.42c18.91,73.16 40.5,56.04 112.33,73.71 -8.95,-35.35 7.22,-56.24 -30.26,-83.57 -131.24,-95.71 -58.91,-2.91 -82.07,9.86z"/>
   <path className="fil1" d="M3754.54 5691.72l19.94 -87.9c-13.67,7.93 -129.91,9.17 -19.94,87.9z"/>
  </g>
 </g>
</svg>
